<?xml version="1.0" encoding="utf-8"?>
<!-- Generator: Adobe Illustrator 27.9.0, SVG Export Plug-In . SVG Version: 6.00 Build 0)  -->
<svg version="1.1" id="Layer_1" xmlns="http://www.w3.org/2000/svg" xmlns:xlink="http://www.w3.org/1999/xlink" x="0px" y="0px"
	 viewBox="0 0 2250 588.4" style="enable-background:new 0 0 2250 588.4;" xml:space="preserve">
<style type="text/css">
	.st0{fill:#0080E0;}
</style>
<g>
	<path d="M553.1,246.3V93.4l-81.4,11.1v5.8c28.4,10.7,32.5,19.8,32.5,55.5v80.6c0,32.9-4.9,45.6-27.6,53.9v5.8h109v-5.8
		C558,291.5,553.1,279.2,553.1,246.3z"/>
	<path d="M598.7,93.4c-16,0-28.4,13.2-28.4,28.4c0,16,12.3,28.4,28.4,28.4c15.2,0,28-12.3,28-28.4
		C626.7,106.5,613.9,93.4,598.7,93.4z"/>
	<path d="M745.9,97l-1.6-2.9c-50.6,6.6-96.6,44.8-97,107.7c0.4,62.5,46.5,101.6,97,108.1l1.6-3.3c-26.7-15.6-42.8-57.2-42.8-104.5
		C703.1,155,719.2,113.1,745.9,97z"/>
	<path d="M415.3,244.6V93.4l-81.4,11.1v5.8c28.4,10.7,32.5,19.8,32.5,55.5V306h81.4v-5.8C419.4,289.5,415.3,280.4,415.3,244.6z"/>
	<path d="M767.3,94.2l-1.7,2.9c26.3,16,42.3,58,42.8,105.3c-0.4,47.3-16.5,88.8-42.8,104.5l1.7,3.3c50.6-6.6,96.6-45.6,97-108.1
		C863.9,139,817.9,100.7,767.3,94.2z"/>
	<path d="M165.3,249.6v-91.7c0-43.6-33.3-64.5-69.5-64.5c-21,0-35.4,5.3-51.4,14.4l4.1,3.3c5.4-2.1,11.9-3.3,18.9-3.3
		c31.2,0,48.9,24.3,48.9,57.2v115c0,16.9,11.9,29.6,32.5,29.6c16.9,0,44.8-12.3,53-17.3v-4.1C179.7,286.2,165.3,282.5,165.3,249.6z"
		/>
	<path d="M1023.4,155.8h4.5v-50.1c-15.6-6.2-32.1-10.7-48.9-12.3l-1.6,4.5C994.3,108.6,1004.9,125.8,1023.4,155.8z"/>
	<polygon points="60.9,136.9 35.4,115.5 33.7,115.5 8.2,136.9 8.2,172.3 60.9,172.3 	"/>
	<path d="M902.6,238.5H898l1.7,58.4c16.9,9,35.4,13.6,56.3,15.2l1.6-4.5C939.2,296.9,923.9,275.1,902.6,238.5z"/>
	<path d="M85.5,283.3c-20.2,0-36.2-12-36.2-36.6c0-31.6,28-44.8,49.3-49.3v-4.1C35,193.2,0,218.3,0,258.6
		c0,29.6,24.7,52.2,54.7,52.2c21.4,0,39.5-11.1,51-26.7l-1.7-3.3C98.7,282.5,89.7,283.3,85.5,283.3z"/>
	<path d="M331,281.2c-21.4,0-41.9-11.1-41.9-38.2V93.4l-81.4,11.1v5.8c28.4,10.7,32.5,19.8,32.5,55.5v78.5
		c0,52.2,27.2,66.6,56.8,66.6c22.2,0,46.1-15.2,53.4-28l-1.6-3.3C342.9,280.8,337.6,281.2,331,281.2z"/>
	<path d="M1765.6,246.3V93.4l-81,11.1v5.8c28.4,10.7,32.5,19.8,32.5,55.5v80.6c0,32.9-4.9,45.6-28,53.9v5.8h104.4v-5.8
		C1770.6,291.9,1765.6,279.2,1765.6,246.3z"/>
	<path d="M1892.7,246.3v-80.6c0-25.5-7.4-72.4-58.8-72.4c-17.3,0-40.7,11.9-55.1,23.8l2.5,4.9c9-1.6,20.6-2.4,28.4-2.4
		c21.8,0,34.1,14.4,34.1,41.5v85.1c0,32.9-4.9,45.6-27.5,53.9v5.8h104v-5.8C1897.6,291.9,1892.7,279.2,1892.7,246.3z"/>
	<path d="M2019.7,246.3v-80.6c0-25.5-7.4-72.4-58.8-72.4c-17.3,0-40.7,11.9-55.5,23.8l2.5,4.9c9.5-1.6,21-2.4,28.8-2.4
		c21.8,0,34.1,14.4,34.1,41.5v85.1c0,32.9-4.9,45.6-27.6,53.9v5.8h104v-5.8C2024.7,291.9,2019.7,279.2,2019.7,246.3z"/>
	<path d="M2185.5,270.2c-37.4,0-68.7-21.4-68.7-78.5c0-55.9,21-82.7,40.3-94.6l-1.2-3.3c-48.1,5.4-92.5,51.4-92.5,114.3
		c0,63.3,42.4,102.8,98.7,102.8c45.2,0,75.6-39,85.9-58.8l-4.5-3.3C2232.3,258.6,2211.4,270.2,2185.5,270.2z"/>
	<path d="M2178.9,94.2l-2.1,2.9c19.3,10.3,23.4,44,23.4,85.1h-51.4v9.1H2250v-13.6C2250,120.9,2214.2,97.9,2178.9,94.2z"/>
	<path d="M1271,246.3V37.8c0-9.5,1.2-37.8,1.2-37.8l-83.9,11.5v5.8c28.4,10.3,32.5,19.3,32.5,55.1v173.9c0,32.9-4.9,45.6-28,53.9
		v5.8h106.1v-5.8C1275.5,291.9,1271,279.2,1271,246.3z"/>
	<path d="M1401.7,246.3V164c0-51.4-27.6-70.7-60.4-70.7c-25.1,0-48.1,14-60,24.2l2.5,4.5c9.9-1.6,17.3-2,25.5-2
		c18.9,0,44.4,8.2,44.4,43.2v83.1c0,32.9-4.9,45.6-28.4,53.9v5.8h104.8v-5.8C1406.7,291.9,1401.7,279.2,1401.7,246.3z"/>
	<path d="M933.4,134.5c0-16.5,10.3-28.8,24.3-36.6L956,95c-32.1,6.2-56.3,27.5-56.3,59.6c0,73.2,106.5,65.8,106.5,111.4
		c0,19.7-15.2,33.3-28.8,41.5l1.6,2.9c36.6-4.5,64.1-27.5,64.1-62.5C1043.2,171.5,933.4,180.5,933.4,134.5z"/>
	<path d="M1546.5,96.2l-2.1-2.9c-50.2,6.6-96.6,45.6-97,108.5c0.4,62.5,46.9,102.4,97,109l2.1-3.3c-26.7-15.6-42.8-58-42.8-105.3
		C1503.7,155,1519.7,112.3,1546.5,96.2z"/>
	<path d="M1567.9,93.4l-1.6,2.9c26.3,16,42.3,58.8,42.3,106.1s-16,89.6-42.3,105.3l1.6,3.3c50.6-6.6,96.6-46.4,97-109
		C1664.5,139,1618.4,99.9,1567.9,93.4z"/>
</g>
<g>
	<path class="st0" d="M1288.5,586l-46.2-70.8h-32.6V586H1192V420.9h59.7c27.4,0,48.9,20.1,48.9,46.7c0,25-15.3,43-38.7,47l48.1,71.5
		L1288.5,586L1288.5,586z M1209.7,498.2h41.5c18.2,0,31.4-13,31.4-30.7c0-17.2-13.2-29.7-31.4-29.7h-41.5V498.2z"/>
	<path class="st0" d="M1431.5,420.9v17H1357v51.5h66.6v17H1357v62.8h74.6v17h-92.3V420.9H1431.5z"/>
	<path class="st0" d="M1463.4,420.9h21l62.8,139l63.9-139h18.2V586h-17.9V456.7L1552.8,586h-13.4l-58.3-129.3V586h-17.7V420.9z"/>
	<path class="st0" d="M1826.1,503c0,48.1-36.3,85.4-83.3,85.4s-83.3-37.3-83.3-85.4c0-47.7,36.3-84.5,83.3-84.5
		C1789.8,418.5,1826.1,455.3,1826.1,503z M1677.9,503c0,38.5,28.3,68.2,64.9,68.2s64.9-29.7,64.9-68.2c0-38-28.3-67.3-64.9-67.3
		S1677.9,465,1677.9,503z"/>
	<path class="st0" d="M1988.7,502.7c0,47.4-35.4,83.3-81.2,83.3h-51.2V420.9h51.2C1953.3,420.9,1988.7,455.3,1988.7,502.7z
		 M1970.3,502.7c0-37.8-26.2-64.9-61.8-64.9H1874V569h34.5C1943.9,569,1970.3,540.7,1970.3,502.7z"/>
	<path class="st0" d="M2111.2,420.9v17h-74.6v51.5h66.6v17h-66.6v62.8h74.6v17h-92.3V420.9H2111.2z"/>
	<path class="st0" d="M2165.5,420.9v148.2h83.5v17h-101.2V420.9H2165.5z"/>
</g>
</svg>
