<?xml version="1.0" encoding="UTF-8"?>
<svg xmlns="http://www.w3.org/2000/svg" id="Capa_1" data-name="Capa 1" viewBox="0 0 900 190">
  <defs>
    <style>.cls-1{fill:#353535;}.cls-2{fill:#a9b88c;}</style>
  </defs>
  <path class="cls-1" d="M3.6,18.39V17.08H35.41v1.31H32.18a1,1,0,0,1-.45.1,2,2,0,0,0-.56.1A8.34,8.34,0,0,0,27,20.76a6,6,0,0,0-2.12,3.79v20.5h38V25.16a4.43,4.43,0,0,0-.76-2.48,9.56,9.56,0,0,0-1.66-2,3.83,3.83,0,0,0-.61-.5l-.6-.41-.16-.15a.21.21,0,0,0-.15,0,4.6,4.6,0,0,0-2-.91,16.46,16.46,0,0,0-2.87-.2l-1.52-.1V17.08H84.4v1.31H82.68a3.62,3.62,0,0,1-.56.15,1.93,1.93,0,0,1-.45.05,6.46,6.46,0,0,0-2.12.81,9.41,9.41,0,0,0-1.82,1.41,1.36,1.36,0,0,1-.25.36l-.36.35v.1a8.69,8.69,0,0,0-1.21,1.52,3.32,3.32,0,0,0-.5,1.82V80.2A5.31,5.31,0,0,0,77,84.44a9.7,9.7,0,0,0,3.54,2,17.92,17.92,0,0,0,2.17.46,13,13,0,0,0,1.77.15v1.11H53.39V87a3.69,3.69,0,0,0,1.26,0,17.35,17.35,0,0,0,1.77-.31,6,6,0,0,0,1.56-.4,4.91,4.91,0,0,0,1.27-.71,2.19,2.19,0,0,0,.4-.25,2.92,2.92,0,0,1,.4-.25,13.88,13.88,0,0,0,2-1.72,4,4,0,0,0,.86-2.83v-31h-38V79.8a7.54,7.54,0,0,0,.65,3.33,10.1,10.1,0,0,0,1.37,2.12.25.25,0,0,1,.15,0,1,1,0,0,0,.15.15A5.58,5.58,0,0,0,30,86.51c1.14.17,2.46.32,3.94.46a6.67,6.67,0,0,1,.86,0c.3,0,.58,0,.85,0v1.11H4.2V87a1.79,1.79,0,0,0,.86,0l.86-.21a12,12,0,0,0,4.39-2.32,4.55,4.55,0,0,0,2-3.53V25.66a6.24,6.24,0,0,0-2.57-5A10,10,0,0,0,3.6,18.49Zm6,.2,5.75,4.65v.5L13.6,25.26V82a3.14,3.14,0,0,1-.66,2,6.72,6.72,0,0,1-1.36,1.36l-.16.15a.17.17,0,0,1-.15,0,8.46,8.46,0,0,1-.91.61,9.74,9.74,0,0,1-1.21.6V87H24.91v-.31c-.41-.26-.73-.48-1-.65a6.39,6.39,0,0,0-.76-.46c0-.06,0-.1-.05-.1s-.05,0-.05-.1a1.35,1.35,0,0,1-.56-.35L22,84.44a8.41,8.41,0,0,1-1.42-1.61A4.57,4.57,0,0,1,20,80.3V22.94l5.15-4.35v-.2H9.56Zm15.35,29.9h38V46.27h-38Zm35.14-29.7v.11a7.25,7.25,0,0,1,.86.5c.31.2.59.4.86.61.54.4,1.09.84,1.67,1.31s1.16,1,1.77,1.62v.8l-1,.41V80.91a6.48,6.48,0,0,1-.46,2.62,5.6,5.6,0,0,1-1.16,1.72l-.25.25a.42.42,0,0,1-.26.15c0,.07,0,.11,0,.11s-.05,0-.05.1a1.74,1.74,0,0,0-.55.3l-.76.6V87H75.2v-.31a.75.75,0,0,1-.65-.1l-.76-.4a2.42,2.42,0,0,1-.86-.56L72.28,85a1.37,1.37,0,0,0-.26-.2,1.84,1.84,0,0,1-.25-.21,2.31,2.31,0,0,1-.86-1.11,6.62,6.62,0,0,1-.35-2.52v-58l5.25-4.15v-.2H60.05Z"></path>
  <path class="cls-1" d="M89.85,86.76a9.87,9.87,0,0,0,3.68-.4,9.56,9.56,0,0,0,2.78-1.51,20.3,20.3,0,0,0,1.92-1.72c.67-.67,1.41-1.48,2.22-2.42q.51-.51,1-1c.31-.33.59-.67.86-1a30.85,30.85,0,0,0,2.78-3.84,32.64,32.64,0,0,0,2.17-4.35l25.35-54.94h.71l26.05,59.19a15.26,15.26,0,0,0,1.17,2.42c.57,1,1.22,2.06,2,3.13.13.2.26.41.4.61l.4.6c.07.14.16.29.26.46a1.94,1.94,0,0,0,.35.45A12.72,12.72,0,0,0,167,85.65a7.15,7.15,0,0,0,4.24,1.22l1.52-.11v1.42h-37V86.76h2.12a7,7,0,0,0,4.55-1,10.16,10.16,0,0,0,2.42-2.83.69.69,0,0,0,.15-.21,1.27,1.27,0,0,1,.16-.2,7,7,0,0,0,1.11-2.27,9.39,9.39,0,0,0,.3-2.37,6.55,6.55,0,0,0-.2-2.27,13.77,13.77,0,0,0-.81-2.28l-4.85-11.21h-28l-4.44,9.5a31.1,31.1,0,0,0-1.21,3.53,11,11,0,0,0-.4,2.83,8.68,8.68,0,0,0,.3,2.37,11.39,11.39,0,0,0,.81,2.07,9.09,9.09,0,0,0,2.42,3.18,5.76,5.76,0,0,0,3.84,1.27l2.93-.11v1.42H89.85Zm15,0q-.1-.9-.21-1.86c-.06-.64-.1-1.3-.1-2a24.48,24.48,0,0,1,.15-2.68,25.64,25.64,0,0,1,.46-2.67l-.3-.11q-1.72,2.32-3.69,4.5c-1.31,1.45-2.68,2.81-4.09,4.09v.7Zm8.78-25.95h26.57l-1.32-3.23H114.9Zm1.92-4.44h22.73L127.12,31.22ZM128,29.4a1.9,1.9,0,0,0,0,.4.65.65,0,0,0,.16.41,1.79,1.79,0,0,1,.25.5L147,72.83a15.93,15.93,0,0,1,.91,2.67,10.45,10.45,0,0,1,.31,2.38,9.59,9.59,0,0,1-1.42,5.25,12.62,12.62,0,0,1-3,3.43l-.15.16a.22.22,0,0,1-.15,0h19.69v-.1a13.45,13.45,0,0,1-3.84-3.33,37.09,37.09,0,0,1-3.23-4.64c-.54-.88-1-1.74-1.46-2.58s-.83-1.63-1.16-2.37L131.56,23h-.4l-3.24,5.75h.21C128.06,29.06,128,29.26,128,29.4Z"></path>
  <path class="cls-1" d="M180.14,17.08H206.6l3.69-.2c1.17-.07,2.3-.11,3.38-.11q13.64,0,20.3,5t8.18,11a11.52,11.52,0,0,1,.3,1.62,12.54,12.54,0,0,1,.1,1.61q.21,9.2-6.56,12.33T216.6,51.72a20.22,20.22,0,0,1,11.16,7,60.43,60.43,0,0,1,8.63,13.43c.61,1.35,1.22,2.63,1.82,3.84s1.21,2.32,1.82,3.33a26,26,0,0,0,4.8,6.42,8.74,8.74,0,0,0,5.8,2.37,13,13,0,0,0,1.92-.15,8.83,8.83,0,0,0,2-.56l.1,1.52a26.2,26.2,0,0,1-4,1.06,33,33,0,0,1-4,.45,18.22,18.22,0,0,1-3-.25,16.8,16.8,0,0,1-2.93-.76,21.17,21.17,0,0,1-4.5-2.07,26.23,26.23,0,0,1-4.59-3.58,26.5,26.5,0,0,1-5-6.47c-1.45-2.56-2.81-5.18-4.09-7.88-.41-.87-.79-1.73-1.16-2.57s-.76-1.67-1.17-2.48A65,65,0,0,0,215,55.2c-1.82-2.59-4-3.88-6.56-3.88l-6.57-.11v29a7.34,7.34,0,0,0,.05.81,5.48,5.48,0,0,0,.15.71,5.6,5.6,0,0,0,.66,1.41,8.47,8.47,0,0,0,1.16,1.41,5,5,0,0,0,1.22,1.06,8.44,8.44,0,0,0,1.41.76c.47.14.92.25,1.36.36a5.34,5.34,0,0,0,1.16.15l3.64-.11v1.42H180.14V86.76a3,3,0,0,0,1.11,0,6.69,6.69,0,0,0,1.21-.3,10.76,10.76,0,0,0,2-.81,8.66,8.66,0,0,0,1.67-1.11,9.75,9.75,0,0,0,1.06-.8c.3-.27.59-.54.86-.81a6.37,6.37,0,0,0,.91-1.37,3.43,3.43,0,0,0,.3-1.46V24.85a3.35,3.35,0,0,0-.1-.7c-.07-.27-.14-.51-.2-.71a10.2,10.2,0,0,0-.81-1.62A8.43,8.43,0,0,0,187,20.41a6.83,6.83,0,0,0-.76-.66l-.66-.45a8.25,8.25,0,0,0-1.46-.46,8.64,8.64,0,0,0-1.67-.15l-2.32-.3Zm7.17,1.51c.2.2.39.37.55.51s.32.27.46.4a.09.09,0,0,1,.1.1c.47.34,1,.76,1.57,1.26s1.36,1.23,2.37,2.18v1.11l-1.52,1.11V81.31a3.11,3.11,0,0,1-.4,1.72,4,4,0,0,1-1.21,1.11l-3.64,2.52v.1h16.67v-.1l-3.74-3.13a.17.17,0,0,1-.15,0,.25.25,0,0,0-.15,0,6.21,6.21,0,0,1-.76-.91,2.59,2.59,0,0,1-.35-1.51V22.53l4.94-3.94v-.2H187.31Zm25.35-.3c-3.77,0-6.52.77-8.23,2.32a7.44,7.44,0,0,0-2.58,5.76V49.8h12.93q7.47.11,11-3.84t3.48-10.4a19.76,19.76,0,0,0-3.78-11.82q-3.8-5.25-12.78-5.35Zm6.26,40.3q1.41,2.52,2.63,5l1,2c.3.64.58,1.26.86,1.87q1.11,2.22,2.17,4.39c.7,1.45,1.46,2.84,2.27,4.19a33,33,0,0,0,8.08,9.09,17.57,17.57,0,0,0,10.6,3.74v-.21a21.33,21.33,0,0,1-8.58-6.26,73,73,0,0,1-5.86-8.58l-.6-1-.61-1a4.76,4.76,0,0,1-.35-.61,3.89,3.89,0,0,1-.26-.6,10.87,10.87,0,0,1-.7-1.22c-.21-.4-.44-.8-.71-1.21a103.32,103.32,0,0,0-5.76-9.44q-3-4.4-7-5.3l-.3.1C216.93,55.22,218,56.9,218.92,58.59Zm10.2-31.67a22.83,22.83,0,0,1,1.52,8.34v1.51a20.23,20.23,0,0,1-1.57,6.67A13.43,13.43,0,0,1,224.58,49v.1c4.44-.53,7.62-2.12,9.54-4.74a16.23,16.23,0,0,0,3.08-9.19,13.86,13.86,0,0,0-3.89-9.65,17.65,17.65,0,0,0-9.94-5.71h-.21A16.4,16.4,0,0,1,229.12,26.92Z"></path>
  <path class="cls-1" d="M259.62,17.08h25.15a25.73,25.73,0,0,0,3.64,0c1.14-.1,2.29-.19,3.43-.26a5.51,5.51,0,0,0,.81-.05,7.34,7.34,0,0,1,.81,0,22,22,0,0,1,2.47-.25c.84,0,1.7-.05,2.58-.05H300q12.12.3,17.68,6.77a22.44,22.44,0,0,1,5.65,14.74v.41a21,21,0,0,1-6.11,14.79q-6.11,6.53-19.54,6.72a35.19,35.19,0,0,1-4.6-.3c-1.51-.21-3-.47-4.49-.81-1.21-.34-2.43-.71-3.64-1.11s-2.42-.88-3.63-1.42V79.09a15.72,15.72,0,0,0,.15,2.37,5.59,5.59,0,0,0,.66,1.87,5.24,5.24,0,0,0,.45.76,6,6,0,0,0,.66.76A6.84,6.84,0,0,0,284.77,86a6.17,6.17,0,0,0,1.72.65,7.73,7.73,0,0,0,.81.16,7,7,0,0,0,.8.05l2.33-.11v1.42H259.62V86.76a.31.31,0,0,0,.2.11h1A7.65,7.65,0,0,0,264,86a7.54,7.54,0,0,0,2.32-1.82,8.07,8.07,0,0,0,1.92-2.48,4.56,4.56,0,0,0,.3-1.46V23c-1.35-1.48-2.32-2.53-2.93-3.13A4.16,4.16,0,0,0,264,18.79a3.08,3.08,0,0,1-.61-.05,4.07,4.07,0,0,0-.61,0h-.6l-2.53-.3ZM267,18.79c.74.48,1.44,1,2.12,1.47s1.31,1,1.92,1.56a4.06,4.06,0,0,1,.55.46l.46.45v1.42l-2,1.11V80.5a4.22,4.22,0,0,1-.1,1c-.06.31-.13.59-.2.86a8,8,0,0,1-1.31,2.12,30.68,30.68,0,0,1-2.12,2.32h15.25v-.1a5,5,0,0,1-1-.55c-.34-.24-.67-.49-1-.76l-1-.81-1-.8a.16.16,0,0,1-.15-.11,2,2,0,0,1-.15-.3,2.66,2.66,0,0,1-.46-1.06,13.69,13.69,0,0,1-.25-1.36V22.53L282,18.79v-.2H267Zm28.07-1.21c-.94.14-1.8.24-2.57.31s-1.5.13-2.17.2-1.22.15-1.82.25l-2,.35-.66.21a1.46,1.46,0,0,0-.65.4,7.92,7.92,0,0,0-2,1.72,8.45,8.45,0,0,0-1.47,2.32,4.84,4.84,0,0,0-.3,1,4.94,4.94,0,0,0-.1,1V54.45q1.52.7,2.88,1.26c.9.37,1.8.72,2.67,1.06a29.58,29.58,0,0,0,4,1.16,24,24,0,0,0,4.95.46h.3q6.68,0,10.86-6.17a24.83,24.83,0,0,0,4.09-14.64q-.19-8.58-4.64-14.29a13.62,13.62,0,0,0-11.42-5.61Zm13.94,7a26.71,26.71,0,0,1,3,8.89c.13.74.24,1.48.3,2.22s.1,1.48.1,2.22v.81c0,.4,0,.83-.05,1.26s-.05.86-.05,1.27a26.44,26.44,0,0,1-2.52,9.09,17.73,17.73,0,0,1-6.77,7.37l.1.2q8.09-1.71,12.07-7.27a20.5,20.5,0,0,0,4.09-11.82V37.58a9.74,9.74,0,0,0-.05-1.06c0-.37-.05-.72-.05-1.06a22.28,22.28,0,0,0-5-11.26Q309.91,19,302.24,18H302A15.68,15.68,0,0,1,309,24.55Z"></path>
  <path class="cls-1" d="M391.93,17.08a9.18,9.18,0,0,0-.1,1.36v3a15.5,15.5,0,0,0,.1,1.77c.07,1.08.13,2.15.2,3.23s.17,2.09.3,3c.07,1.21.16,2.34.26,3.38s.18,1.94.25,2.68l-1.42-.1c-.13-.27-.28-.61-.45-1a8.83,8.83,0,0,0-.55-1.11A25.75,25.75,0,0,0,383.75,26a37.61,37.61,0,0,0-9.6-5.41,29.23,29.23,0,0,0-4.44-1.41,19,19,0,0,0-4.24-.51l-6.26-.1a5.84,5.84,0,0,0-2.43.61,7.46,7.46,0,0,0-1.61,1.21.29.29,0,0,0-.21.1,1,1,0,0,1-.15.15l-.15.15-1.06,1.06a3.81,3.81,0,0,0-.66.86,3,3,0,0,0-.45.91,4.3,4.3,0,0,0-.15,1.21V49.09a9.63,9.63,0,0,0,2.42.41c1,.06,2.19.1,3.54.1h1.11a8.23,8.23,0,0,0,1.21-.1h2.52a14.27,14.27,0,0,0,2.43-.46,19.49,19.49,0,0,0,2.73-1A22.06,22.06,0,0,0,375,42.83a11.32,11.32,0,0,0,3-7.67l1.31-.1V67.48H378v-.81q0-6.36-3-9.8a16.17,16.17,0,0,0-6.51-4.75,14.33,14.33,0,0,0-3-.85,16.65,16.65,0,0,0-2.73-.26l-10.4-.1V79.09a4.9,4.9,0,0,0,.2,1.41A8,8,0,0,0,356,85.3a8.37,8.37,0,0,0,5.2,1.57h.5a22.13,22.13,0,0,0,3.33-.31,41.06,41.06,0,0,0,6.06-1.71c1.15-.41,2.31-.86,3.49-1.37s2.37-1,3.58-1.56a70.3,70.3,0,0,0,12.28-7.38,26.78,26.78,0,0,0,8.23-9.19l1.31.31c-.41,1.14-.79,2.24-1.16,3.28s-.73,2.1-1.06,3.18q-1.21,3.94-2.12,8c-.61,2.69-1.15,5.39-1.62,8.08H330V86.76a4.87,4.87,0,0,0,1.56,0c.57-.11,1.13-.22,1.67-.36a13.35,13.35,0,0,0,4.6-2.57,5.91,5.91,0,0,0,2.07-4.7V25.66a6.83,6.83,0,0,0-1.27-4.39,6.72,6.72,0,0,0-2.88-2.17l-.8-.2-.81-.21a2.56,2.56,0,0,0-.61-.15,7.34,7.34,0,0,0-.81-.05h-1.41V17.08Zm-54.24,1.71L343.05,23v1.11l-1.52,1V79.8a8.16,8.16,0,0,1-.4,1.76,4.62,4.62,0,0,1-.81,1.47,1.29,1.29,0,0,0-.2.25,2,2,0,0,1-.2.25,14,14,0,0,1-1.12,1,12.34,12.34,0,0,1-1.21.91c-.4.27-.79.51-1.16.71a8,8,0,0,0-1,.6h18.28v-.1a8.52,8.52,0,0,1-1.26-.65A18.09,18.09,0,0,1,350.92,85c-.2-.2-.42-.41-.65-.61s-.46-.4-.66-.6a1.85,1.85,0,0,1-.45-.36,4.06,4.06,0,0,1-.46-.55,7.12,7.12,0,0,1-.86-1.32,4.82,4.82,0,0,1-.45-1.41V23l6.46-4.25v-.2H337.69Zm29.6,31.11a21,21,0,0,1,3.23,1.67c1,.64,2,1.3,3,2l.45.25a2.66,2.66,0,0,1,.46.35V45.46c-.48.4-.93.77-1.37,1.11s-.86.64-1.26.91c-.74.47-1.48.91-2.22,1.31s-1.52.81-2.32,1.21ZM388.7,86.76a38.17,38.17,0,0,1,1.92-4.89c.74-1.58,1.54-3.18,2.42-4.8.47-.87,1-1.75,1.46-2.63s1-1.75,1.47-2.62l-.2-.41A46.7,46.7,0,0,1,385.06,80a76.56,76.56,0,0,1-11.92,5.6c-.54.21-1.09.41-1.66.61l-1.77.6Zm-15.15-68a91.36,91.36,0,0,1,9.19,4.65,21.55,21.55,0,0,1,6.87,6.36l.2-.4-2.53-10.81H373.55Z"></path>
  <path class="cls-1" d="M408.19,17.08h26.46l3.69-.2c1.17-.07,2.3-.11,3.38-.11q13.63,0,20.3,5t8.18,11a11.52,11.52,0,0,1,.3,1.62,12.56,12.56,0,0,1,.11,1.61q.19,9.2-6.57,12.33t-19.39,3.43a20.22,20.22,0,0,1,11.16,7,60.43,60.43,0,0,1,8.63,13.43c.61,1.35,1.22,2.63,1.82,3.84s1.21,2.32,1.82,3.33a26,26,0,0,0,4.8,6.42,8.74,8.74,0,0,0,5.8,2.37,13,13,0,0,0,1.92-.15,8.83,8.83,0,0,0,2-.56l.1,1.52a26.39,26.39,0,0,1-4,1.06,33.36,33.36,0,0,1-4,.45,18.22,18.22,0,0,1-3-.25,16.8,16.8,0,0,1-2.93-.76,21.17,21.17,0,0,1-4.5-2.07,28,28,0,0,1-9.59-10c-1.45-2.56-2.81-5.18-4.09-7.88-.41-.87-.79-1.73-1.16-2.57s-.76-1.67-1.17-2.48A65,65,0,0,0,443,55.2c-1.82-2.59-4-3.88-6.56-3.88l-6.57-.11v29A7.34,7.34,0,0,0,430,81a5.48,5.48,0,0,0,.15.71,5.6,5.6,0,0,0,.66,1.41,8.47,8.47,0,0,0,1.16,1.41,5,5,0,0,0,1.22,1.06,8.44,8.44,0,0,0,1.41.76c.47.14.92.25,1.36.36a5.34,5.34,0,0,0,1.16.15l3.64-.11v1.42H408.19V86.76a3,3,0,0,0,1.11,0,6.69,6.69,0,0,0,1.21-.3,10.76,10.76,0,0,0,2-.81,8.36,8.36,0,0,0,1.67-1.11,9.75,9.75,0,0,0,1.06-.8c.3-.27.59-.54.86-.81a6.37,6.37,0,0,0,.91-1.37,3.43,3.43,0,0,0,.3-1.46V24.85a3.35,3.35,0,0,0-.1-.7c-.07-.27-.14-.51-.2-.71a10.2,10.2,0,0,0-.81-1.62,8.43,8.43,0,0,0-1.11-1.41,6.83,6.83,0,0,0-.76-.66l-.66-.45a8.25,8.25,0,0,0-1.46-.46,8.64,8.64,0,0,0-1.67-.15l-2.32-.3Zm7.17,1.51c.2.2.39.37.55.51s.32.27.46.4a.09.09,0,0,1,.1.1c.47.34,1,.76,1.57,1.26s1.36,1.23,2.37,2.18v1.11l-1.52,1.11V81.31a3.11,3.11,0,0,1-.4,1.72,4,4,0,0,1-1.21,1.11l-3.64,2.52v.1h16.67v-.1l-3.74-3.13a.17.17,0,0,1-.15,0,.25.25,0,0,0-.15,0,6.21,6.21,0,0,1-.76-.91,2.59,2.59,0,0,1-.35-1.51V22.53l4.94-3.94v-.2H415.36Zm25.35-.3q-5.65,0-8.23,2.32a7.44,7.44,0,0,0-2.58,5.76V49.8h12.93q7.47.11,11-3.84t3.48-10.4a19.76,19.76,0,0,0-3.78-11.82q-3.8-5.25-12.78-5.35ZM447,58.59q1.41,2.52,2.63,5l1,2c.3.64.58,1.26.86,1.87q1.11,2.22,2.17,4.39c.7,1.45,1.46,2.84,2.27,4.19a33,33,0,0,0,8.08,9.09,17.57,17.57,0,0,0,10.6,3.74v-.21A21.33,21.33,0,0,1,466,82.42a73,73,0,0,1-5.86-8.58l-.6-1-.61-1a4.76,4.76,0,0,1-.35-.61,3.89,3.89,0,0,1-.26-.6,10.87,10.87,0,0,1-.7-1.22c-.21-.4-.44-.8-.71-1.21a103.32,103.32,0,0,0-5.76-9.44q-3-4.4-7-5.3l-.3.1C445,55.22,446,56.9,447,58.59Zm10.2-31.67a22.83,22.83,0,0,1,1.52,8.34v1.51a20.23,20.23,0,0,1-1.57,6.67A13.43,13.43,0,0,1,452.63,49v.1c4.44-.53,7.62-2.12,9.54-4.74a16.23,16.23,0,0,0,3.08-9.19,13.86,13.86,0,0,0-3.89-9.65,17.65,17.65,0,0,0-9.94-5.71h-.21A16.4,16.4,0,0,1,457.17,26.92Z"></path>
  <path class="cls-1" d="M518.07,35.16v-.91a12.67,12.67,0,0,1,.1-1.47,13.86,13.86,0,0,1,.31-1.56q1.31-5.56,7.17-10.2a22.49,22.49,0,0,1,14.44-4.65h.81c.74,0,1.53,0,2.37.1s1.73.14,2.68.2,2.2.24,3.38.31,2.37.1,3.59.1,2.3,0,3.48-.15a21.1,21.1,0,0,0,3.38-.56c.14,1.08.26,2.17.36,3.28s.18,2.24.25,3.39c.07.54.13,1.07.2,1.61s.14,1.11.2,1.72c.14,1.62.27,3.27.41,4.95s.3,3.37.5,5l-1.41.4q-1.62-3.12-3-5.76a47.21,47.21,0,0,0-2.83-4.64,22.52,22.52,0,0,0-5.91-6.06,18.09,18.09,0,0,0-7.62-2.63h-.81a12.22,12.22,0,0,0-2.17.21,15.66,15.66,0,0,0-2.38.6,16.07,16.07,0,0,0-5.95,3.74,8.84,8.84,0,0,0-2.73,6.66,11.31,11.31,0,0,0,.55,3.39,17.56,17.56,0,0,0,1.77,3.78,3.94,3.94,0,0,0,.56.81,5,5,0,0,0,.75.71,25,25,0,0,0,6.77,4q4.54,2,11.41,4.19c.34.14.68.25,1,.35s.68.22,1,.36a30.12,30.12,0,0,1,9.69,6.41q4.44,4.29,4.44,12.37,0,10.92-7.92,17.37t-21.26,6.27c-1.62,0-3.2,0-4.75-.15s-3.06-.26-4.55-.46a35.42,35.42,0,0,1-4.64-.71c-1.55-.33-3.13-.74-4.75-1.21l-2.12-23.43,1.72-.1c.4,1.35.87,2.71,1.41,4.09s1.15,2.78,1.82,4.19A45.76,45.76,0,0,0,528,82.62a15.6,15.6,0,0,0,11.77,5.16,16.12,16.12,0,0,0,10.7-3.64,16.58,16.58,0,0,0,5.56-10,11.25,11.25,0,0,0,.25-1.77c0-.57.05-1.12.05-1.66a10.49,10.49,0,0,0-3-7.93q-3.14-3.18-10.1-5.71c-1.15-.47-2.29-.91-3.43-1.31l-3.34-1.21A51.76,51.76,0,0,1,524.13,48q-5.14-3.78-6.06-12.77ZM518,79.59v2.23a11,11,0,0,0,.2,2.17,1.62,1.62,0,0,0,.91,1.26,18.43,18.43,0,0,0,2.63.86,27.7,27.7,0,0,0,2.83.55,31.12,31.12,0,0,0,3.94.56q1.9.15,3.33.15v-.3a17.38,17.38,0,0,1-4-1.82,34.66,34.66,0,0,1-3.28-2.32,6.26,6.26,0,0,0-.71-.61,6.37,6.37,0,0,1-.71-.6c-.33-.27-.69-.59-1.06-1a12.65,12.65,0,0,1-1-1.07,16.79,16.79,0,0,1-2-2.37,10.59,10.59,0,0,1-1-1.66l-.1-.11Zm4.65-53.47a14.73,14.73,0,0,0-2.83,7.42,2,2,0,0,0-.1.66v1.51a3.44,3.44,0,0,0,.1.86,14.82,14.82,0,0,0,4.65,9.65q4.14,4,14.64,7.62l2.12.76c.67.23,1.35.45,2,.65a43.47,43.47,0,0,1,8.13,3.84,14.29,14.29,0,0,1,5.3,6.16,12.41,12.41,0,0,1,.91,2.78,15.32,15.32,0,0,1,.31,3.08,16.06,16.06,0,0,1-.16,2.27,21.11,21.11,0,0,1-.45,2.38,22.58,22.58,0,0,1-1.67,4A21.56,21.56,0,0,1,553,83.63l.2.21a18.24,18.24,0,0,0,5.5-6.21,21.85,21.85,0,0,0,2.68-8c0-.41,0-.79.05-1.17s0-.72,0-1.06V66.26a17.71,17.71,0,0,0-4.19-10.45q-3.79-4.48-15.91-8.23c-.94-.34-2-.69-3.13-1.06s-2.32-.79-3.53-1.26a36,36,0,0,1-6-3.24,10.71,10.71,0,0,1-4.09-4.74,18.67,18.67,0,0,1-.66-2.22,10.47,10.47,0,0,1-.25-2.33,12.78,12.78,0,0,1,.15-2,15.37,15.37,0,0,1,.45-2,17.62,17.62,0,0,1,5.26-8.38v-.3A19.94,19.94,0,0,0,522.62,26.12Zm28.78-5.36a25.78,25.78,0,0,1,4.65,5.51c.2.27.38.54.55.81s.36.54.56.8l.3-.4-2.12-9.09h-2.73a2.24,2.24,0,0,1-1,0l-1.61-.2h-.1a9,9,0,0,1-1.32-.1,6,6,0,0,0-1-.1h-.3A18.22,18.22,0,0,1,551.4,20.76Z"></path>
  <path class="cls-1" d="M574.43,17.08h71.51c-.07,1.21-.14,2.49-.21,3.83s-.1,2.7-.1,4.05c0,.6,0,1.24,0,1.91s.05,1.32.05,1.92a38.33,38.33,0,0,0,.41,3.94,34.42,34.42,0,0,0,.8,3.74l-1.81.3a13.69,13.69,0,0,0-.76-1.46,18.09,18.09,0,0,0-1.06-1.57,34.6,34.6,0,0,0-6-6.76,45.7,45.7,0,0,0-7.47-5.46,25,25,0,0,0-2.63-1.41,24.51,24.51,0,0,0-2.52-1,7.8,7.8,0,0,0-1.22-.31,7.61,7.61,0,0,0-1.11-.1,5.85,5.85,0,0,0-4.24,1.67A7,7,0,0,0,616,24.05a3.25,3.25,0,0,0-.15.65,4,4,0,0,0,0,.66V78.69a7.34,7.34,0,0,0,2.52,5.7c1.68,1.52,4.31,2.34,7.88,2.48v1.31H592.61V86.76a15.52,15.52,0,0,0,7.62-1.86,6.44,6.44,0,0,0,3.39-6.11v-54a4.05,4.05,0,0,0-1-2.67,8.12,8.12,0,0,0-2.17-1.87,7.85,7.85,0,0,0-1.77-.91l-1.16-.4a1,1,0,0,0-.46-.11h-.55a9.79,9.79,0,0,0-4.65,1.47,33.76,33.76,0,0,0-5.35,3.79c-1,.87-2,1.78-3,2.72s-2,1.92-2.93,2.93c-1.15,1.15-2.19,2.27-3.13,3.39s-1.79,2.13-2.53,3.08L573.32,36a50.75,50.75,0,0,0,.76-5.7q.24-3.18.35-6.32V17.08Zm1.92,13.43h.1c.54-.87,1-1.7,1.51-2.47s.95-1.5,1.42-2.18,1.07-1.31,1.61-1.92,1.11-1.21,1.72-1.81,1.09-1.08,1.67-1.62,1.19-1.14,1.86-1.82v-.3h-9.89Zm25-11.92c.26.27.52.51.75.71a4.08,4.08,0,0,1,.66.71c.47.4,1,.8,1.46,1.21s1.06.87,1.67,1.41v1.11l-.91.71V79.59a5.52,5.52,0,0,1-.55,2.58A14,14,0,0,1,603.31,84l-.4.4-.4.41-.21.2a1.11,1.11,0,0,1-.3.2,4.13,4.13,0,0,1-1,.71,13.16,13.16,0,0,0-1.26.8h17.37v-.1a19,19,0,0,1-1.87-1.26l-1.66-1.26a5,5,0,0,1-.56-.35,3.17,3.17,0,0,1-.66-.66,5.29,5.29,0,0,1-1.06-1.26,3.22,3.22,0,0,1-.45-1.67V23.34l5.05-4.75v-.2H601.4ZM636,23.49a76.44,76.44,0,0,1,6.76,6l.31-.2c-.27-.74-.56-1.62-.86-2.63a30.51,30.51,0,0,1-.76-3q-.3-1.41-.45-2.73a21.33,21.33,0,0,1-.15-2.42l-12.43-.1v.2A50.36,50.36,0,0,1,636,23.49Z"></path>
  <path class="cls-1" d="M691.18,16.27a36.18,36.18,0,0,1,26.16,10.81,34.94,34.94,0,0,1,10.8,25.75,34.33,34.33,0,0,1-10.8,25.5,37.74,37.74,0,0,1-52.37,0,34.24,34.24,0,0,1-10.86-25.5A34.85,34.85,0,0,1,665,27.08a36,36,0,0,1,26.21-10.71Zm-16.77,5.45h-.1A32.12,32.12,0,0,0,662.5,32a38.72,38.72,0,0,0-6.16,13.59,32.26,32.26,0,0,0-.61,3.69,32.79,32.79,0,0,0-.2,3.68,28.42,28.42,0,0,0,.25,3.74,34.94,34.94,0,0,0,.76,3.94A39.65,39.65,0,0,0,663,74.09a29.13,29.13,0,0,0,11.31,9.54l.1-.1a36.19,36.19,0,0,1-9.64-14,45.24,45.24,0,0,1-3-16.92A50.83,50.83,0,0,1,665,35.71a36,36,0,0,1,9.44-13.89Zm16.87-4.14q-13.34.3-18.58,9.29t-5.46,26q-.09,14.34,5.36,24.69t18.68,10.26q13.83-.21,18.84-10.41t5.1-24.74q.19-15-5.41-25.05t-18.53-9.9ZM714.46,35a88.74,88.74,0,0,1,2.17,18c0,2.16-.1,4.73-.3,7.73A40.93,40.93,0,0,1,714.51,70a38.56,38.56,0,0,1-3.08,7.37,26.23,26.23,0,0,1-5.2,6.67h.3a30.43,30.43,0,0,0,10.76-10.1,40.22,40.22,0,0,0,5.65-16.51c.17-1.52.29-3,.35-4.5V51.42a34.25,34.25,0,0,0-.2-3.74,36.43,36.43,0,0,0-.6-3.84,38.91,38.91,0,0,0-5.86-13.78,24.74,24.74,0,0,0-11-9.35h-.2A25,25,0,0,1,714.46,35Z"></path>
  <path class="cls-1" d="M756.22,17.18,807.83,72V32.93a7.72,7.72,0,0,0-.86-2.67,24.18,24.18,0,0,0-2.37-4,26.62,26.62,0,0,0-3.79-4.34,11.77,11.77,0,0,0-4.39-2.73l-.76-.2a2.68,2.68,0,0,0-.76-.1l-3.63-.31V17.18h30v1.41A8.18,8.18,0,0,0,816.62,20a16.92,16.92,0,0,0-3.13,3,2.31,2.31,0,0,0-.26.3,3.26,3.26,0,0,1-.25.3,16.88,16.88,0,0,0-1.51,2.27,19.5,19.5,0,0,0-1.22,2.58,11.67,11.67,0,0,0-.75,2.17,8.48,8.48,0,0,0-.26,2V89.69h-1.81L748.24,26.47V70.61a11.14,11.14,0,0,0,.61,3.33,31.67,31.67,0,0,0,1.61,4,27.53,27.53,0,0,0,4.3,6.11,7.4,7.4,0,0,0,5.4,2.78l4.14-.11v1.42H734.71V86.76a9.4,9.4,0,0,0,7.42-3.38,18.23,18.23,0,0,0,4.29-7.62c.14-.61.26-1.22.36-1.82a11.17,11.17,0,0,0,.15-1.82V25.66c0-.27-.37-.77-1.11-1.51a32.43,32.43,0,0,0-2.63-2.33,5.07,5.07,0,0,0-.66-.55l-.75-.56A7.66,7.66,0,0,0,740,19.5a8.65,8.65,0,0,0-1.67-.6c-.47-.07-.92-.12-1.36-.16s-.92,0-1.46,0l-.81-.1V17.18Zm-5.05,69.58c-.13-.2-.29-.45-.45-.75s-.32-.59-.46-.86c-.54-1.08-1-2.15-1.46-3.23a38.56,38.56,0,0,1-1.27-3.74l-.2-.1a6.32,6.32,0,0,1-.2.71,3.69,3.69,0,0,1-.2.5,15,15,0,0,1-2.63,4.19,16.32,16.32,0,0,1-3.84,3.28ZM749.45,26l58.38,62.12V79.59L753.9,21.72c-.41-.4-.78-.79-1.11-1.16a9.86,9.86,0,0,0-1-1,4.62,4.62,0,0,0-1.12-.65,3.33,3.33,0,0,0-1.31-.26l-7.77-.1v.2a4.3,4.3,0,0,0,.8.66c.27.17.54.32.81.46l1,.75a10.38,10.38,0,0,1,.86.76c.61.54,1.26,1.18,2,1.92s1.53,1.65,2.47,2.73Zm54.54-3a21.35,21.35,0,0,1,3.74,5.85l.1-.1a18.74,18.74,0,0,1,1.31-5.15,26.45,26.45,0,0,1,2.13-4.14,3.11,3.11,0,0,0,.2-.25,1,1,0,0,1,.2-.25v-.31H799.25v.2A27.34,27.34,0,0,1,804,22.94Z"></path>
  <path class="cls-1" d="M888.32,17.08a10.76,10.76,0,0,0-.1,1.36v3c0,.57,0,1.16.1,1.77l.21,3.23q.09,1.62.3,3c.06,1.21.15,2.34.25,3.38s.18,1.94.25,2.68l-1.41-.1c-.13-.27-.29-.61-.45-1a8.84,8.84,0,0,0-.56-1.11A25.61,25.61,0,0,0,880.14,26a37.56,37.56,0,0,0-9.59-5.41,29.59,29.59,0,0,0-4.44-1.41,19.07,19.07,0,0,0-4.25-.51l-6.26-.1a5.75,5.75,0,0,0-2.42.61,7.29,7.29,0,0,0-1.62,1.21.28.28,0,0,0-.2.1l-.15.15-.15.15L850,21.87a3.46,3.46,0,0,0-.65.86,3.25,3.25,0,0,0-.46.91,4.3,4.3,0,0,0-.15,1.21V49.09a9.81,9.81,0,0,0,2.43.41c1,.06,2.18.1,3.53.1h1.11a8.12,8.12,0,0,0,1.21-.1h2.53A14.16,14.16,0,0,0,862,49a18.63,18.63,0,0,0,2.73-1,22.1,22.1,0,0,0,6.67-5.25,11.32,11.32,0,0,0,3-7.67l1.31-.1V67.48h-1.31v-.81q0-6.36-3-9.8a16.2,16.2,0,0,0-6.52-4.75,14.33,14.33,0,0,0-3-.85,16.64,16.64,0,0,0-2.72-.26l-10.41-.1V79.09a5.28,5.28,0,0,0,.2,1.41,12.69,12.69,0,0,0,.51,1.42,9.9,9.9,0,0,0,3,3.38,8.39,8.39,0,0,0,5.2,1.57h.5a22.14,22.14,0,0,0,3.34-.31,41.06,41.06,0,0,0,6.06-1.71c1.14-.41,2.3-.86,3.48-1.37s2.38-1,3.59-1.56a69.85,69.85,0,0,0,12.27-7.38,26.78,26.78,0,0,0,8.23-9.19l1.31.31-1.16,3.28c-.37,1-.72,2.1-1.06,3.18-.81,2.63-1.51,5.29-2.12,8s-1.14,5.39-1.62,8.08h-64V86.76a4.94,4.94,0,0,0,1.57,0c.57-.11,1.13-.22,1.66-.36a13.17,13.17,0,0,0,4.6-2.57,5.88,5.88,0,0,0,2.07-4.7V25.66a6.83,6.83,0,0,0-1.26-4.39,6.72,6.72,0,0,0-2.88-2.17l-.81-.2-.81-.21a2.46,2.46,0,0,0-.6-.15,7.34,7.34,0,0,0-.81-.05h-1.41V17.08Zm-54.23,1.71L839.44,23v1.11l-1.51,1V79.8a8.18,8.18,0,0,1-.41,1.76,4.81,4.81,0,0,1-.8,1.47,1.84,1.84,0,0,0-.21.25,1.36,1.36,0,0,1-.2.25c-.34.34-.71.68-1.11,1s-.81.64-1.21.91-.79.51-1.16.71a8,8,0,0,0-1,.6h18.28v-.1a9.07,9.07,0,0,1-1.27-.65c-.5-.3-1-.66-1.56-1.06-.2-.2-.42-.41-.66-.61s-.45-.4-.65-.6a1.88,1.88,0,0,1-.46-.36,3.38,3.38,0,0,1-.45-.55,6.65,6.65,0,0,1-.86-1.32,4.56,4.56,0,0,1-.46-1.41V23l6.47-4.25v-.2H834.09ZM863.68,49.9a21,21,0,0,1,3.23,1.67c1,.64,2,1.3,3,2l.46.25a2.58,2.58,0,0,1,.45.35V45.46c-.47.4-.93.77-1.36,1.11s-.86.64-1.27.91c-.74.47-1.48.91-2.22,1.31s-1.51.81-2.32,1.21Zm21.41,36.86A41.35,41.35,0,0,1,887,81.87q1.11-2.37,2.43-4.8c.46-.87.95-1.75,1.46-2.63s1-1.75,1.46-2.62l-.2-.41A46.7,46.7,0,0,1,881.45,80a76.46,76.46,0,0,1-11.91,5.6c-.54.21-1.1.41-1.67.61l-1.76.6Zm-15.15-68a90.3,90.3,0,0,1,9.19,4.65A21.55,21.55,0,0,1,886,29.8l.2-.4-2.52-10.81H869.94Z"></path>
  <path class="cls-2" d="M709.5,144.22l29.09,29.1,29.09-29.1-29.09-29.09Zm29.09,14.55L724,144.22l14.55-14.54,14.55,14.54Z"></path>
  <polygon class="cls-1" points="752.93 158.97 762.45 168.49 786.71 144.22 762.45 119.96 752.93 129.48 750.52 127.06 762.45 115.13 791.54 144.22 762.45 173.31 750.52 161.39 752.93 158.97"></polygon>
  <path class="cls-2" d="M188.91,141.42l-31.76-26.15L131,147l31.75,26.16Zm-30.36-11.67,15.88,13.07L161.35,158.7l-15.87-13.08Z"></path>
  <polygon class="cls-1" points="144.26 128.63 133.87 120.08 112.06 146.56 138.54 168.37 147.1 157.99 149.73 160.16 139.01 173.18 107.25 147.02 133.41 115.27 146.43 125.99 144.26 128.63"></polygon>
  <path class="cls-2" d="M229.05,108.09h1.15l27.53,65.68h-7.27l-4.4-10.9H213.18l-4.3,10.9h-6.79Zm14.53,48.85-11.47-28.86c-1.24-3.06-2.49-7.75-2.49-7.75s-1.34,4.69-2.58,7.75l-11.47,28.86Z"></path>
  <path class="cls-2" d="M294.93,128.55c-1.82-2.2-4.5-6-4.5-6s.58,4.59.58,7.36v43.88h-6.5V108.09h1.14L324.46,154c1.82,2.2,4.5,6,4.5,6s-.48-4.59-.48-7.36V108.76h6.4v65.68h-1.14Z"></path>
  <path class="cls-2" d="M367,108.76h15.77c21.7,0,35.18,12.81,35.18,32.51s-13.39,32.5-35.18,32.5H367Zm15.29,58.79c19.21,0,28.39-10.8,28.39-26.28S401.52,115,382.31,115H373.9v52.57Z"></path>
  <path class="cls-2" d="M497.61,114.88h-20v-6.12h46.84v6.12h-20v58.89h-6.89Z"></path>
  <path class="cls-2" d="M551.16,108.76h7v65h-7Z"></path>
  <path class="cls-2" d="M590.55,108.76h6.88v58.89h30.69v6.12H590.55Z"></path>
  <path class="cls-2" d="M655.27,108.76h39.58v6.12H662.16v30.5h29.15v6H662.16v16.25h34v6.12H655.27Z"></path>
</svg>
