<svg width="210" height="70" fill="none" xmlns="http://www.w3.org/2000/svg"><g clip-path="url(#a)"><path d="M78.22 57.304h1.012c.162 0 .338-.025.498-.059.134-.026.265-.06.396-.1a3.562 3.562 0 0 0 1.913-1.39v2.767a2.39 2.39 0 0 0-.129.085c-.19.138-.33.333-.4.559-.042.133-.064.27-.062.41 0 .207.034.401.117.589.19.418.625.67 1.072.673h7.384v-.848c.253.206.532.376.829.512.28.13.57.236.87.316.265.07.532.127.804.163.098.012.192.025.29.032.097.01.194.014.291.017v.012l.907-.012h.316v-.024a4.02 4.02 0 0 0 .574-.134c.354-.11.687-.282.986-.5.263-.19.481-.414.671-.674.01.146.034.27.083.401.175.47.622.734 1.108.734h2.224c.16 0 .321-.027.469-.087l.029.087h1.527l.35-.965c.019.102.048.197.092.294.19.418.625.671 1.072.673h3.539c.216 0 .428-.058.615-.167.187.11.398.167.615.167h4.727c.168 0 .335-.012.503-.036.62-.083 1.123-.224 1.653-.523a3.04 3.04 0 0 0 .369-.243c.015.044.032.085.049.13.19.417.625.67 1.072.672h3.25a1.2 1.2 0 0 0 .605-.162c.192.111.408.165.629.162h2.224c.46 0 .89-.238 1.082-.668.085-.19.117-.394.114-.6 0-.433-.226-.812-.593-1.036a6.706 6.706 0 0 0-.406-.233l-.039-.022v-1.539l2.353 4.098h3.186v-3.684c.081.379.202.756.35 1.115.2.482.467.914.807 1.306.29.335.603.58.97.814.289.184.571.318.89.435.155.056.313.102.474.134.136.026.333.06.474.07v.005h1.227v-.012a4.22 4.22 0 0 0 .887-.163 6.057 6.057 0 0 0 1.391-.59c.153-.09.301-.195.437-.307.148-.12.277-.253.387-.408.104-.151.172-.324.196-.503l.01-.064v-2.296c.141-.11.246-.236.321-.397.085-.182.114-.367.114-.564 0-.145-.022-.291-.068-.43a1.07 1.07 0 0 0-.569-.634c.134-.202.205-.438.205-.678v-2.78c0-.113-.013-.224-.042-.331-.09-.35-.33-.637-.658-.776a1.162 1.162 0 0 0-.462-.09c-.294 0-.579.105-.805.292-.022.02-.044.036-.065.056a4.02 4.02 0 0 0-.766-.263 2.784 2.784 0 0 0-.508-.075v-.01h-.318l-.905-.007v.01a1.925 1.925 0 0 0-.26.031c-.07.013-.141.025-.211.04-.148.028-.294.07-.438.12a4.417 4.417 0 0 0-.884.421 5.235 5.235 0 0 0-.457.316 3.758 3.758 0 0 0-.513.477 5.088 5.088 0 0 0-.173.204 1.556 1.556 0 0 0-.073-.661c-.167-.482-.619-.759-1.115-.756h-2.224c-.309 0-.601.102-.824.308a1.056 1.056 0 0 0-.243.333l-.37-.641H121.098l-.109-.187v.194c-.168.02-.326.07-.47.156a1.204 1.204 0 0 0-.605-.163h-3.249c-.282 0-.557.1-.773.28a1.09 1.09 0 0 0-.341.498 2.24 2.24 0 0 0-.23-.178 3.243 3.243 0 0 0-1.075-.479 4.815 4.815 0 0 0-.418-.08 3.741 3.741 0 0 0-.522-.041H108.291c-.216 0-.427.058-.615.167a1.215 1.215 0 0 0-.614-.167h-4.149v1.723l-.253-.046-.151.394-.688-2.071h-3.93c-.258 0-.506.058-.727.182a1.22 1.22 0 0 0-.654-.182h-1.378c-.391 0-.785.202-.996.532a1.19 1.19 0 0 0-.997-.532H89.6c-.281 0-.556.1-.772.28a1.139 1.139 0 0 0-.38.631 1.698 1.698 0 0 0-.039.367c0 .12.015.236.047.35.065.248.218.467.427.615.04.027.078.051.117.075v3.804c-.031 0-.06.003-.092.005-.508.027-.948.27-1.21.71a3.83 3.83 0 0 0-.249.488c-.065.154-.129.304-.192.457a.676.676 0 0 1-.119.19.989.989 0 0 1-.124.121.268.268 0 0 1-.063.037 3.62 3.62 0 0 1-.153.041v-5.857c.03-.017.056-.037.085-.054.207-.136.36-.34.433-.576.041-.131.063-.27.06-.408 0-.202-.029-.392-.107-.576-.182-.433-.624-.695-1.081-.695h-3.539c-.282 0-.557.1-.773.28-.146.118-.25.269-.32.444a2.877 2.877 0 0 0-1.092-.566 4.659 4.659 0 0 0-1.227-.158h-5.153c-.435 0-.853.238-1.05.624-.105.207-.141.428-.141.654 0 .12.014.236.046.35.066.248.219.467.428.615.039.027.078.051.116.075v6.004a2.35 2.35 0 0 0-.128.085c-.19.138-.331.333-.401.559-.042.134-.064.27-.061.41 0 .207.034.402.116.589.19.418.625.67 1.072.673h3.54c.281 0 .556-.1.772-.28a1.14 1.14 0 0 0 .377-.612 1.517 1.517 0 0 0-.005-.732 1.124 1.124 0 0 0-.399-.595 1.632 1.632 0 0 0-.133-.092v-1.228l-.013-.002z" fill="#fff"/><path fill-rule="evenodd" clip-rule="evenodd" d="M189.586 37.646c.06.272.131.542.211.81.197.655.474 1.285.822 1.876.743 1.259 1.84 2.248 3.13 2.916.627.326 1.288.584 1.971.77a13.44 13.44 0 0 0 2.006.392 18.22 18.22 0 0 0 2.153.122c.603 0 1.208-.022 1.808-.068.703-.051 1.403-.151 2.093-.297.338-.07.673-.158 1.002-.262 1.259-.392 2.452-1.043 3.295-2.083.124-.156.231-.324.316-.501.064-.122.122-.248.175-.374.239-.552.503-1.313.7-1.925.248-.773.484-1.551.71-2.334l.022-.16v-4.509l-.678-.678h-8.077l-.678.678v4.198c0 .428-.078.865-.326 1.222a.737.737 0 0 1-.204.205.385.385 0 0 1-.092.038.692.692 0 0 1-.158.02h-.022s-.015 0-.02-.005a.482.482 0 0 1-.082-.1c-.151-.25-.255-.634-.299-.938a6.245 6.245 0 0 1-.059-.853v-10.94c0-.087.008-.352.076-.46.019-.028.104-.05.143-.058.076-.012.151-.02.226-.02.049 0 .098.006.144.015a.296.296 0 0 1 .075.032.39.39 0 0 1 .083.07.913.913 0 0 1 .119.18c.085.175.143.363.177.552.046.255.068.515.066.773v3.242l.678.679h7.894l.679-.679v-2.416c0-2.211-.596-4.285-2.088-5.928a7.778 7.778 0 0 0-1.6-1.346 8.963 8.963 0 0 0-2.027-.95 12.085 12.085 0 0 0-2.112-.482 16.435 16.435 0 0 0-2.268-.148c-1.239 0-2.386.09-3.575.345a9.881 9.881 0 0 0-.916.24c-1.121.346-2.176.888-3.031 1.704-1.172 1.119-1.869 2.677-2.248 4.232-.083.345-.156.69-.217 1.04V18.51l-.678-.678h-7.923l-.581.58-.37-.368h-17.767l-.678.678v6.076l.678.678h4.319v18.526l.678.678h7.773l.678-.678V25.48h4.319l.272-.272v18.705l.679.678h7.923l.678-.678v-6.268h.003zM79.336 26.215c0-.406-.015-.81-.046-1.215-.037-.465-.1-.929-.19-1.386a9.323 9.323 0 0 0-.386-1.4c-.19-.53-.44-1.04-.742-1.514a5.623 5.623 0 0 0-2.08-1.959 5.643 5.643 0 0 0-1.425-.527 7.047 7.047 0 0 0-1.563-.168h-12.74l-.679.678v25.13l.678.678h8.046l.678-.678V33.689h4.02c1.699 0 3.2-.51 4.382-1.658.37-.357.69-.76.955-1.203.28-.466.501-.967.662-1.487a9.028 9.028 0 0 0 .33-1.517c.068-.535.102-1.072.1-1.611v.002zm16.695 8.026c-.338-1.24-.69-2.472-1.055-3.704a153.03 153.03 0 0 1-1.774-6.46 197.62 197.62 0 0 0-.523-2.081c-.109-.43-.223-.86-.337-1.291-.112-.42-.229-.839-.355-1.254a8.115 8.115 0 0 0-.367-1.004l-.579-.396h-7.474l-.498.28a3.56 3.56 0 0 0-.47.845c-.065.165-.123.33-.177.5a12.31 12.31 0 0 0-.255.934c-.28 1.198-.561 2.4-.846 3.595a122.005 122.005 0 0 1-.843 3.206c-.326 1.169-.666 2.336-1.02 3.497l-.008.027c-.092.37-.182.739-.27 1.109l-.224.95-.396 1.706-1.242 5.457-.617 2.756-.134.651.695.851h6.67l.556-.352c.401-.77.666-1.57.87-2.412.108-.44.295-1.186.436-1.657h2.384c.037.09.068.182.1.275.116.342.22.69.318 1.04l.637 2.613.63.493h7.451l.679-.678v-1.24l-.015-.129c-.35-1.545-.697-3.091-1.045-4.637v-.01a142.803 142.803 0 0 0-.902-3.475v-.005zm46.305 3.089c.036.165.073.328.114.493.401 1.595 1.118 3.104 2.314 4.266.442.428.938.8 1.475 1.101.569.32 1.172.574 1.799.756.6.177 1.215.304 1.837.382.652.08 1.308.119 1.967.116 1.677 0 3.429-.202 4.997-.846 1.203-.493 2.248-1.237 3.04-2.277.241-.316.457-.651.642-1.004.569-1.074.921-2.3 1.133-3.493.133-.76.231-1.528.284-2.301.058-.815.088-1.631.085-2.448a41.998 41.998 0 0 0-.343-5.289 32.002 32.002 0 0 0-.238-1.623c-.09-.52-.194-1.012-.342-1.515a4.862 4.862 0 0 0-.287-.75 9.869 9.869 0 0 0-.584-1.01 8.75 8.75 0 0 0-.802-1.047c-.933-1.05-2.075-1.78-3.419-2.248-1.325-.462-2.706-.637-4.103-.637-3.444 0-7.051.863-8.651 4.241-.352.747-.6 1.517-.787 2.32-.046.198-.09.4-.129.602v-6.606l-.678-.679h-7.924l-.678.679v23.206l-.554-1.14a7.332 7.332 0 0 1-.272-1.205c-.068-.49-.102-.984-.1-1.48v-3.882c0-.505-.085-1.006-.253-1.482a5.258 5.258 0 0 0-.765-1.432l-.08-.087a32.13 32.13 0 0 1-.606-.547c.416-.304.79-.623 1.114-1.026.248-.304.461-.634.639-.987.187-.372.335-.763.442-1.164a9.04 9.04 0 0 0 .294-2.392c0-1.584-.401-3.106-1.422-4.353a6.263 6.263 0 0 0-1.317-1.203c-1.225-.846-2.567-1.298-4.02-1.295h-12.865l-.474.473-.474-.473H94.578l-.678.678v6.076l.678.678h4.319v18.526l.678.678h7.773l.678-.678V25.48h4.319l.272-.272v18.676l.678.678h8.257l.678-.678V33.871h.192c.122.044.28.107.399.175.073.185.095.452.092.659v5.853c0 .396.029.794.095 1.186.078.476.219.94.423 1.378.211.457.532.843.953 1.116.452.291.977.418 1.509.418h6.05c.498 0 .979-.149 1.317-.54l.479.479h7.923l.679-.678V37.33h-.005zM69.73 26.738a1.73 1.73 0 0 1-.032.192c0 .01-.004.017-.004.026h-.99v-2.35h.747c.077.041.18.102.245.15.017.11.03.251.037.363.014.26.021.522.021.785v.398c0 .146-.007.295-.021.44l-.003-.004zm18.2 7.583c-.07-.425-.153-.848-.243-1.269-.083-.394-.18-.782-.287-1.169a7.426 7.426 0 0 0-.328-.96c-.024-.053-.049-.107-.078-.158a.782.782 0 0 0-.094-.139c-.19.462-.404 1.459-.484 1.848a25 25 0 0 1-.33 1.388 3.902 3.902 0 0 1-.154.459h1.998zm35.289-7.89a3.78 3.78 0 0 1-.051.411 3.362 3.362 0 0 1-.513.233h-.432v-2.471h.982c.007.026.014.05.017.077.012.09.019.183.019.273v.768c0 .238-.007.474-.022.71zm29.067 11.39a.884.884 0 0 1-.131.243.25.25 0 0 1-.051.056c-.024.015-.073.01-.095.012a.046.046 0 0 1-.031-.01.619.619 0 0 1-.102-.124 1.603 1.603 0 0 1-.139-.28v-.004a3.098 3.098 0 0 1-.224-1.176v-12.79l.005-.01c.037-.08.083-.155.134-.226.007-.01.015-.02.019-.029.117.002.231.02.343.049a.52.52 0 0 1 .1.041c.063.037.126.15.153.221.036.11.053.221.051.336v13.492c0 .068-.01.133-.032.197v.002zM150.267 57.425a3.331 3.331 0 0 0 .636-.732c.384-.592.586-1.331.389-2.026-.18-.64-.675-1.152-1.363-1.213a2.94 2.94 0 0 0 .112-.807c0-.37-.069-.717-.222-1.047a2.528 2.528 0 0 0-.532-.771 2.382 2.382 0 0 0-1.189-.637v-.036c-.437 0-.84 0-1.273-.005v.005c-.457.007-.892.08-1.315.233-.425.153-.8.362-1.14.649a3.167 3.167 0 0 0-.79 1.001 2.785 2.785 0 0 0-.301 1.264c0 .401.075.783.214 1.162a4.449 4.449 0 0 0-.448.255c-.209.139-.408.29-.598.452a3.817 3.817 0 0 0-1.071 1.515c-.282.731-.251 1.485 0 2.209a3.24 3.24 0 0 0 1.178 1.565c.195.139.401.258.618.355.255.117.522.202.797.25a5.36 5.36 0 0 0 1.867-.02 3.73 3.73 0 0 0 .867-.298c.085-.039.17-.082.253-.131.231.148.501.224.775.221h2.538c.163 0 .323-.01.484-.039.102-.02.204-.046.299-.085.289-.117.512-.35.624-.64.063-.164.088-.33.09-.507 0-.392-.17-.751-.486-.972a2.13 2.13 0 0 0-.42-.229c-.044-.02-.088-.039-.129-.06l-.467-.883.003.002zM200.905 50.202h-20.701v1.193a4.326 4.326 0 0 0-.909-.746 4.419 4.419 0 0 0-.89-.435 3.56 3.56 0 0 0-.984-.204h-1.188a2.46 2.46 0 0 0-.297.034 5.813 5.813 0 0 0-.211.039c-.149.029-.295.07-.438.121a4.425 4.425 0 0 0-.885.42 5.368 5.368 0 0 0-.457.317 3.879 3.879 0 0 0-.513.476 4.8 4.8 0 0 0-.741 1.113 4.673 4.673 0 0 0-.695-1.06 4.19 4.19 0 0 0-.97-.814 4.437 4.437 0 0 0-.889-.435 3.587 3.587 0 0 0-.985-.204h-1.188a2.46 2.46 0 0 0-.297.034c-.07.012-.141.024-.211.039a3.11 3.11 0 0 0-.438.121 4.391 4.391 0 0 0-.884.421 5.213 5.213 0 0 0-.457.316 3.758 3.758 0 0 0-.513.476 4.745 4.745 0 0 0-.783 1.199 2.93 2.93 0 0 0-.097-.382 2.858 2.858 0 0 0-1.077-1.43 3.24 3.24 0 0 0-1.074-.478 4.928 4.928 0 0 0-.418-.08 3.767 3.767 0 0 0-.523-.041H156.178c-.282 0-.557.1-.773.279a1.133 1.133 0 0 0-.377.632 1.743 1.743 0 0 0-.039.367c0 .12.015.236.047.35a1.1 1.1 0 0 0 .427.615c.039.027.078.05.117.075v6.004a2.565 2.565 0 0 0-.129.085c-.189.138-.33.333-.401.559-.041.134-.063.27-.061.41 0 .207.034.402.117.589.19.418.625.67 1.072.673h3.539c.357 0 .714-.163.936-.447.418.333.943.53 1.468.6.206.027.415.041.624.041.17 0 .341-.012.506-.038.367-.059.695-.19 1.006-.387.382-.24.703-.58.897-.992.28.314.583.552.936.776.289.184.571.318.889.435a3.602 3.602 0 0 0 .985.204h1.188c.105-.007.209-.02.311-.039h-.004l.192-.034c.148-.029.294-.068.437-.119.318-.112.608-.245.89-.423a5.39 5.39 0 0 0 .457-.316 3.81 3.81 0 0 0 .512-.476c.299-.336.547-.707.742-1.111.187.389.415.736.695 1.06.289.335.603.58.97.814.289.185.571.318.889.435a3.588 3.588 0 0 0 .985.204h1.188c.105-.007.209-.02.311-.039h-.005l.192-.034c.149-.029.295-.068.438-.119.318-.112.608-.245.89-.423.158-.097.308-.201.456-.316.185-.143.358-.301.513-.476.345-.384.62-.817.822-1.288.25-.584.408-1.164.476-1.787.039-.343.059-.688.056-1.033a7.62 7.62 0 0 0-.012-.476c.185-.01.365-.054.532-.129.117-.051.224-.122.316-.209v3.816a3.019 3.019 0 0 0-.129.085c-.189.139-.33.333-.401.56-.041.133-.063.269-.06.41 0 .206.034.4.116.588.195.43.635.676 1.092.673h3.526a1.24 1.24 0 0 0 .751-.262c.316-.246.448-.615.445-1.006 0-.12-.014-.239-.046-.353a1.12 1.12 0 0 0-.399-.595c-.046-.037-.097-.068-.145-.1v-3.816c.092.087.201.158.318.21a1.531 1.531 0 0 0 1.23-.003l.063-.03v3.637a2.563 2.563 0 0 0-.129.085c-.189.138-.33.333-.401.559-.041.133-.063.27-.061.41 0 .207.034.401.117.589.19.418.625.67 1.072.673h10.923c.357 0 .714-.163.936-.447.418.333.943.53 1.468.6.206.027.415.041.624.041.17 0 .341-.012.506-.039.367-.058.695-.19 1.006-.386.404-.255.739-.62.929-1.062.043-.102.08-.21.109-.316a1.7 1.7 0 0 0 .032-.792c-.098-.46-.426-.825-.885-.929a3.51 3.51 0 0 0-.122-.933 2.323 2.323 0 0 0-.649-1.094c.321-.33.545-.756.654-1.203.078-.314.117-.637.117-.963 0-.367-.044-.734-.158-1.084a2.858 2.858 0 0 0-1.077-1.43 3.24 3.24 0 0 0-1.074-.478 4.889 4.889 0 0 0-.418-.08 3.767 3.767 0 0 0-.523-.041h-.865.012z" fill="#fff"/><path fill-rule="evenodd" clip-rule="evenodd" d="M26.5 8.532c-.432.059-.862.134-1.288.229-.503.112-1.001.243-1.494.394-.482.148-.96.306-1.434.474-.51.182-1.024.367-1.532.554l-.024.01c-.267.111-.535.218-.805.323-.233.09-.469.18-.702.272-.282.112-.561.228-.836.355-.304.138-.6.291-.89.46a2.23 2.23 0 0 1-.352.118c-.221.056-.42.178-.574.348l-.102.05c-.087.04-.172.084-.26.127-.627.328-1.244.676-1.852 1.04-.326.197-.644.402-.957.613-.336.226-.664.467-.98.717-.309.194-.608.401-.9.62-.33.248-.65.505-.964.775-.338.287-.669.581-1 .878-.267.24-.536.479-.806.717-.112.08-.216.167-.314.265a3.366 3.366 0 0 0-.284.333 3.147 3.147 0 0 1-.192.238c-.333.316-.651.649-.955.991a23 23 0 0 0-.958 1.155 38 38 0 0 0-.88 1.179c-.313.437-.624.877-.933 1.317l-.024.039-.338.574c-.175.294-.348.59-.516.887a20.2 20.2 0 0 0-.432.819c-.146.296-.28.598-.399.907-.131.255-.25.517-.362.78-.255.6-.47 1.208-.673 1.828l-.323.979c-.234.712-.39 1.475-.533 2.21l-.16.794c-.07.345-.134.69-.19 1.036-.056.34-.097.68-.124 1.023a2.113 2.113 0 0 0-.112.693v.26c.003.087 0 .121-.004.211-.03.593-.044 1.189-.042 1.784.003.664.022 1.33.054 1.993l.01.088c.033.167.06.338.08.51.02.2.036.399.048.598.027.425.073 1.06.175 1.531l.01.04c.173.626.277 1.27.314 1.92l.017.106c.05.202.094.404.133.608.042.221.083.442.12.663.046.277.097.552.15.827.058.296.129.593.211.884.017.122.044.239.08.355.04.127.083.25.132.372.022.056.087.219.09.265.012.173.046.343.097.508.044.141.1.277.16.41.03.064.056.13.083.195a.074.074 0 0 1 0 .051l.06.226c.084.19.171.38.259.57.072.152.143.305.211.459.126.281.245.576.32.877.054.209.164.399.32.547.021.041.04.082.058.124.124.306.192.464.352.712.156.245.301.498.438.753.1.183.201.365.306.545.119.209.25.41.389.605.048.078.102.156.155.231.017.024.034.046.049.07.046.326.226.618.5.803.059.038.115.085.168.133.073.07.144.146.207.224.082.102.165.206.243.311.114.156.233.306.352.457l.74.826c.274.309.56.608.862.89.207.228.423.447.651.654.253.228.513.447.78.656.234.182.467.365.705.542.292.219.581.442.866.673l.024.02a28.808 28.808 0 0 0 2.35 1.529c.885.515 1.792.986 2.718 1.417-.04.075-.078.15-.117.226-.08.158-.155.318-.223.48a3.99 3.99 0 0 0-.19.577 3.01 3.01 0 0 0-.088.722c-.017.37.044.741.178 1.086a2.954 2.954 0 0 0 1.619 1.663c.442.184.928.243 1.402.167l.022-.004a2.878 2.878 0 0 0 1.176-.518c.355-.258.652-.586.878-.963.22-.35.425-.712.612-1.081l.139-.275c1.971.569 3.881 1.055 5.889 1.434.853.16 1.711.294 2.574.399.165.05.335.087.508.111.194.027.389.047.586.056.136.008.272.017.406.03.119.01.235.034.347.07l.144.022c.192.005.384.017.576.034.204.02.408.041.61.063.265.032.53.058.794.08.295.025.589.034.883.03.576.065 1.157.116 1.735.153l.776.048c.388.022.777.049 1.169.076h.036c1.458.014 2.92.022 4.377.024.769 0 1.534-.005 2.302-.015.86-.012 1.721-.031 2.581-.063l.069-.007c.075-.012.148-.02.223-.027.097-.007.192-.012.29-.017a5.72 5.72 0 0 0 .541-.046c.2-.024.394-.07.584-.136.17-.01.343-.015.513-.022.153-.007.306-.017.457-.034.162-.017.325-.046.486-.088.223-.019.447-.034.673-.04.206-.008.413-.02.617-.037.217-.017.43-.047.642-.085.328 0 .654-.01.982-.027a37.08 37.08 0 0 0 1.164-.085c.328-.03.656-.056.987-.083.35-.027.7-.046 1.05-.053.175-.008.35-.027.522-.059.093-.017.144-.024.229-.024.654.007 1.738-.032 2.508-.068a52.235 52.235 0 0 1 1.631-.049c.581-.007 1.165.013 1.743.059h.032c.226.007.45.022.675.043.21.02.503.04.703.042.114.075.235.136.367.18.116.04.233.075.354.1a.24.24 0 0 1 .071.024l.09.031c.078.02.156.046.23.075.395.156.75.239 1.168.224l.682-.432c.107-.414.236-.82.39-1.218l.033-.132c.02-.177.059-.352.112-.525.117-.367.29-.787.43-1.15.078-.198.149-.4.212-.604.32-.727.637-1.456.948-2.185.345-.812.678-1.626.999-2.448.082-.15.155-.309.216-.47a7.88 7.88 0 0 0 .182-.524c.044-.139.09-.277.141-.413a1.48 1.48 0 0 1 .202-.377l.095-.28c.007-.13.024-.262.05-.393.028-.127.057-.253.088-.377.073-.272.139-.547.197-.824.032-.153.056-.306.076-.462.024-.194.034-.389.031-.586a3.05 3.05 0 0 0-.087-.663 2.539 2.539 0 0 0-.394-.85l-.112-.122a6.389 6.389 0 0 0-1.091-.722 8.304 8.304 0 0 0-1.184-.498c-.43-.141-.865-.268-1.305-.377-.35-.09-.7-.182-1.05-.282l-.083-.017c-.573-.073-1.144-.146-1.718-.216a33.88 33.88 0 0 0-1.925-.185h-.02a36.289 36.289 0 0 1-1.03-.056 31.636 31.636 0 0 0-1.913-.09c0-.041 0-.083.002-.126a25.1 25.1 0 0 0 .01-.742c0-.296-.02-.59-.06-.884a7.358 7.358 0 0 0-.336-1.82 6.554 6.554 0 0 0-.975-1.897 7.266 7.266 0 0 0-1.013-1.137 11.396 11.396 0 0 0-.581-.498c-.216-.173-.438-.34-.664-.504a4.448 4.448 0 0 0-.49-.282c-.074-.036-.146-.075-.22-.114a1.136 1.136 0 0 1-.114-.073c-.007-.005-.012-.012-.019-.02-.253-.415-.505-.833-.753-1.25a64.625 64.625 0 0 0-1.24-2.026 24.184 24.184 0 0 0-1.206-1.728c-.23-.301-.471-.593-.721-.877-.28-.319-.574-.62-.883-.91-.476-.468-.982-.903-1.516-1.304a12.736 12.736 0 0 0-1.903-1.191c-.044-.093-.161-.37-.205-.467a3.597 3.597 0 0 0-.153-.306 9.311 9.311 0 0 0-2.661-3.27 9.121 9.121 0 0 0-2.766-1.467c.423-.841.967-1.848 1.448-2.718.26-.469.516-.938.773-1.407.28-.515.554-1.033.82-1.556.313-.522.612-1.052.899-1.592l.073-.136c.291.214.644.36.998.433.282.058.57.075.856.053l.039-.005a1.28 1.28 0 0 1 .192-.014c.238 0 .496-.027.727-.095.228-.066.442-.182.622-.34l.146-.16c.357-.64.72-1.274 1.081-1.911.307-.537.613-1.074.917-1.611.092-.127.172-.26.238-.401.267-.13.498-.321.673-.562.156-.211.275-.447.353-.695l.031-.1c.277-.25.428-.508.593-.838.08-.049.163-.093.246-.136a6.52 6.52 0 0 0 .493-.275c.25-.15.474-.34.666-.559.401-.462.71-.992.916-1.568a4.56 4.56 0 0 0 .246-2.01 5.897 5.897 0 0 0-.066-.505 2.293 2.293 0 0 1-.02-.127c.096-.182.193-.362.295-.54.185-.323.37-.646.552-.97.199-.352.379-.711.544-1.08a6.58 6.58 0 0 0 .438-1.376c.065-.268.107-.542.119-.82a4.59 4.59 0 0 0-.047-.913 5.006 5.006 0 0 0-.644-1.82l-.024-.037c-.37-.533-.85-.98-1.412-1.306a4.79 4.79 0 0 0-1.979-.63h-.034a12.853 12.853 0 0 0-1.103.006 7.226 7.226 0 0 0-.967.107 1.565 1.565 0 0 0-1.279.27c-.2.148-.362.33-.5.537-.069.102-.137.204-.205.308-.384.562-.498 1.191-.342 1.874l-.034-.014-.87.255c-.793 1.327-1.337 2.355-2.088 3.806-.095.185-.192.367-.287.552-.129-.024-.26-.046-.392-.066a50.476 50.476 0 0 0-1.7-.26 21.6 21.6 0 0 0-1.94-.172 52.7 52.7 0 0 0-6.257-.226 51.171 51.171 0 0 0-6.973.632l-.083.019a3.934 3.934 0 0 1-.442.114c-.177.037-.355.068-.535.097-.498.078-.897.149-1.354.29l.03-.008z" fill="#fff"/><path fill-rule="evenodd" clip-rule="evenodd" d="M26.624 9.857c-.02.192-.036.387-.048.579-.324.384-.7.624-1.096.945-.292.132-.572.25-.812.472-.618.095-1.174.574-1.692.904-.51.603-1.154.982-1.55 1.68-.428.36-.752.875-1.056 1.344-.248.576-.41 1.161-.875 1.616l-.085-.097c-.493.022-.916.525-1.46.552-.134.216-.343.291-.555.41-1.83 1.033-3.56 2.13-5.191 3.456-.326.173-.423.52-.717.72-.377.102-.567.386-.85.63-.691.588-1.306 1.285-1.892 1.973-.126.328-.4.408-.6.676-1.69 2.044-3.116 4.355-4.098 6.82-.603 1.704-1.215 3.33-1.44 5.126-.181.904-.35 1.733-.293 2.661.257-1.018.78-2.661 1.24-3.63.383-.97.938-1.829 1.41-2.75.145-.306.395-.481.451-.836.294-.19.328-.49.542-.744.394-.469.766-.974 1.075-1.502.427-.282.62-.746 1.008-1.074a32.502 32.502 0 0 1 2.093-2.08c.736-.562 1.468-1.121 2.224-1.66.136-.26.445-.232.663-.433 1.021-.776 2.215-1.155 3.299-1.813.352-.05.651-.231 1.001-.268-.002 1.065-.143 2.025.143 3.077.149.282.287.566.43.85.132.392.572.643.8.961.061.146.144.272.248.38-.544.128-1.084.425-1.584.67-1.714.598-3.367 1.69-4.917 2.632-.312.273-.756.443-.98.79-.401.131-.841.481-1.12.797-.9.491-1.495 1.35-2.283 1.906-1.098 1.07-2.263 2.163-3.228 3.352-.352.442-.83.816-1.09 1.32-.205.342-.548.563-.742.918-.131.496.223.829.479 1.2.248.297.415.652.76.847.331.756 1.13 1.395 1.695 1.998.332.282.62.736 1.03.894.112.158.221.306.384.418a53.3 53.3 0 0 0 1.85 1.364c.393.119.92.746 1.344.685.214.287.522.35.821.525.467.21.851.491 1.371.571 1.206.751 2.467 1.082 3.79 1.532.51.248 1.054.328 1.591.486.786.114 1.488.428 2.283.486.287.267.768.24 1.14.316.532-.01.97.277 1.49.226.177.007.357.041.532.107-.034.42-.401.824-.571 1.21-.474 1.036-1.145 1.976-1.583 3.021-.177-.272-.83-.328-1.14-.4-1.329-.428-2.94-.827-4.175-1.41-.822-.333-1.636-.72-2.445-1.06a36.23 36.23 0 0 1-5.93-3.889c-.465-.068-.305-.408-.689-.557-.165-.272-.36-.495-.649-.636-.31-.477-.894-.754-1.169-1.25a8.915 8.915 0 0 0-.814-.846c-.068.51.194 1.031.326 1.537.226.352.226.768.447 1.13.197.885.766 1.689 1.179 2.508.406.61.758 1.244 1.27 1.77.312.556.793.916 1.2 1.39 1.737 1.803 3.878 3.116 6.129 4.175.532.088.955.487 1.517.579.89.389 1.728.756 2.654 1.05-.063.462-.348.87-.581 1.271-.21.552-.642 1.075-.79 1.643l-.226.146c-.377.022-.77-.263-1.11-.41-1.717-.8-3.328-1.714-4.862-2.823-.97-.79-2.078-1.5-2.887-2.423-.562-.51-1.031-1.091-1.541-1.645-.401-.489-.69-.994-1.216-1.347-.012-.33-.228-.515-.386-.782-.433-.6-.722-1.277-1.125-1.894-.227-.33-.282-.78-.579-1.04-.173-.698-.532-1.356-.819-2.008-.041-.408-.323-.7-.343-1.106-.036-.406-.282-.727-.32-1.125-.29-.96-.375-1.998-.618-2.973a10.587 10.587 0 0 0-.343-2.083c-.177-.855-.116-1.723-.291-2.578a36.582 36.582 0 0 1-.012-3.615c.029-.333-.052-.673.102-.96.04-.714.165-1.392.306-2.093.202-.938.362-1.968.661-2.877.391-1.17.751-2.377 1.32-3.476.42-1.106 1.02-2.042 1.609-3.053 1.094-1.548 2.19-3.145 3.57-4.457.265-.256.384-.555.693-.751 1.167-1.016 2.309-2.142 3.629-2.96 1.115-.893 2.396-1.622 3.658-2.293.253-.133.498-.202.685-.428.204-.053.406-.121.596-.211.96-.579 2.124-.938 3.138-1.369 1.869-.678 3.607-1.353 5.59-1.599l.002.012z" fill="#FE0C01"/><path fill-rule="evenodd" clip-rule="evenodd" d="M78.186 26.271c0-2.034-.394-3.665-1.181-4.895-.91-1.41-2.273-2.115-4.089-2.115H60.65v24.17h7.088V32.588h5.18c1.472 0 2.666-.442 3.572-1.33 1.13-1.088 1.697-2.748 1.697-4.985v-.002zm-1.454-3.347c-.201.258-.483.479-.848.666-.364.187-.544.37-.544.55 0 .058.085.272.257.636.173.365.3.676.38.933-.385-.201-.752-.393-1.106-.575-.353-.183-.581-.273-.681-.273a1.76 1.76 0 0 1-.272.183c-.506.303-.858.524-1.06.665l-.09-.18c.102-.099.16-.189.183-.27.102-.26.15-.607.15-1.047 0-.119-.182-.299-.544-.54-.183-.118-.465-.298-.849-.539.343-.102.6-.16.773-.182.173-.02.358-.03.562-.03h.333c.02 0 .08-.15.182-.454.102-.304.263-.697.484-1.181.666.666.928 1.19.787 1.575.08.041.717.06 1.908.06l-.005.003zm-.182 7.117c-.16.323-.292.554-.394.697-.342.445-.726.666-1.152.666a7.146 7.146 0 0 0-.758-.666c-.727-.566-1.687-1.21-2.878-1.94h3.877c.262.283.566.555.909.817.262.202.394.343.394.423l.002.003zm-5.634-4.088v.393c0 .525-.06.929-.182 1.21-.182.404-.515.606-1 .606h-2.18v-4.664h2.18c.545.262.878.505 1 .726.121.222.182.798.182 1.726v.003zm-4.302-2.817c-.423.28-.839.549-1.242.809-.121.08-.182.18-.182.299.121.24.201.43.243.569.16.42.243.768.243 1.047-.263-.16-.516-.33-.758-.51-.365-.219-.657-.33-.878-.33-.102 0-.403.189-.909.568l-.605.18c.08-.1.131-.18.15-.24.202-.4.304-.781.304-1.138 0-.219-.13-.39-.393-.508a2.693 2.693 0 0 1-1-.749h1.153c.444 0 .697-.08.758-.243.06-.16.243-.676.545-1.546.121.141.291.627.515 1.454.06.22.746.333 2.058.333l-.002.005zm4.574 8.844h-3.543c-.324 0-.863-.398-1.622-1.195-.758-.798-1.217-1.43-1.378-1.894h2.12c.102 0 .352.192.758.576.404.384.877.759 1.424 1.12.384.183.676.334.878.455.627.365 1.079.676 1.363.938zm-4.149 5.148a477.316 477.316 0 0 1-4.241-2.817c-.506-.343-.99-.89-1.453-1.636v-3.694h.333c1.251 2.362 2.202 3.777 2.846 4.241.829.484 1.665.96 2.513 1.425v2.484l.002-.003zm0 5.695h-1.818l-1.94-2.423c-.646-.807-1.292-1.354-1.939-1.636v-2.302c.97.768 1.96 1.374 2.968 1.818.646.586 1.555 1.758 2.727 3.515v1.03l.002-.002zm29.804.484v-.698c-.343-1.514-.686-3.038-1.03-4.574a152.302 152.302 0 0 0-1.94-7.117 153.982 153.982 0 0 1-1.787-6.511c-.727-2.948-1.19-4.665-1.392-5.148h-6.816c-.182.282-.374.838-.576 1.665-.282 1.21-.566 2.413-.848 3.604a132.065 132.065 0 0 1-1.879 6.755c-.08.304-.374 1.546-.877 3.726-.708 3.108-1.12 4.927-1.242 5.452-.423 1.878-.637 2.826-.637 2.846h5.785c.243-.506.454-1.13.636-1.88.365-1.494.615-2.342.759-2.544h3.787c.22 0 .534.727.938 2.18.182.746.364 1.495.544 2.241h6.572l.003.003zM89.906 23.77c-.263.16-.515.333-.758.515-.404.304-.605.545-.605.727 0 .06.06.282.182.666.121.384.202.727.243 1.03a9.9 9.9 0 0 1-.758-.561c-.343-.272-.628-.408-.849-.408-.102 0-.318.111-.651.333-.333.22-.59.374-.773.454.121-.343.192-.566.211-.666.103-.384.151-.666.151-.848-.08-.141-.15-.263-.211-.365-.222-.303-.555-.595-1-.877.506-.141.89-.212 1.153-.212.182 0 .333.02.454.061.061 0 .112-.102.15-.304.123-.464.283-.948.485-1.453.364.627.605 1.091.726 1.393.042.102.07.201.09.303a.807.807 0 0 1 .365-.09c.14 0 .328.02.561.061.234.042.51.122.834.243v-.002zm3.12 6.997a11.704 11.704 0 0 1-.697-.272c-1.07-.483-1.908-.999-2.513-1.546h2.696c.04.061.172.31.393.742.221.435.333.722.333.863 0 .14-.07.211-.211.211v.002zm1.486 5.967c-1.716-.867-3.422-1.735-5.119-2.605-.707-.384-1.283-1.687-1.725-3.908 1.19 1.13 2.25 1.927 3.179 2.391.928.465 1.857.817 2.785 1.06.221.16.399.605.53 1.332.131.727.248 1.19.347 1.393v.333l.003.005zm-7.785-7.785c-.323 1.01-.586 1.726-.788 2.151a9.7 9.7 0 0 0-.97-1.302c-.342-.384-.566-.666-.665-.849h2.423zm1.21 5.423H85.94c.122-.282.282-.9.484-1.847.202-.948.365-1.566.484-1.847.14.16.308.58.5 1.256s.37 1.49.53 2.438zm7.178 8.147h-2.513a4.273 4.273 0 0 0-.97-1.485 9.575 9.575 0 0 0-1.454-1.181c-.08-.282-.168-.586-.257-.91a3.023 3.023 0 0 0-.348-.816h-3.21a59.626 59.626 0 0 1-1.333-.877c-.97-.708-1.696-1.393-2.18-2.059a23.345 23.345 0 0 1-.938-1.485c-.525-.89-.788-1.424-.788-1.604 0-.102.07-.394.212-.878.221-.787.374-1.322.454-1.604.202.141.83 1.014 1.88 2.62 1.05 1.605 1.574 2.56 1.574 2.864.525 0 1.444.291 2.757.877 1.594.707 3.008 1.565 4.24 2.574 1.556 1.271 2.514 2.596 2.879 3.967l-.005-.003zm-11.237-2.634a17.16 17.16 0 0 0-.243.97c-.16.665-.253 1.02-.272 1.059a16.97 16.97 0 0 1-2.09-1.424c-1.111-.868-1.665-1.534-1.665-1.998l.637-2.273c.182.122.495.48.938 1.075.442.595.736.955.877 1.074.484.445.99.838 1.514 1.181.202.141.304.253.304.333v.003zm-4.574 2.727h-.605l.15-.423c.08.041.156.085.227.136.07.05.145.146.226.287h.002zm32.56-18.234v-5.12h-16.81v5.12h4.997V43.58h6.815V24.378h4.998zm-6.15-1.364c-.102.102-.333.277-.697.53a8.13 8.13 0 0 1-.788.5c.042.183.173.484.394.91.102.201.173.525.211.97-.483-.365-.843-.61-1.074-.742-.231-.131-.398-.197-.501-.197-.08 0-.286.112-.619.333-.333.221-.62.423-.863.605.061-.303.16-.685.304-1.152.08-.262.121-.413.121-.454 0-.122-.192-.304-.576-.545-.384-.243-.646-.435-.787-.576.828-.182 1.383-.262 1.665-.243l.605-1.575c.282.365.459.642.53.834.07.192.107.38.107.561 0 .08.004.151.014.212.01.06.056.09.136.09.161 0 .768-.02 1.818-.061zm.365 9.662c-.282-.282-.554-.718-.817-1.303a20.18 20.18 0 0 0-1.271-2.392h2.09v3.694h-.002zm0 6.51c-1.191-.281-2.251-1.151-3.179-2.605l-2.059-3.633v-3.24c.586.566 1.172 1.363 1.757 2.391 1.293 2.283 2.453 3.909 3.483 4.876v2.212h-.002zm.09 3.695h-3.15c-.122-.06-.474-.214-1.06-.457-.525-.284-.899-.61-1.12-.977v-2.775c1.232 1.016 2.292 1.82 3.179 2.41a31.42 31.42 0 0 0 2.151 1.313v.489-.003zm26.291.304c-.343-.707-.685-1.414-1.03-2.12-.304-.908-.455-1.948-.455-3.12v-3.877c0-.746-.253-1.473-.758-2.18a57.615 57.615 0 0 1-1.665-1.546c1.03-.586 1.726-1.11 2.09-1.575.746-.909 1.121-2.18 1.121-3.816 0-2.04-.747-3.573-2.241-4.603-1.05-.727-2.171-1.092-3.362-1.092h-12.388v24.201h7.299V32.765h1.545c.606.202.98.404 1.121.606.221.323.333.787.333 1.392v5.846c0 .807.136 1.5.408 2.075.272.577.742.863 1.408.863h6.056c.343 0 .516-.121.516-.364l.002.002zm-2.423-19.93c-.304.201-.525.352-.666.454-.445.304-.666.506-.666.605l.394 1.515c-.161-.042-.455-.202-.878-.484-.304-.202-.525-.304-.666-.304-.06 0-.282.09-.666.272a9.116 9.116 0 0 0-.816.423c.041-.16.136-.393.286-.697.151-.304.227-.506.227-.606 0-.1-.178-.291-.53-.576-.353-.281-.642-.464-.863-.544.323-.102.615-.15.877-.15.243 0 .445.04.605.12.081 0 .192-.181.333-.544.263-.646.436-1.05.516-1.21.423.566.707 1.009.848 1.332.041.102.16.15.365.15.102 0 .282.025.544.076.263.051.515.107.758.168h-.002zm-.788 5.784c-.121.16-.342.314-.666.455-.102.041-.243.09-.422.15-.122 0-.244-.065-.365-.196a15.465 15.465 0 0 1-.365-.409h1.818zm-4.846-3.271c0 .928-.08 1.519-.243 1.772-.161.253-.596.5-1.303.741h-1.786v-4.786h2.574c.323.243.529.47.619.68.09.212.136.49.136.834v.759h.003zm-4.331-2.606-.698.394c-.445.282-.666.496-.666.637 0 .102.024.243.075.423s.137.445.258.787v.423c-.586-.423-1.009-.697-1.271-.817a.523.523 0 0 0-.243-.06c-.141 0-.394.102-.758.304a9.871 9.871 0 0 1-.759.393c.102-.22.202-.488.304-.802.102-.313.151-.52.151-.62 0-.1-.127-.252-.379-.454a6.804 6.804 0 0 0-.924-.605c.243-.08.535-.122.877-.122h.394c.263 0 .455-.09.576-.272.122-.182.253-.627.394-1.332.221.141.403.44.544.895.141.454.243.702.304.74.323 0 .656-.009.999-.028.122 0 .277.014.469.046.192.031.309.056.348.075l.005-.005zm10.147 14.358c-1.21-1.21-2.391-2.1-3.544-2.667-.889-.445-1.988-1.434-3.3-2.967-.404-.948-.797-1.899-1.181-2.847h2.058l.909 1.575c.525.89 1.111 1.604 1.758 2.151.566.343 1.13.676 1.696 1 1.069.665 1.604 1.14 1.604 1.424v2.333-.002zm-.272 5.33h-1.969a3.153 3.153 0 0 1-.848-1 37.742 37.742 0 0 0-.637-1.151c-.525-.707-.96-1.152-1.303-1.332l-.243-.122c-.06-.102-.09-.364-.09-.787v-.484l.09-1.152c1.272.666 2.302 1.534 3.09 2.606.726.97 1.363 2.11 1.908 3.422h.002zm-9.601-7.238a22.83 22.83 0 0 1-2.029-3.666c-.807-1.857-1.313-2.878-1.514-3.06h2.333c.121.183.333.605.637 1.271.384.849.576 1.403.576 1.665v3.787l-.003.003zm.09 6.21c-2.785-2.222-4.241-3.413-4.36-3.573a555.756 555.756 0 0 1-1.514-3.483v-3.909c.768 1.515 1.55 3.024 2.347 4.529.798 1.504 1.974 2.872 3.53 4.105v2.333l-.003-.002zm-3.121 1.03h-2.846V40.52c.746.505 1.337.933 1.772 1.288.435.352.792.703 1.074 1.045zm23.868.637V19.047h-6.966V43.49h6.966zm-1.12-21.02c-.061.103-.352.35-.877.742a1.269 1.269 0 0 0-.394.493l.515 1.551a2.01 2.01 0 0 1-.817-.333c-.384-.282-.646-.423-.787-.423-.182 0-.404.122-.666.365-.263.243-.515.403-.758.483.019-.303.06-.624.121-.965.061-.34.112-.578.151-.719a9.474 9.474 0 0 1-.455-.238c-.243-.139-.525-.387-.848-.744h1.121c.323 0 .534-.102.636-.304.161-.505.333-1.02.516-1.546.323.423.534.89.636 1.393.042.16.273.243.698.243h1.21l-.002.003zm.423 11.026c-1.305-.525-2.341-1.031-3.104-1.515-1.065-.685-1.888-1.494-2.469-2.423v-.909h1.776c.924.89 1.658 1.514 2.2 1.879.523.304 1.055.605 1.597.909v2.059zm0 6.421c-1.065-1.07-1.716-1.706-1.959-1.908-1.446-1.21-2.62-1.818-3.524-1.818v-2.452c1.045.544 2.087 1.091 3.133 1.635 1.565.83 2.35 1.383 2.35 1.665v2.878zm-1.454 2.878h-2.333c-.141 0-.333-.131-.576-.394a6.846 6.846 0 0 0-1.12-.97c0-.483.004-.938.014-1.363.01-.423.024-.727.046-.91 1.111.587 1.993 1.177 2.65 1.773.656.595 1.096 1.217 1.317 1.861l.002.003zm21.839-10.66a41.73 41.73 0 0 0-.333-5.148c-.221-1.777-.474-2.949-.758-3.515-.768-1.514-1.809-2.61-3.121-3.286-1.313-.676-2.897-1.014-4.754-1.014-3.432 0-5.795.9-7.088 2.696-1.171 1.636-1.757 4.543-1.757 8.723 0 2.727.09 4.664.272 5.816.343 2.161 1.091 3.797 2.241 4.908 1.393 1.353 3.483 2.03 6.271 2.03 3.393 0 5.765-.89 7.117-2.667 1.271-1.655 1.907-4.504 1.907-8.541l.003-.003zm-1.969-9.24c-.102.183-.291.366-.576.545-.505.304-.758.516-.758.637.061.16.141.353.243.576.102.221.192.535.272.938a2.085 2.085 0 0 1-.666-.333c-.343-.262-.646-.393-.909-.393a.81.81 0 0 0-.394.121c-.342.202-.675.404-.999.605.222-.646.333-1.035.333-1.166v-.226c0-.202-.16-.394-.483-.576-.484-.263-.759-.423-.817-.484.464-.102.788-.15.97-.15.182 0 .343.019.483.06.061 0 .156-.172.287-.515.132-.343.287-.707.469-1.091.243.16.435.524.576 1.09.061.244.717.365 1.969.365v-.002zm1.211 7.392c-.183-.202-.375-.496-.576-.877a3.922 3.922 0 0 1-.304-.727h.848a6.441 6.441 0 0 0-.061.637c0 .08.015.238.046.469.03.233.047.399.047.5v-.002zm-.09 4.575c-.02.243-.029.422-.029.544-.103.746-.202 1.12-.304 1.12-.666 0-2.465-2.352-5.391-7.058v-.787h1.725c.122.16.817 1.21 2.091 3.15 1.271 1.94 1.908 2.948 1.908 3.028v.003zm-10.632-11.48c-.08.041-.252.131-.515.272-.364.221-.544.423-.544.606 0 .04.051.196.15.469.102.272.192.641.273 1.105-.586-.364-.89-.554-.909-.576-.304-.16-.525-.243-.666-.243-.141 0-.338.095-.591.287-.253.192-.52.338-.802.44.061-.16.102-.282.121-.364.141-.465.212-.778.212-.939 0-.243-.221-.495-.666-.758-.304-.182-.515-.333-.637-.454 1.009 0 1.575-.061 1.697-.183.182-.505.374-1.008.576-1.514.282.364.464.676.544.938.02.08.029.243.029.484 0 .121.221.182.666.182h1.06v.243l.002.005zm4.089 14.297c0 .403-.132.782-.394 1.135-.263.352-.615.53-1.06.53-.605 0-1.06-.385-1.363-1.153a4.284 4.284 0 0 1-.304-1.604V23.775c0-.263.121-.562.364-.895.243-.333.535-.5.878-.5.646 0 1.12.172 1.424.515.304.343.455.778.455 1.303v13.48zm5.422 1.424c-.041.202-.206.52-.501.955-.291.435-.539.651-.741.651a13.726 13.726 0 0 1-1.393-.726c-.989-.627-1.645-1.313-1.968-2.059v-3.422a337.54 337.54 0 0 0 1.998 2.756 6.356 6.356 0 0 0 2.605 1.847v-.002zm-9.36-9.45-.061 2.09c-.605-.202-1.49-.646-2.649-1.332-1.162-.685-1.862-1.21-2.105-1.575l3.211-.09c.403.263.736.45.999.562.262.112.464.226.605.347v-.002zm5.513 12.629c-1.07.202-1.809.304-2.212.304-.707 0-1.473-.737-2.302-2.212a137.422 137.422 0 0 1-1.726-3.18c-.807-1.069-1.631-1.846-2.469-2.332a17.523 17.523 0 0 0-2.438-1.182c-.061-.08-.09-.248-.09-.5 0-.253-.019-.43-.061-.53v-1H144c.365.263 1.383.798 3.061 1.605 1.312.627 2.119 1.172 2.423 1.636.041.08.065.308.075.68.01.375.037.693.075.956.202 1.453.445 2.432.727 2.938.221.384.515.576.878.576.141 0 .374-.02.697-.06.161 0 .353.029.576.09l.272.272c.484.464 1.242 1.11 2.273 1.939h-.002zm-6.39-.09h-.212c-.829 0-1.735-.595-2.727-1.786-.829-.99-1.354-2.26-1.575-3.816.423 0 .899.253 1.424.758.343.343.817.909 1.425 1.697.423.525.746 1.02.97 1.485.221.464.454 1.02.697 1.664l-.002-.002zm30.894-17.809v-5.118H162.75v5.118h4.997v19.204h6.815V24.378h4.997v.004zm-6.149-1.363c-.102.102-.333.277-.697.53a8.124 8.124 0 0 1-.788.5c.041.183.173.484.394.91.102.201.172.524.211.97-.483-.365-.843-.61-1.074-.742-.233-.131-.399-.197-.501-.197-.08 0-.286.112-.619.333-.333.221-.62.423-.863.605.06-.304.16-.685.303-1.152.081-.262.122-.413.122-.454 0-.122-.192-.304-.576-.545-.384-.243-.647-.435-.788-.576.829-.182 1.383-.262 1.665-.243l.606-1.575c.282.365.459.642.529.834.071.192.107.379.107.561 0 .08.005.151.015.212.01.06.056.09.136.09.161 0 .768-.02 1.818-.061zm.365 9.661c-.282-.282-.554-.717-.817-1.302a20.18 20.18 0 0 0-1.271-2.392h2.09v3.694h-.002zm0 6.512c-1.191-.282-2.251-1.152-3.179-2.606l-2.059-3.633v-3.24c.586.566 1.171 1.363 1.757 2.391 1.293 2.283 2.453 3.909 3.483 4.876v2.212h-.002zm.09 3.694h-3.15a24.6 24.6 0 0 0-1.06-.457c-.525-.284-.899-.61-1.121-.977v-2.776c1.233 1.017 2.292 1.821 3.18 2.412a31.42 31.42 0 0 0 2.151 1.312v.489-.003zm14.568.605V19.048h-6.966V43.49h6.966v.003zm-1.12-21.019c-.061.102-.352.35-.877.741a1.269 1.269 0 0 0-.394.494l.515 1.55a2.008 2.008 0 0 1-.817-.333c-.384-.282-.646-.422-.787-.422-.182 0-.404.121-.666.364-.263.243-.515.404-.758.484.019-.304.06-.625.121-.965.061-.34.112-.579.151-.72a9.474 9.474 0 0 1-.455-.238c-.243-.138-.525-.386-.848-.744h1.121c.323 0 .534-.102.636-.303.161-.506.333-1.021.516-1.546.323.423.534.89.636 1.393.042.16.273.243.698.243h1.21l-.002.002zm.423 11.025c-1.305-.525-2.341-1.03-3.104-1.514-1.065-.686-1.889-1.495-2.469-2.424v-.909h1.776c.924.89 1.658 1.515 2.2 1.88.523.303 1.055.604 1.597.908v2.059zm0 6.422c-1.065-1.07-1.716-1.707-1.959-1.908-1.446-1.21-2.62-1.819-3.524-1.819V33.74c1.045.544 2.087 1.091 3.133 1.636 1.565.829 2.35 1.383 2.35 1.665v2.878zm-1.454 2.877h-2.333c-.141 0-.333-.13-.576-.393a6.836 6.836 0 0 0-1.12-.97c0-.484.004-.938.014-1.364.01-.423.024-.727.046-.909 1.111.586 1.993 1.177 2.65 1.772.656.596 1.096 1.218 1.317 1.862l.002.002zm22.566-6.29v-3.947h-7.117v3.714c0 .75-.177 1.38-.53 1.886-.352.508-.824.76-1.407.76-.583 0-1.05-.374-1.332-1.12-.202-.525-.304-1.171-.304-1.94V24.924c0-.444.08-.797.243-1.06.263-.422.717-.636 1.364-.636.646 0 1.13.313 1.453.938.243.484.365 1.101.365 1.847v2.757h6.937v-1.94c0-2.12-.596-3.835-1.787-5.148-1.534-1.696-3.918-2.545-7.148-2.545-3.23 0-5.352.657-6.723 1.969-1.595 1.534-2.392 4.251-2.392 8.147v5.603c0 2.887.802 5.038 2.409 6.45 1.607 1.413 3.942 2.12 7.012 2.12 3.634 0 6.067-.759 7.299-2.278.323-.384.877-1.934 1.665-4.647l-.007.005zm-1.998-12.824c-.042.08-.304.273-.788.577-.384.242-.576.464-.576.665 0 .08.061.277.183.591.121.314.233.642.332.984-.262-.08-.544-.238-.848-.469-.304-.233-.554-.347-.758-.347-.141 0-.343.102-.605.304a2.905 2.905 0 0 1-.849.454c.122-.323.207-.576.258-.758.051-.183.075-.394.075-.637a.814.814 0 0 0-.257-.59 10.58 10.58 0 0 0-.924-.774c.323-.08.605-.121.848-.121.141 0 .304.01.484.03.182 0 .323-.09.423-.273.1-.182.253-.656.455-1.425.221.244.388.581.5 1.014.112.435.197.661.258.68h.787c.141.02.314.037.516.047.201.01.364.024.483.046l.003.002zm-9.633-.068c-.019.02-.384.287-1.091.798-.202.143-.304.296-.304.459.061.204.102.367.122.49.102.41.211.788.333 1.136-.221-.107-.535-.323-.938-.644-.304-.236-.525-.355-.666-.355-.061 0-.202.07-.423.211-.484.304-.807.484-.97.545.019-.102.08-.318.182-.651s.151-.6.151-.803c0-.243-.141-.454-.423-.636-.445-.282-.727-.496-.848-.637.97 0 1.519-.046 1.65-.136.131-.09.348-.59.652-1.5h.243c.08.82.272 1.33.576 1.534.121.082.464.121 1.03.121.323 0 .566.02.727.061l-.003.007zm10.603 13.85c0 .182-.071.45-.212.802a18.8 18.8 0 0 1-.394.923c-.464-.282-.948-.848-1.453-1.696a121.216 121.216 0 0 0-1.303-2.151 9.563 9.563 0 0 0-.97-1.152c-.585-.586-.889-.9-.909-.938h2.667c.06.06.505.746 1.332 2.058.828 1.313 1.242 2.03 1.242 2.151v.003zm-10.42-6.665a6.735 6.735 0 0 1-1.393-.802c-.484-.352-.768-.58-.848-.68h2.241v1.485-.003zm7.753 10.692c-.141.141-.454.314-.938.515-.141.061-.365.141-.666.243-.262 0-.656-.444-1.181-1.332-.525-.887-.788-1.402-.788-1.545.141-.243.292-.484.455-.727.16-.323.291-.727.394-1.21.342.566.697 1.12 1.059 1.664a46.262 46.262 0 0 0 1.665 2.392zm-7.753-5.724h-.272c-.606-.304-1.605-.797-3-1.485-1.232-.727-2.202-1.655-2.907-2.785v-2.151h.698c.484.483.938 1.03 1.363 1.635.324.484.576.798.759.939.544.464 1.11.833 1.696 1.105.586.273 1.14.48 1.665.62v2.12l-.002.002zm2.727 6.815h-1.787l-1.21-1.21c-.282-.282-.741-.661-1.378-1.135-.637-.474-1.393-.834-2.273-1.074-.877-.243-1.397-.484-1.56-.727-.08-.343-.156-.698-.226-1.06a4.232 4.232 0 0 0-.287-.938v-.484c.202.042.455.156.758.348.304.192.708.46 1.211.802 1.152.544 2.382 1.101 3.694 1.665.909.566 1.928 1.757 3.06 3.573v.243l-.002-.003z" fill="red"/><path fill-rule="evenodd" clip-rule="evenodd" d="M27.383 53.32c.343-.053.717.003 1.065.037 1.465.06 2.741.097 4.178.231.554-.032 1.217.063 1.738-.005l.04-.112c.222 0 .616.141.652-.187.248.183.447.345.778.306 1.757-.031 3.53.07 5.282-.068l.065-.092c.411.23.836-.036 1.262.272.25.401.432.844.68 1.25.236.364.158.894.596 1.14.432.39.641.96 1.106 1.341.16.202.588.496.527.77-2.105.244-4.266.251-6.385.28-1.3.097-2.627.012-3.933.044-1.169-.097-2.362-.044-3.534-.165-1.11-.137-2.18-.034-3.298-.346-.992-.012-1.988-.182-2.97-.332-.083-.112-.092-.253-.027-.423.77-1.279 1.376-2.689 2.183-3.94h-.005z" fill="#FE0C01"/><path fill-rule="evenodd" clip-rule="evenodd" d="M59.213 50.173c.139.892-.039 1.886.087 2.763l.142.07c1.3-.11 2.566.064 3.862.108 1.164.075 2.367.243 3.524.391 1.444.416 2.9.632 4.105 1.597.59.897-.104 2.239-.192 3.201-.352.554-.41 1.232-.744 1.803a111.899 111.899 0 0 1-1.983 4.723c-.245.836-.695 1.614-.807 2.47-.102.274-.194.544-.277.826-.255-.037-.496-.168-.746-.233-.25-.12-.656-.083-.737-.406-.617.065-1.2-.054-1.818-.064-2.02-.167-3.893.066-5.95.056-.274-.01-.525.076-.8.083-1.426.032-2.826.265-4.258.248-.67.143-1.356.1-2.03.177-.473.139-1.01.098-1.504.144-.462.206-1.01.138-1.526.216-3.067.112-6.089.07-9.158.051-1.26-.092-2.455-.129-3.69-.28-.948.032-1.87-.174-2.815-.204-.614-.174-1.249-.058-1.85-.27-3.076-.354-6.328-1.183-9.3-2.075.152-.476.483-.89.694-1.344.409-.715.722-1.524 1.22-2.178.404.012.795.12 1.199.144.396.213.824.055 1.205.255a9.586 9.586 0 0 1 1.59.31c1.115.096 2.277.222 3.39.353.878-.017 1.704.192 2.577.17 4.513.239 9.063.258 13.574.032 2.96-.027 5.877-.202 8.835-.216.506-.124 1.012-.107 1.53-.112 1.766.01 3.536-.015 5.303.012.77.185 1.558.073 2.328.263.863.004 1.58.381 2.404.546.158.095.333.297.518.31.214-.497.398-1.032.6-1.537.321-.698.7-1.424.856-2.178.364-.467.452-1.125.58-1.694-.145-.248-.451-.253-.7-.335-.39-.051-.729-.234-1.105-.338-2.672-.513-5.498-.622-8.213-.515-.33-.017-.695.046-1.011-.054a1.777 1.777 0 0 1-.037-.53c.24-.287.124-.612.287-.945.394-.917.6-1.935.827-2.9.05-.97.031-1.944.017-2.914h-.003z" fill="#FE0C01"/><path fill-rule="evenodd" clip-rule="evenodd" d="M51.523 1.79c.695-.163 1.383-.167 2.093-.153 1 .095 1.934.593 2.513 1.424.464.78.658 1.819.428 2.698-.253 1.398-1.252 2.686-1.88 3.989.003.326.093.647.115.97.11.982-.243 1.969-.882 2.71-.384.457-1.04.586-1.449.974-.197.377-.282.69-.693.897-.107.503-.262 1.109-.899 1.072-.107.26-.16.518-.345.742-.656 1.164-1.325 2.316-1.979 3.48-.211.156-.617.095-.877.141-.612.041-1.305-.202-1.466-.858-.026-.272-.199-.287-.342-.481-.095-.29.284-.462.313-.754-.396.277-.364.669-.632 1.036-.544.965-1.033 1.942-1.609 2.89-.984 1.944-2.102 3.806-3.077 5.755-.211.409-.547.844-.67 1.276 2.651.343 4.972 2.093 6.124 4.49.253.418.348 1.084.844 1.254 1.16.59 2.226 1.395 3.152 2.306 1.923 1.784 3.276 4.387 4.64 6.6.301.432.727.52 1.14.794.734.527 1.458 1.125 1.983 1.872.686.918 1.036 2.005 1.092 3.145.014.97.034 1.944-.017 2.914-.229.965-.433 1.983-.827 2.9-.163.333-.046.66-.287.945-.017.175-.002.352.037.53-.202.032-.374.06-.467.267-.172.35-.396.669-.551 1.026-.078.182-.159.36-.39.343-1.543.024-2.98.62-4.489.736-2.09.353-4.477-.058-6.2-1.344-.192-.148-.413-.313-.67-.287.057-.272-.368-.569-.528-.77-.462-.382-.671-.95-1.106-1.342-.435-.245-.36-.775-.596-1.14-.245-.406-.427-.848-.68-1.25-.425-.31-.85-.043-1.262-.271-.087-.21-.163-.423-.252-.63-1.126-.637-2.329-1.176-3.44-1.85-2.156-1.295-4.239-2.807-6.096-4.508-.092-.093-.191-.107-.303-.042-.399.795-.783 1.583-1.245 2.343.27.448.746.808 1.092 1.206 1.24 1.274 2.632 2.37 4.122 3.332-.037.328-.433.188-.652.188-.32-.11-.559-.326-.84-.501a8.213 8.213 0 0 1-1.323-.78l-.058.026c.187.448.372.883.442 1.371-1.439-.136-2.712-.17-4.178-.23-.345-.035-.72-.093-1.065-.037-.806 1.252-1.412 2.661-2.182 3.94-.066.17-.056.31.027.423-.168-.03-.287.036-.358.197-.554 1.02-1.106 2.121-1.674 3.13-.173.357-.413.656-.535 1.038-.5.651-.812 1.46-1.22 2.178-.212.454-.542.87-.695 1.344-.377.71-.708 1.456-1.145 2.131-.267.457-.749.851-1.276.946-.977.153-1.923-.78-1.855-1.748-.02-.933.77-1.798 1.05-2.673l.226-.146c.149-.566.581-1.091.79-1.643.231-.401.516-.81.581-1.274.576-.78.955-1.779 1.466-2.615.282-.489.537-.992.821-1.478.438-1.045 1.109-1.988 1.583-3.021.17-.386.537-.79.57-1.21a1.661 1.661 0 0 0-.531-.107c-.12-.528-.423-1.029-.581-1.551-.163-.425-.265-.877-.455-1.29h-.102c-.486.765-.89 1.628-1.495 2.301-.794-.058-1.5-.372-2.282-.486-.537-.158-1.084-.236-1.592-.486-1.322-.45-2.584-.78-3.79-1.531-.52-.08-.901-.363-1.37-.572-.3-.175-.608-.238-.822-.525.849-1.973 2.04-3.855 2.966-5.794.143-.418.415-.768.576-1.174.102-.894-.112-1.774.014-2.68-.017-1.503.311-3.175 1.306-4.352.447-.653 1.098-.943 1.813-1.22 1.261-.42 2.503-.989 3.609-1.728.67-.343 1.067-1.16 1.325-1.832-.584-.107-1.18-.176-1.758-.314-.522-.112-.964-.452-1.448-.703a1.19 1.19 0 0 1-.248-.379c-.226-.316-.669-.568-.8-.96-.143-.284-.282-.569-.43-.85-.287-1.053-.146-2.013-.143-3.077a1.13 1.13 0 0 0 .277-.64c.423-1.864 1.001-3.806 1.893-5.5.467-.455.627-1.04.875-1.616.306-.472.627-.985 1.055-1.345.396-.697 1.04-1.076 1.55-1.679.518-.33 1.075-.81 1.692-.904.238-.221.52-.34.812-.472.396-.32.776-.561 1.096-.945.012-.192.03-.387.049-.579.775-.262 1.611-.274 2.382-.517 4.234-.68 8.66-.8 12.925-.387 1.182.041 2.378.226 3.542.42.396.054.846.188 1.244.132.802-1.52 1.602-3.126 2.475-4.599.381.163.797.372 1.244.53.423.29.963.477 1.446.664.253.068.465.063.552.35.277.097.382-.01.462.333h.087c.144-.35.343-.676.477-1.026-.185-.032-.457-.073-.581-.226-.671-.685-1.57-.975-2.244-1.633-.257-.428-.325-.992-.017-1.417.248-.348.44-.844.958-.576l.005.01z" fill="#011382"/><path fill-rule="evenodd" clip-rule="evenodd" d="M51.907 2.097c.61-.044 1.247-.078 1.852.029 1.152.333 2.182 1.084 2.408 2.326.01.236.195.6.035.792l-.139-.014c-.267-.29-.566-.508-.875-.747-1.035-.755-2.04-1.511-3.14-2.172-.09-.066-.139-.137-.144-.217l.003.003zM51.571 2.32c1.512.897 2.96 1.983 4.38 3.016.214.168.263.27.202.545-.343 1.218-1.111 2.336-1.655 3.476-.107.116-.197.092-.27-.068a4.03 4.03 0 0 0-.766-.987c-.131-.141-.34-.268-.352-.472.386-.795.77-1.56 1.01-2.413-.06-.533-.665-.761-1.025-1.084-.736-.506-1.502-1.029-2.323-1.383.046-.287.447-1.007.802-.63h-.003zM49.358 5.341c1.06.35 2.102 1.033 3.106 1.41.053.175-.122.394-.192.547h-.102c-.965-.613-2.047-1.164-3.15-1.478-.022-.16.114-.605.338-.481v.002zM48.832 6.102c.496-.04 1.16.35 1.612.552 1.154.566 2.362 1.273 3.223 2.243.124.17.267.34.26.561l-.144.042c-1.14-.814-2.408-1.296-3.665-1.877-.578-.25-1.19-.41-1.78-.624.069-.316.312-.63.497-.895l-.003-.002z" fill="#fff"/><path fill-rule="evenodd" clip-rule="evenodd" d="M48.19 7.222c.18-.09.416.093.6.132.652.262 1.316.466 1.94.79 1.213.525 2.392 1.035 3.447 1.852.282.291.248.821.272 1.203-.012 1.215-.87 2.253-1.974 2.685-.182.018-.372-.128-.527-.21-.997-.504-1.937-1.18-2.997-1.535-.216.005-.333.214-.438.377-.218.462-.573.916-.704 1.41-.066.29.226.425.403.593.29.243.746.384 1.004.642-.438.549-.98 1.01-1.655 1.232-.268.097-.467.272-.693.433-.569.36-.826 1.142-1.181 1.703-1.386 2.32-2.499 4.618-3.809 6.964-1.29 2.367-2.562 4.861-3.93 7.168-.093-.244-.306-.365-.416-.586.683-1.376 1.505-2.71 2.168-4.108.8-1.487 1.66-2.987 2.419-4.491 1.01-1.814 1.927-3.714 2.931-5.423a114.429 114.429 0 0 1 2.154-3.945 42.51 42.51 0 0 1 1.62-3.048c.363-.753.963-1.529 1.172-2.348.114-.306-.063-.636-.296-.829-.433-.226-1.016-.012-1.238.421-.583.897-.94 1.908-1.521 2.807-2.708 4.864-4.997 9.251-7.656 14.04-1.126 2.194-2.402 4.52-3.578 6.698-.158.323-.382.265-.68.187 1.9-3.631 3.84-7.238 5.777-10.848 1.514-2.797 2.904-5.634 4.382-8.3 1.035-1.974 2.03-3.79 3.004-5.67v.004z" fill="#fff"/><path fill-rule="evenodd" clip-rule="evenodd" d="M49.27 8.032c.377-.061.542.28.522.6-.075.47-.333.817-.576 1.206-1.12 2.143-2.297 4.234-3.434 6.363-.717 1.417-1.504 2.686-2.21 4.076-.665 1.283-1.407 2.579-2.078 3.864-.726 1.454-1.58 2.84-2.282 4.303a348.637 348.637 0 0 1-1.998 3.65c-.333.158-.884.04-1.244-.036-.102-.178.143-.384.202-.552.612-1.018 1.072-2.11 1.672-3.135a87.884 87.884 0 0 0 2.012-3.785c1.485-2.746 2.951-5.5 4.468-8.23 1.358-2.416 2.649-4.888 3.96-7.267.25-.457.417-.955.99-1.065l-.004.008zM32.61 9.672l.064-.007c-.013.41-.056.916.13 1.293.363-.012.657-.143 1.022-.053-.032.267-.596.41-.78.61-.501.306-.132.853-.334 1.28-.281.05-.522-.371-.8-.451-.415.055-.83.62-1.234.602.136-.372.479-.688.596-1.1-.068-.305-.57-.482-.613-.781.394-.08.788-.068 1.184-.11.277-.415.503-.86.768-1.28l-.003-.003zM37.275 9.65c.168.151-.046.817.127 1.055.325.122.736-.02 1.084.034-.088.387-.916.567-1.077.95-.051.36 0 .73-.046 1.09-.297-.098-.59-.52-.897-.562-.306.194-.64.5-1.004.564-.095-.348.447-.73.452-1.084-.172-.299-.517-.493-.722-.766.399-.063.907.034 1.267-.16.325-.311.452-.822.816-1.118V9.65zM41.4 10.079c.107.274.022.6.073.894.403.131.906.092 1.31-.036-.275.379-.834.63-1.196.935-.107.38-.012.832-.049 1.23-.287-.078-.585-.62-.918-.576-.312.136-.63.323-.89.547-.049.041-.316.258-.35.12.304-.322.391-.752.678-1.087.09-.326-.612-.542-.571-.87a7.197 7.197 0 0 1 1.045-.127c.328-.175.498-.987.87-1.03H41.4zM27.97 10.297c.149-.129.254-.095.314.102-.053.33-.462.175-.313-.102zM29.417 11.27c.058.034.075.102.05.201-.267.158-.522.401-.818.491-.056-.143.197-.406.248-.559.182-.022.354-.063.52-.133z" fill="#fff"/><path fill-rule="evenodd" clip-rule="evenodd" d="M27.73 11.35c.037.782-.058 1.538.117 2.338.175.532.226 1.055.564 1.521.252.496.758.895 1.28 1.065 1.102.258 2.344-.38 3.058-1.198.671-.625 1.094-1.403 1.48-2.222.168-.131.445.182.567.292.58.7 1.203 1.519 1.429 2.413.634 2.018.277 4.307-.47 6.244-.094.144.032.47-.21.409.011-.324.087-.608.196-.907.234-1.65.576-3.12.173-4.8a4.573 4.573 0 0 0-1.476-2.652c-.294.155-.542.736-.79.999-.875 1.106-2.172 2.117-3.65 2.073-1.21-.014-2.185-.93-2.535-2.039-.367-.955-.294-1.879-.37-2.866-1.018.146-1.878.878-2.686 1.463-2.731 2.453-4.732 5.831-5.422 9.448-.267 1.354-.177 2.771.367 4.045.352.612.834 1.27 1.473 1.606.153.088.389.224.442.401-1.458-.255-2.586-1.548-2.724-3.004-.343-1.828-.012-3.704.547-5.45.396-1.05.716-2.077 1.28-3.06a18.978 18.978 0 0 1 2.287-3.327c1.026-1.04 2.071-1.988 3.474-2.484.462-.172 1.13-.406 1.602-.31l-.003.002zM45.38 11.92c-.565.98-1.064 1.938-1.615 2.937-.875 1.738-1.85 3.42-2.71 5.167-.343.579-.662 1.378-1.053 1.894-.053-.52.263-1.077.396-1.578.8-2.785 2.263-5.408 4.159-7.593.2-.236.571-.72.824-.824v-.002zM48.888 12.533l.053.277a1.38 1.38 0 0 0 .316-.119c.073.129-.097.557-.247.55l-.083-.263c-.292-.027-.3.212-.197.42-.253.173-.348.421-.527.652-.078-.27.102-.426.216-.652.182-.238.238-.685.471-.862l-.002-.003zM49.85 13c.068.16-.163.469-.291.559-.34.01.07-.71.291-.56zM50.29 13.316c.168.007.428.136.504.29-.085.174-.141.337-.326.427-.139-.323-.051-.253-.355-.19-.022-.209.09-.35.178-.527z" fill="#fff"/><path fill-rule="evenodd" clip-rule="evenodd" d="M29.3 13.515c.046.333.017.69.092 1.021.338.088.727-.049 1.05.058l-.01.105c-.298.238-.692.537-1.05.646-.242-.284-.66-.692-.66-1.084.136-.226.31-.675.576-.746h.002zM50.908 13.651l.127-.007.063.124-.07.129c-.156.027-.195-.054-.12-.243v-.003zM38.016 13.775c.087.292.012.622.053.926.362.131.822.02 1.206.07-.216.297-.749.572-1.065.795-.22.302 0 .88-.058 1.228-.372-.083-.651-.506-1.05-.637-.202-.367-.253-.795-.46-1.164.222-.204.581-.056.744-.418.158-.195.362-.812.63-.8zM51.353 13.8c.021.138.036.282.04.425.183-.007.142-.253.358-.255.027.085.012.185-.048.299.13.039.272.05.422.039.018.17-.23.588-.376.66-.178-.271-.287-.602-.666-.621-.066-.095.121-.625.27-.547zM49.211 14.023c.177.16.326.131.365.408.364.146 1.132.316 1.169.78a1.97 1.97 0 0 0 .277-.116c.002.192-.114.391-.202.556-.313.022-.396-.14-.401-.432a2.594 2.594 0 0 0-.309.129l-.065-.292a1.303 1.303 0 0 0-.226.092l-.073-.243c-.275.095-.239.144-.321-.167a1.997 1.997 0 0 0-.275.085c.022-.2.148-.35.114-.545-.092.041-.187.083-.279.127-.017-.107.107-.39.228-.384l-.002.002zM49.883 15.571l-.013.095c-.641 1.118-1.339 2.224-1.93 3.371-.094.246-.337.202-.546.149a.526.526 0 0 1 0-.404c.267-.64.688-1.244 1.003-1.876.2-.357.3-.712.632-.977.287-.224.452-.766.851-.358h.002z" fill="#fff"/><path fill-rule="evenodd" clip-rule="evenodd" d="M50.51 16.009c-.236.33.058.792-.406.804.041.141.06.275.066.411l-.377.102c0 .146.27.447-.049.42-.129 0-.211.05-.248.149.197.306.114.338-.206.391-.017.314.138.525-.297.525-.007.151-.01.302-.01.455-.393.095-.347.058-.267.457a.673.673 0 0 1-.343.23c-.002.117.015.244.054.375-.314.007-.613.058-.921.102-.696-.168-1.026-.7-1.262-1.325.129-.036.258-.073.384-.111l-.063-.392c.143-.026.243-.082.299-.167-.085-.151-.117-.285-.092-.401.13-.027.264-.056.396-.088a.624.624 0 0 1-.073-.386c.114-.042.226-.085.338-.132a.802.802 0 0 1-.042-.396c.506-.168.401-.646 1.055-.678-.391.863-.96 1.75-1.358 2.618-.253.461.724.85.94.452.671-1.2 1.364-2.377 2.017-3.588.086-.238.419.049.465.175v-.002zM37.746 18.804l.093-.012c.04.343.031.695.085 1.035.337.166.812.047 1.188.088-.226.364-.9.527-1.118.926-.073.343-.022.717-.031 1.07-.307 0-.53-.397-.785-.54-.239-.058-.501.398-.705.343.391-1.016.593-2.02 1.273-2.91zM29.997 19.154c.557-.041 1.072.093 1.61.207.541.206 1.135.352 1.295.994.2.756.442 1.633.316 2.413-.024 1.046.253 2.013.027 3.068-.098.94-.258 1.922-.581 2.817-.207.338-.343.936-.742 1.079-.367-.143-.573-.523-.974-.647-.542-.206-1.043-.1-1.592-.01-.875.069-1.823.341-2.732.331-.7-.005-1.441-.381-1.774-1.008-.139-.192-.227-.48-.426-.61.078 1.105.77 2.211 1.855 2.576.811.452 1.67.078 2.387.649.641.522 1.13 1.37 1.18 2.2-.605 1.079-1.552 2.367-2.901 2.46-.399.062-.491-.23-.683-.494-.452-.637-.834-1.325-1.184-2.022-.637-1.592-1.096-3.233-1.439-4.913-.039-.211-.131-.371.032-.566.267-.311.741-.957.773-1.34-.406.266-.788.72-1.36.502-.541-.482-.65-1.296-.665-1.984.027-.554.175-1.429.741-1.689.457-.083.705.224 1.053.45.277.073.673.046.935-.068.13-.428.134-.858.338-1.272.411-.607-.352-1.283.012-1.903 1.32-1.016 2.902-1.1 4.497-1.22h.002z" fill="#fff"/><path fill-rule="evenodd" clip-rule="evenodd" d="M27.803 21.385c.7-.277 1.56.255 2.282.343.037.224-.153.238-.296.36-.34.216-.673.602-1.075.688-.646-.03-1.21-.304-1.708-.7.15-.28.505-.557.797-.69zM31.13 21.488c.258-.073.267.316.348.471.238.158.622-.187.901.037.239.23.567.583.632.906-.418.173-.76.44-1.215.24-.024.616.343 1.18.238 1.838-.201.16-.51.114-.756.202-.257.083-.452.245-.71.053-.225-.182-.486-.247-.746-.352-.16-.085-.374-.197-.211-.396.219-.168.452-.297.717-.37.401-.031.68.229 1.086.066.102-.739-.66-1.893-.289-2.693l.005-.002z" fill="#011382"/><path fill-rule="evenodd" clip-rule="evenodd" d="M38.001 25.535c.063.238-.216.541-.33.746-.6 1.096-1.148 2.272-1.777 3.344-.455.233-.933.158-1.415.326-.228.022-.559.175-.763.053-.206-.362-.462-.726-.583-1.128.201-.527.41-1.035.457-1.609.065-.622.282-1.154.75-1.57 1.204-.068 2.456-.209 3.656-.162h.005z" fill="#fff"/><path fill-rule="evenodd" clip-rule="evenodd" d="M30.16 25.77c.188.015.397.236.572.141.42-.287 1.132.377 1.125.807-.226.126-.479-.165-.734-.129-.656.005-1.3.01-1.954-.082-.221-.078-.452.3-.581.184a1 1 0 0 1 .211-.457c.455-.155.89-.381 1.361-.462v-.002zM29.395 26.985c.581.03 1.135.178 1.73.105.302-.07.421.326.44.554l-.062.037c-.88-.292-1.714-.132-2.599-.112.054-.217.348-.406.491-.581v-.003z" fill="#011382"/><path fill-rule="evenodd" clip-rule="evenodd" d="M32.455 30.877h.068c-1.025 2.296-2.095 4.707-3.232 6.941l-.1.049-.112-.042c-.49-.588-1.079-1.06-1.611-1.601v-.095c.466-.26 1.047-.42 1.47-.768.95-.76 1.738-1.755 2.302-2.832.416-.544.758-1.15 1.213-1.655l.002.003zM40.299 31.779c.712-.093 1.51-.049 2.233-.022 1.053.338 1.77 1.24 2.385 2.107.384.56.6 1.189.926 1.777l.012.25c-.233-.442-.622-.676-.96-1.026-1.332-1.234-2.902-2.287-4.584-2.98l-.012-.106zM22.403 32.27c.182.456.158.964.299 1.438.69 3.046 1.888 6.006 3.711 8.55.139.222.438.346.268.635-.329.647-.586 1.332-.946 1.962-.102.286-.211.289-.45.136-1.49-1.058-2.467-2.9-3.176-4.543-.375-.785-.545-1.638-.89-2.433-.433-1.585-.87-3.276-1.12-4.898.57-.243 1.169-.403 1.718-.685.173-.058.41-.248.586-.163zM23.622 32.291c.256.33.297.843.448 1.23.262.608.634 1.179 1.035 1.699.362.447.977.707 1.495.923l.068.117c-.085 1.106-.233 2.202-.292 3.31l-.143-.021c-.29-.562-.676-1.045-.99-1.59-.962-1.73-1.674-3.668-1.625-5.67l.004.002zM33.206 32.456c1.378-.024 2.747.156 4.13.178.209.138.316.457.466.646a161.13 161.13 0 0 1 2.285 3.97c.36.738 1.033 1.373 1.585 1.963.306.445.722.764 1.082 1.16.294.403.736.641.736 1.19.104 1.32-.569 2.587-1.485 3.496a2.136 2.136 0 0 1-.868.457 2.556 2.556 0 0 1-.442-.348c-.484-.583-1.067-1.081-1.59-1.63-.437-.438-1.084-.3-1.643-.45-1.378-.256-2.715-.722-3.724-1.733-.337-.345-.41-.856-.719-1.203-.632-.244-1.29-.436-1.9-.732-.348.146-.574.69-.931.826.068-.831-.18-1.638.36-2.306.77-.04 1.57.06 2.342.107.27 0 .676-.059.576-.426-.98-.138-1.99-.095-2.965-.265-.049-.544.292-1.05.783-1.264.92-.094 1.942.207 2.882.154.185-.027.287-.222.263-.397-.217-.106-.5-.092-.74-.119-.789-.024-1.552-.177-2.347-.182-.243-.59.287-1.298.902-1.235.96.046 1.932.04 2.885.17.163-.017.31-.277.296-.43-.36-.172-.71-.131-1.093-.148-.722-.097-1.464-.073-2.183-.117 0-.549.42-1.346 1.052-1.332h.005zM17.804 35.16l.042.135c-.766 2.472-1.393 4.954-1.544 7.547-.734 1.74-1.43 3.454-1.774 5.325-.022.411.007.87-.139 1.26l-.14.046c-.9-.229-1.79-.496-2.687-.742.018-.243.222-.476.324-.695.86-1.648 1.847-3.113 2.841-4.703.272-.471.654-.736.746-1.298.017-.84-.017-1.706.107-2.54.243-1.431.518-2.79 1.548-3.891.217-.129.428-.418.674-.447l.002.002zM27.407 37.065l.149.02c.561.568 1.071 1.185 1.65 1.737.14.153.318.258.309.491-.329 1.138-.662 1.808-.905 2.992-.206-.167-.413-.333-.58-.542-.268-.328-.628-.532-.876-.88-.087-.938.08-1.77.159-2.707.007-.363-.02-.766.092-1.114l.002.003z" fill="#fff"/><path fill-rule="evenodd" clip-rule="evenodd" d="m31.16 40.006.097-.01v.117c-.737 1.492-1.534 2.94-2.329 4.401-3.694 6.974-7.605 13.969-11.183 20.967-.148.371-.267.76-.352 1.15.041.361.335.755.712.806.236 0 .469-.172.622-.338.64-.919 1.096-1.903 1.59-2.9 1.808-3.59 3.908-7.257 5.75-10.818 2.222-4.17 4.339-7.923 6.439-12.026.09-.139.18-.443.377-.435.211.277.427.476.197.826-4.49 8.276-8.918 16.589-13.39 24.872-.243.46-.487 1.035-1.012 1.227-.743.39-1.674-.264-1.747-1.052-.117-.741.479-1.395.746-2.044.447-.98 1.023-1.889 1.46-2.87 2.269-4.346 4.459-8.34 6.712-12.584 1.19-2.309 2.277-4.314 3.49-6.616.503-.984.987-1.917 1.82-2.67v-.003z" fill="#fff"/><path fill-rule="evenodd" clip-rule="evenodd" d="M31.495 40.166c.376-.046.814.258 1.195.329a.48.48 0 0 1-.087.281c-1.259 2.339-2.51 4.674-3.782 7.005-2.598 4.844-5.158 9.703-7.802 14.52-.506 1.106-1.152 2.108-1.611 3.226-.353.547-.567 1.091-1.026 1.534-.294.157-.732-.08-.695-.43.002-.329.126-.936.396-1.133-.032.442.058.92.617.755.37-.281.669-.77.744-1.232.051-.362-.357-.707-.693-.522-.092.06-.19.114-.287.16.076-.352.355-.68.516-1.006.843-1.665 1.691-3.332 2.605-4.956 3.267-6.186 6.655-12.35 9.91-18.533v.002zM44.997 41.936c.165-.059.369.102.498.192 1.397.746 2.797 1.458 4.151 2.282.42.258 1.033.467 1.35.831-.05.995-.084 2-.227 2.987-.226.96-.445 2.057-.88 2.96-.595 1.27-1.42 2.439-2.68 3.112-.638.45-1.35.656-2.093.848-.197.037-.348.105-.47-.107-.393-.578-.777-1.161-1.183-1.733-.229-.49-.656-.8-.868-1.305.131-.211.433-.262.622-.432.438-.589.52-1.16.09-1.785l-.119-.012c-.034.38-.005.7-.287.997-.187.25-.646.676-.938.352-.705-1.033-1.385-2.073-2.114-3.087.989.073 1.98-.121 2.732-.804.396-.284.593-.649.875-1.045.785-1.286 1.215-2.795 1.543-4.256l-.002.005zM33.14 42.45c.078-.046.17-.038.28.018 1.295.547 2.644.98 3.925 1.553.073.505-.068.97.122 1.473.083.323.255.595.386.897.09.607-.255 1.086-.08 1.677.107.996.7 1.832 1.181 2.72l-.07.029c-.914-.576-1.813-1.174-2.73-1.743v-.078c.248-.117.486-.223.688-.418.302-.673-.041-1.514-.865-1.366.104.282.416.428.442.775.022.326-.265.817-.632.805-1.154-.666-2.121-1.49-3.152-2.319-.37-.466-.754-.705-.955-1.312.199-.477.457-.912.743-1.34.231-.461.46-.92.713-1.37h.005zM27.293 43.188c.308-.12.765.381 1.015.549.047.153-.106.33-.182.452-.425.758-.775 1.556-1.24 2.292-.4-.136-.78-.491-.894-.912.29-.836.853-1.618 1.3-2.384v.003z" fill="#fff"/><path fill-rule="evenodd" clip-rule="evenodd" d="M47.97 43.676c.226-.083.26.32.345.46.046.503.068 1.05-.416 1.348-.707.635-1.898.258-2.107-.644.566.358 1.315.377 1.767-.172.301-.292.243-.642.41-.992zM35.644 44.157c.566-.153 1.004.433.965.946-.049.49-.627.938-1.106.75.25-.313.668-.602.54-1.062-.047-.264-.36-.398-.401-.636l.002.002z" fill="#011382"/><path fill-rule="evenodd" clip-rule="evenodd" d="M51.922 45.64c.651-.066 1.257-.027 1.869.216 1.123.37 2.122.943 3.101 1.59.192.318.2.76.348 1.11.146.71.401 1.42.52 2.125l-.09-.017c-1.259-2.02-3.143-3.656-5.3-4.655a1.36 1.36 0 0 1-.448-.311v-.058zM25.336 46.102c.39.325.9.649 1.157 1.089-.039.201-.16.39-.252.575-.747 1.376-1.524 2.793-2.237 4.188h-.07c-.212-.474-.527-.906-.698-1.39.406-1.206 1.111-2.27 1.527-3.48.167-.229.335-.931.576-.982h-.003zM31.033 46.291c.112-.066.211-.053.304.042 1.86 1.698 3.94 3.213 6.096 4.508 1.11.676 2.313 1.215 3.439 1.85.092.206.168.42.253.63l-.066.092c-1.75.138-3.524.036-5.281.068-.331.039-.528-.127-.778-.306-1.49-.963-2.883-2.06-4.122-3.333-.346-.398-.822-.76-1.092-1.205.462-.761.846-1.549 1.245-2.343l.002-.003z" fill="#fff"/><path fill-rule="evenodd" clip-rule="evenodd" d="M45.956 47.098c.285.163.513.727.51 1.055.05.914-.967 1.633-1.808 1.235-.233-.09-.78-.45-.675-.732.377.054.707.192 1.106.1.308-.124.598-.348.77-.637.12-.333.112-.67.1-1.02h-.003z" fill="#011382"/><path fill-rule="evenodd" clip-rule="evenodd" d="M21.836 49.784h.102c.19.41.292.863.455 1.288.158.522.462 1.02.58 1.55-.52.052-.96-.235-1.49-.225-.371-.073-.855-.047-1.14-.316.606-.671 1.01-1.534 1.495-2.297h-.002zM32.13 52.105l.058-.026c.411.301.863.561 1.322.78.282.177.518.391.841.5l-.04.112c-.521.068-1.185-.026-1.739.005-.07-.488-.255-.921-.442-1.37zM18.902 64.712c.258.046.183.382.093.55-.131.267-.282.807-.683.685-.022-.25-.049-.476-.146-.707.399-.024.372-.545.736-.528z" fill="#fff"/><path fill-rule="evenodd" clip-rule="evenodd" d="M127.976 52.655v3.244l-.736-1.254v-1.99a.584.584 0 0 0-.042-.224.446.446 0 0 0-.121-.168 1.978 1.978 0 0 0-.355-.24 7.524 7.524 0 0 1-.355-.2.3.3 0 0 1-.163-.264c0-.1.01-.239.078-.302a.303.303 0 0 1 .211-.073h2.232c.107 0 .221.041.26.15a.698.698 0 0 1 .029.224c0 .115-.058.205-.163.265a10.52 10.52 0 0 1-.355.2 2.119 2.119 0 0 0-.355.24.443.443 0 0 0-.129.188.68.68 0 0 0-.034.204h-.002zm-42.27-.29v7.652H82.46c-.097 0-.212-.051-.253-.144a.519.519 0 0 1-.036-.218c0-.085.017-.183.09-.236a1.33 1.33 0 0 1 .204-.122.656.656 0 0 0 .204-.15.308.308 0 0 0 .051-.078.555.555 0 0 0 .039-.236v-6.468a.696.696 0 0 0-.02-.172.303.303 0 0 0-.072-.141.684.684 0 0 0-.205-.15 1.677 1.677 0 0 1-.204-.115c-.075-.051-.09-.143-.09-.228 0-.056.005-.112.017-.168a.269.269 0 0 1 .073-.134.314.314 0 0 1 .2-.073h3.536c.1 0 .214.051.253.146.031.073.036.15.036.229 0 .082-.017.18-.09.228-.063.041-.13.08-.199.114a.719.719 0 0 0-.2.15.303.303 0 0 0-.075.159.816.816 0 0 0-.014.155h.002zm1.93 6.468a1.5 1.5 0 0 0 .265-.428c.06-.148.124-.299.187-.447.056-.131.12-.258.192-.379a.524.524 0 0 1 .272-.229.694.694 0 0 1 .212-.04c.058-.003.117-.006.175-.006v2.715h-2.654v-.59c.245-.034.527-.088.748-.158.127-.042.246-.105.35-.19a1.73 1.73 0 0 0 .253-.245v-.003zm10.68-.29v-4.561l.736 2.267v2.292a.58.58 0 0 0 .042.224.44.44 0 0 0 .121.168c.11.092.229.175.355.24.122.064.24.132.355.205.095.058.163.15.163.272 0 .095-.01.226-.078.289a.3.3 0 0 1-.211.073h-2.232c-.104 0-.218-.039-.257-.146a.59.59 0 0 1-.032-.216c0-.117.058-.207.163-.272a5.82 5.82 0 0 1 .355-.205c.126-.068.245-.148.355-.24a.434.434 0 0 0 .129-.187.656.656 0 0 0 .034-.205l.002.003zm-1.038-6.987c0-.06.007-.12.027-.177a.23.23 0 0 1 .1-.124.595.595 0 0 1 .296-.073h3.281l1.279 3.85.785-2.052v1.918l-1.86 5.116h-.24l-2.523-7.651a.84.84 0 0 0-.112-.224.483.483 0 0 0-.17-.15 1.512 1.512 0 0 0-.38-.139 5.264 5.264 0 0 1-.337-.085.188.188 0 0 1-.114-.083.234.234 0 0 1-.03-.128l-.002.002zm6.346 7.277v-7.651h3.247c.1 0 .214.05.253.146.032.072.037.15.037.228 0 .083-.017.18-.09.229-.066.043-.134.08-.204.114a.663.663 0 0 0-.205.15.362.362 0 0 0-.051.078.554.554 0 0 0-.038.236v6.468c0 .058.004.114.019.172a.296.296 0 0 0 .073.141.683.683 0 0 0 .204.15c.073.035.141.074.204.123.073.053.09.145.09.235 0 .054-.005.11-.017.16a.248.248 0 0 1-.073.13.314.314 0 0 1-.199.072h-3.537c-.097 0-.211-.05-.252-.143a.513.513 0 0 1-.037-.219c0-.085.017-.182.09-.236.063-.046.129-.085.199-.121a.713.713 0 0 0 .2-.15.3.3 0 0 0 .075-.159.802.802 0 0 0 .015-.155l-.003.002zm17.038-7.277c0-.056.005-.11.015-.163a.276.276 0 0 1 .066-.138.303.303 0 0 1 .211-.073h3.585l3.439 5.974v2.86h-1.762l-4.392-7.65a1.17 1.17 0 0 0-.153-.212.797.797 0 0 0-.189-.146 1.756 1.756 0 0 0-.38-.146 2.82 2.82 0 0 1-.308-.09.177.177 0 0 1-.102-.092.286.286 0 0 1-.025-.126l-.005.002zm1.038 6.988v-5.129l.737 1.255v3.874c0 .078.012.153.041.224a.437.437 0 0 0 .122.167c.109.093.228.175.354.24.122.064.241.132.355.205.095.058.163.15.163.272 0 .095-.01.226-.078.29a.299.299 0 0 1-.211.072h-2.231c-.105 0-.219-.039-.258-.146a.586.586 0 0 1-.032-.216c0-.116.059-.206.163-.272.117-.073.236-.141.355-.204a2.03 2.03 0 0 0 .355-.24.433.433 0 0 0 .129-.188.651.651 0 0 0 .034-.204h.002zm-44.564-7.36v7.652c0 .058.005.114.02.172a.303.303 0 0 0 .072.141c.056.06.124.112.2.15.07.035.136.076.199.122.073.054.09.146.09.236 0 .054-.005.11-.017.16a.253.253 0 0 1-.073.13.314.314 0 0 1-.2.072h-3.536c-.097 0-.211-.05-.253-.143a.518.518 0 0 1-.036-.219c0-.085.017-.182.09-.236a1.33 1.33 0 0 1 .204-.121.656.656 0 0 0 .204-.15.303.303 0 0 0 .051-.079.553.553 0 0 0 .04-.235v-6.468a.695.695 0 0 0-.02-.173.303.303 0 0 0-.073-.14.686.686 0 0 0-.204-.151 1.69 1.69 0 0 1-.205-.115c-.075-.05-.09-.143-.09-.228 0-.056.005-.112.018-.168a.269.269 0 0 1 .072-.133.314.314 0 0 1 .2-.073h3.247v-.003zm.88.64v-.64h1.026c.333 0 .666.04.989.127a1.994 1.994 0 0 1 .797.428c.129.116.24.25.33.398a2.434 2.434 0 0 1 .307.77c.068.31.09.613.09.931 0 .234-.022.465-.073.69-.046.21-.126.411-.236.596a2.678 2.678 0 0 1-1.55 1.24c-.11.031-.22.058-.329.082a1.673 1.673 0 0 1-.323.04h-1.026v-.64c.158 0 .302-.06.416-.175a.57.57 0 0 0 .175-.416V52.42a.571.571 0 0 0-.175-.416.554.554 0 0 0-.416-.172l-.002-.008zm11.693 6.154v-5.613a.696.696 0 0 0-.02-.172.303.303 0 0 0-.072-.141.684.684 0 0 0-.204-.15 1.677 1.677 0 0 1-.204-.115c-.076-.051-.09-.143-.09-.228 0-.056.005-.112.017-.168a.269.269 0 0 1 .073-.134.314.314 0 0 1 .199-.073h3.536c.1 0 .214.051.253.146.032.073.037.15.037.229 0 .082-.017.18-.09.228-.064.041-.132.08-.2.114a.719.719 0 0 0-.199.15.303.303 0 0 0-.075.159.824.824 0 0 0-.015.155v6.42c0 .158.058.299.175.415.112.112.25.178.416.175v.834c-.2 0-.33.005-.532-.015a5.57 5.57 0 0 1-.938-.165 4.508 4.508 0 0 1-.73-.265 2.98 2.98 0 0 1-.663-.416 2.043 2.043 0 0 1-.484-.585 1.504 1.504 0 0 1-.148-.401 1.828 1.828 0 0 1-.04-.382l-.002-.002zm5.238-6.794h1.376c.102 0 .224.046.265.146.031.073.036.15.036.229 0 .082-.017.18-.09.228-.065.044-.133.08-.204.114a.654.654 0 0 0-.204.15.32.32 0 0 0-.075.159.824.824 0 0 0-.015.155v5.659c0 .187-.02.374-.06.556a1.688 1.688 0 0 1-.193.477 2.401 2.401 0 0 1-.282.379c-.27.299-.66.54-1.045.659a2.92 2.92 0 0 1-.318.08 1.64 1.64 0 0 1-.309.034v-.834c.068 0 .134-.01.2-.027.053-.012.109-.024.162-.038.17-.05.328-.127.472-.229a1.68 1.68 0 0 0 .403-.416.928.928 0 0 0 .141-.325c.025-.102.034-.21.034-.316v-5.659a.696.696 0 0 0-.02-.172.301.301 0 0 0-.072-.141.683.683 0 0 0-.204-.15 1.676 1.676 0 0 1-.204-.115c-.076-.051-.09-.143-.09-.228 0-.056.005-.115.017-.168a.249.249 0 0 1 .077-.134.348.348 0 0 1 .205-.073h-.003zm13.456 7.652v-6.468a.677.677 0 0 0-.02-.173.296.296 0 0 0-.073-.14.673.673 0 0 0-.204-.151 1.75 1.75 0 0 1-.204-.115c-.075-.05-.09-.143-.09-.228 0-.056.005-.112.017-.168a.27.27 0 0 1 .073-.133.313.313 0 0 1 .199-.073h3.248v8.832h-3.248c-.097 0-.211-.05-.252-.143a.513.513 0 0 1-.037-.219c0-.085.017-.182.09-.236.063-.046.134-.087.204-.121a.649.649 0 0 0 .204-.15.314.314 0 0 0 .076-.159.887.887 0 0 0 .014-.155h.003zm5.128-3.138a3.7 3.7 0 0 1 .515.078 2.065 2.065 0 0 1 .817.372 1.762 1.762 0 0 1 .635.914c.072.242.109.495.109.748 0 .202-.022.398-.075.595a1.506 1.506 0 0 1-.239.496 2.404 2.404 0 0 1-.756.676c-.427.24-.824.347-1.329.413-.129.017-.26.027-.391.027h-.892v-.64c.158 0 .301-.06.415-.174a.545.545 0 0 0 .134-.2.546.546 0 0 0 .039-.216v-2.243a.575.575 0 0 0-.175-.416.563.563 0 0 0-.416-.175v-.7c.158 0 .302-.06.416-.175a.554.554 0 0 0 .172-.416V52.42a.57.57 0 0 0-.175-.416.559.559 0 0 0-.415-.175v-.639h1.183c.132 0 .263.012.394.032.428.063.768.172 1.116.41.133.09.253.2.357.321.161.187.299.413.374.644.085.258.115.53.115.802 0 .253-.03.503-.09.749a1.816 1.816 0 0 1-.309.651c-.08.107-.177.205-.284.287-.095.073-.2.136-.307.19a2.15 2.15 0 0 1-.491.168 3.499 3.499 0 0 1-.452.068v.192l.005-.005zm6.191 4.319h-3.247c-.098 0-.212-.051-.253-.144a.513.513 0 0 1-.037-.218c0-.085.017-.183.09-.236a1.39 1.39 0 0 1 .204-.122.665.665 0 0 0 .205-.15.3.3 0 0 0 .051-.078.57.57 0 0 0 .039-.236v-6.468a.679.679 0 0 0-.02-.172.296.296 0 0 0-.073-.141.683.683 0 0 0-.204-.15 1.737 1.737 0 0 1-.204-.115c-.075-.051-.09-.143-.09-.228 0-.056.005-.112.017-.168a.263.263 0 0 1 .073-.134.313.313 0 0 1 .199-.073h3.247c.1 0 .214.051.253.146.032.073.037.15.037.229 0 .082-.017.18-.09.228-.066.044-.134.08-.204.114a.663.663 0 0 0-.205.15.326.326 0 0 0-.051.079.57.57 0 0 0-.039.235v6.468c0 .059.005.114.02.173a.296.296 0 0 0 .073.14.685.685 0 0 0 .204.151c.073.034.141.073.204.122.073.053.09.146.09.236 0 .053-.005.109-.017.16a.248.248 0 0 1-.073.129.313.313 0 0 1-.199.073zm14.022.192v-.834c.07 0 .138-.02.197-.056a.425.425 0 0 0 .128-.136.697.697 0 0 0 .122-.399v-2.112a1.08 1.08 0 0 0-.034-.296.397.397 0 0 0-.039-.085.586.586 0 0 0-.151-.15 1.941 1.941 0 0 1-.15-.103c-.066-.051-.073-.165-.073-.236 0-.053.005-.104.026-.155a.158.158 0 0 1 .1-.093.798.798 0 0 1 .272-.041h2.365a.93.93 0 0 1 .272.041c.052.017.09.056.105.107a.45.45 0 0 1 .022.141c0 .078-.007.187-.066.236a.92.92 0 0 1-.15.102.463.463 0 0 0-.151.15.317.317 0 0 0-.041.108 1.24 1.24 0 0 0-.025.272v2.328a.262.262 0 0 1-.046.117 1.23 1.23 0 0 1-.211.221 2.623 2.623 0 0 1-.331.231c-.102.06-.204.117-.311.168-.28.136-.571.245-.868.333a3.368 3.368 0 0 1-.96.138l-.002.003zm2.039-6.215a4.028 4.028 0 0 0-.175-.63 2.356 2.356 0 0 0-.28-.54 3.49 3.49 0 0 0-.299-.369 2.131 2.131 0 0 0-.631-.464 1.274 1.274 0 0 0-.304-.107 2.5 2.5 0 0 0-.35-.06v-.834c.082 0 .165.002.248.005.126.007.25.024.374.053.155.036.309.085.459.146.098.039.19.082.28.134a2.3 2.3 0 0 1 .233.145.207.207 0 0 0 .236.022.245.245 0 0 0 .073-.058c.053-.058.107-.12.158-.18a1.22 1.22 0 0 1 .18-.18.358.358 0 0 1 .235-.085c.173 0 .256.129.253.29v2.787c0 .088-.034.17-.097.229a.33.33 0 0 1-.241.097.368.368 0 0 1-.145-.03.233.233 0 0 1-.1-.09.703.703 0 0 1-.102-.276l-.005-.005zm-3.211-1.58v6.37c0 .159.059.3.175.416a.563.563 0 0 0 .416.175v.834h-.241c-.095 0-.291-.04-.374-.054a2.497 2.497 0 0 1-.348-.097 3.505 3.505 0 0 1-.712-.347 4.267 4.267 0 0 1-.345-.243 2.908 2.908 0 0 1-.428-.404 3.836 3.836 0 0 1-.656-1.065 5.327 5.327 0 0 1-.331-1.105 7.484 7.484 0 0 1-.102-1.296c0-.311.015-.625.051-.933.032-.29.088-.574.168-.853.066-.231.146-.457.241-.676a3.877 3.877 0 0 1 .666-1.045c.119-.132.25-.253.391-.362.124-.095.253-.185.384-.265.224-.141.452-.246.707-.336.102-.036.209-.065.316-.087.061-.012.122-.024.185-.034.063-.012.126-.02.19-.022h.24v.834a.576.576 0 0 0-.415.174.545.545 0 0 0-.134.2.546.546 0 0 0-.039.216l-.005.005zM159.255 51.182v7.651c0 .059.005.114.02.173a.296.296 0 0 0 .073.14.71.71 0 0 0 .199.151c.07.034.136.076.199.122.073.053.09.146.09.236 0 .053-.005.109-.017.16a.248.248 0 0 1-.073.129.313.313 0 0 1-.199.073h-3.537c-.097 0-.211-.051-.252-.144a.513.513 0 0 1-.037-.218c0-.085.017-.183.09-.236.063-.046.134-.088.204-.122a.649.649 0 0 0 .204-.15.3.3 0 0 0 .051-.078.54.54 0 0 0 .039-.236v-6.468a.677.677 0 0 0-.019-.172.305.305 0 0 0-.073-.141.683.683 0 0 0-.204-.15 1.59 1.59 0 0 1-.204-.115c-.076-.051-.09-.143-.09-.228 0-.056.005-.112.017-.168a.263.263 0 0 1 .073-.134.313.313 0 0 1 .199-.073h3.247v-.002zm2.185 4.513c.166.015.331.037.496.07.374.076.778.244 1.038.54.146.168.25.365.309.579.065.243.09.471.09.729v.846c0 .065.009.131.029.192.022.075.097.097.175.097.048 0 .102-.007.138-.041a.515.515 0 0 0 .078-.098 1.04 1.04 0 0 1 .078-.102c.034-.038.087-.048.138-.048.042 0 .083.01.122.027.078.04.126.13.143.213a.825.825 0 0 1-.019.37c-.02.068-.041.134-.068.2-.161.371-.484.634-.846.796-.243.11-.496.146-.766.146-.167 0-.337-.01-.503-.031a2.42 2.42 0 0 1-.454-.107 2.111 2.111 0 0 1-.372-.168 1.567 1.567 0 0 1-.69-.822 2.133 2.133 0 0 1-.127-.753v-1.786a.603.603 0 0 0-.048-.236.587.587 0 0 0-.127-.18.561.561 0 0 0-.415-.175v-.7c.158 0 .301-.06.415-.175a.544.544 0 0 0 .134-.2.545.545 0 0 0 .039-.216V52.42a.574.574 0 0 0-.175-.416.563.563 0 0 0-.416-.175v-.639h1.184c.131 0 .262.012.394.032.427.063.768.172 1.115.41a1.958 1.958 0 0 1 .732.965c.085.258.114.53.114.802 0 .253-.029.503-.09.749a1.8 1.8 0 0 1-.309.651 1.5 1.5 0 0 1-.284.287 1.898 1.898 0 0 1-.306.19 2.184 2.184 0 0 1-.491.168 3.499 3.499 0 0 1-.452.068v.192l-.003-.008zm21.105-3.728c-.1.056-.197.119-.289.187a1.32 1.32 0 0 0-.414.515 1.762 1.762 0 0 0-.15.552c-.01.1-.017.202-.015.301v.46a.2.2 0 0 1-.034.116.205.205 0 0 1-.087.07.617.617 0 0 1-.508 0 .192.192 0 0 1-.122-.186v-2.8h1.616v.785h.003zm3.536-.785v7.651c0 .059.005.114.02.173a.296.296 0 0 0 .073.14.673.673 0 0 0 .204.151c.073.034.141.073.204.122.073.053.09.146.09.236 0 .056-.005.109-.02.163a.226.226 0 0 1-.077.126.352.352 0 0 1-.205.073h-3.524c-.102 0-.221-.046-.265-.144a.528.528 0 0 1-.036-.218c0-.085.017-.183.09-.236.063-.046.133-.088.204-.122a.649.649 0 0 0 .204-.15.32.32 0 0 0 .075-.158.802.802 0 0 0 .015-.156v-7.651h2.948zm.591.785v-.785h1.616v2.8c0 .082-.039.15-.121.187a.617.617 0 0 1-.508 0 .21.21 0 0 1-.093-.078.191.191 0 0 1-.026-.11v-.459c0-.213-.022-.44-.085-.639a1.589 1.589 0 0 0-.212-.44 1.246 1.246 0 0 0-.284-.289 2.83 2.83 0 0 0-.29-.187h.003zm7.697.398c-.085-.1-.179-.19-.284-.27a1.054 1.054 0 0 0-.321-.165 5.032 5.032 0 0 0-.748-.158v-.59h2.654v2.715c-.059 0-.117-.003-.175-.005a.697.697 0 0 1-.212-.042.515.515 0 0 1-.272-.228 2.82 2.82 0 0 1-.192-.38 27.875 27.875 0 0 1-.187-.446 1.49 1.49 0 0 0-.265-.428l.002-.003zm-1.351 3.561v-.651a.91.91 0 0 0 .496-.17.708.708 0 0 0 .224-.309c.053-.134.102-.27.15-.404.042-.123.097-.243.163-.354a.33.33 0 0 1 .114-.117.274.274 0 0 1 .144-.034c.08 0 .189.014.223.097.02.046.032.097.037.148.005.044.007.088.007.13v2.69a.807.807 0 0 1-.01.138.469.469 0 0 1-.034.127c-.036.085-.146.097-.223.097a.411.411 0 0 1-.178-.039.332.332 0 0 1-.119-.112 1.496 1.496 0 0 1-.151-.354 5.873 5.873 0 0 0-.133-.404.66.66 0 0 0-.217-.309.898.898 0 0 0-.493-.167v-.003zm1.351 2.907a1.49 1.49 0 0 0 .265-.428c.061-.148.124-.299.188-.447.055-.131.119-.258.192-.379a.521.521 0 0 1 .272-.229.69.69 0 0 1 .211-.04c.059-.003.117-.006.175-.006v2.715h-2.654v-.59a4.81 4.81 0 0 0 .749-.158c.126-.042.245-.105.35-.19a1.72 1.72 0 0 0 .252-.245v-.003zm5.455-7.651v7.651c0 .059.004.114.019.173a.305.305 0 0 0 .073.14c.056.061.124.112.199.151a1.3 1.3 0 0 1 .2.122c.073.053.09.146.09.236 0 .053-.005.109-.017.16a.263.263 0 0 1-.073.129.316.316 0 0 1-.2.073h-3.536c-.097 0-.212-.051-.253-.144a.512.512 0 0 1-.036-.218c0-.085.017-.183.09-.236.063-.046.133-.088.204-.122a.66.66 0 0 0 .204-.15.3.3 0 0 0 .051-.078.57.57 0 0 0 .039-.236v-6.468a.679.679 0 0 0-.02-.172.296.296 0 0 0-.073-.141.67.67 0 0 0-.204-.15 1.737 1.737 0 0 1-.204-.115c-.075-.051-.09-.143-.09-.228 0-.056.005-.112.017-.168a.27.27 0 0 1 .073-.134.313.313 0 0 1 .199-.073h3.248v-.002zm2.185 4.513c.165.015.33.037.496.07.374.076.777.244 1.037.54.146.168.251.365.309.579.066.243.09.471.09.729v.846c0 .065.01.131.029.192.022.075.097.097.175.097.049 0 .102-.007.139-.041a.474.474 0 0 0 .077-.098c.025-.036.052-.07.078-.102.034-.038.088-.048.139-.048.041 0 .082.01.121.027a.314.314 0 0 1 .144.213.825.825 0 0 1-.02.37 1.773 1.773 0 0 1-.068.2c-.16.371-.483.634-.846.796-.243.11-.495.146-.765.146-.168 0-.338-.01-.503-.031a2.413 2.413 0 0 1-.455-.107 2.111 2.111 0 0 1-.372-.168 1.571 1.571 0 0 1-.69-.822 2.133 2.133 0 0 1-.126-.753v-1.786a.586.586 0 0 0-.175-.416.563.563 0 0 0-.416-.175v-.7a.58.58 0 0 0 .416-.175.554.554 0 0 0 .172-.416V52.42a.57.57 0 0 0-.175-.416.56.56 0 0 0-.415-.175v-.639h1.183c.131 0 .263.012.394.032.428.063.768.172 1.116.41a1.955 1.955 0 0 1 .731.965c.085.258.114.53.114.802 0 .253-.029.503-.09.749a1.798 1.798 0 0 1-.308.651c-.08.107-.178.205-.285.287a1.855 1.855 0 0 1-.306.19 2.167 2.167 0 0 1-.491.168 3.499 3.499 0 0 1-.452.068v.192l-.002-.008zm-34.524-3.281v6.37a.57.57 0 0 0 .175.416c.112.112.25.178.416.175v.834h-.241c-.095 0-.292-.04-.374-.054a2.46 2.46 0 0 1-.348-.097 3.505 3.505 0 0 1-.712-.347 4.267 4.267 0 0 1-.345-.243 2.908 2.908 0 0 1-.428-.404 3.765 3.765 0 0 1-.656-1.065 5.327 5.327 0 0 1-.331-1.105 7.484 7.484 0 0 1-.102-1.296c0-.311.015-.625.051-.933.032-.29.088-.574.168-.853.066-.231.146-.457.241-.676a3.877 3.877 0 0 1 .666-1.045c.119-.132.25-.253.391-.362.124-.095.253-.185.384-.265.224-.141.452-.246.707-.336.102-.036.209-.065.316-.087.061-.012.122-.024.185-.034.063-.012.126-.02.19-.022h.24v.834a.576.576 0 0 0-.415.174.545.545 0 0 0-.134.2.529.529 0 0 0-.039.216l-.005.005zm1.799 0a.578.578 0 0 0-.175-.416.563.563 0 0 0-.416-.175v-.833h.241c.094 0 .291.039.374.053.119.025.233.056.348.097.255.093.478.2.712.348.119.075.233.156.345.243.155.12.299.255.428.404a3.857 3.857 0 0 1 .656 1.067c.148.357.262.726.328 1.105.075.428.102.856.102 1.291 0 .311-.014.625-.051.933a5.304 5.304 0 0 1-.408 1.529 3.882 3.882 0 0 1-.666 1.045 3.067 3.067 0 0 1-.392.363 4.384 4.384 0 0 1-.384.264 3.386 3.386 0 0 1-.709.336 2.356 2.356 0 0 1-.319.087c-.095.017-.274.051-.367.054h-.24v-.834c.158 0 .301-.06.415-.175a.57.57 0 0 0 .175-.416v-6.37h.003zm6.467 0v6.37c0 .159.059.3.175.416a.563.563 0 0 0 .416.175v.834h-.241c-.094 0-.291-.04-.374-.054a2.446 2.446 0 0 1-.347-.097 3.513 3.513 0 0 1-.713-.347 4.267 4.267 0 0 1-.345-.243 2.958 2.958 0 0 1-.428-.404 3.91 3.91 0 0 1-.656-1.065 5.324 5.324 0 0 1-.33-1.105 7.387 7.387 0 0 1-.102-1.296c0-.311.014-.625.051-.933.031-.29.087-.574.167-.853.066-.231.146-.457.241-.676a3.877 3.877 0 0 1 .666-1.045 2.93 2.93 0 0 1 .391-.362c.124-.095.253-.185.384-.265.224-.141.452-.246.708-.336.102-.036.209-.065.316-.087.06-.012.121-.024.184-.034.063-.012.127-.02.19-.022h.24v.834a.576.576 0 0 0-.415.174.545.545 0 0 0-.134.2.546.546 0 0 0-.039.216l-.005.005zm1.799 0a.578.578 0 0 0-.175-.416.562.562 0 0 0-.416-.175v-.833h.241c.095 0 .292.039.374.053.119.025.234.056.348.097.255.093.479.2.712.348.119.075.233.156.345.243.156.12.299.255.428.404a3.786 3.786 0 0 1 .656 1.067c.148.357.263.726.328 1.105.076.428.102.856.102 1.291 0 .311-.014.625-.051.933-.031.29-.087.574-.167.854-.066.23-.146.457-.241.675a3.795 3.795 0 0 1-.666 1.045 2.93 2.93 0 0 1-.391.363 4.539 4.539 0 0 1-.384.264 3.394 3.394 0 0 1-.71.336 2.383 2.383 0 0 1-.318.087c-.095.017-.275.051-.367.054h-.241v-.834a.58.58 0 0 0 .416-.175.574.574 0 0 0 .175-.416v-6.37h.002zm11.946 6.42v-6.469a.725.725 0 0 0-.019-.172.305.305 0 0 0-.073-.141.696.696 0 0 0-.204-.15 1.672 1.672 0 0 1-.205-.115c-.075-.051-.089-.143-.089-.228 0-.056.004-.112.017-.168a.269.269 0 0 1 .072-.134.316.316 0 0 1 .2-.073h3.247v8.833h-3.247c-.097 0-.212-.051-.253-.144a.512.512 0 0 1-.036-.218c0-.085.017-.183.089-.236.066-.046.134-.088.205-.122a.673.673 0 0 0 .204-.15.32.32 0 0 0 .075-.158.802.802 0 0 0 .015-.156h.002zM144.424 55.912l-.253.338 1.556 2.897h.435l.35.651a3.053 3.053 0 0 1-1.028.445 4.323 4.323 0 0 1-.868.075c-.221 0-.443-.017-.661-.058a2.472 2.472 0 0 1-.584-.182 2.926 2.926 0 0 1-.471-.273 2.39 2.39 0 0 1-.664-.724 2.575 2.575 0 0 1-.338-1.237c0-.258.047-.513.139-.753.173-.45.452-.839.822-1.16a4.358 4.358 0 0 1 .717-.51c.114-.063.218-.112.345-.156a.436.436 0 0 1 .138-.029l.362.676h.003zm3.125-4.779c.343 0 .691.183.929.416.148.143.255.309.343.5.097.215.138.436.138.676 0 .2-.027.396-.085.586a2.157 2.157 0 0 1-.484.846c-.082.09-.175.168-.277.236l-.386-.737c.058-.044.112-.095.16-.15.042-.05.081-.1.117-.151a.614.614 0 0 0 .08-.156c.051-.14.066-.286.066-.437 0-.2-.059-.392-.212-.537a1.667 1.667 0 0 0-.189-.156.804.804 0 0 0-.204-.105v-.833l.004.002zm-.833 0h.301v.834a.863.863 0 0 0-.289.211.451.451 0 0 0-.114.192c-.066.205-.017.45.078.635l3.077 5.828c.06.12.15.229.265.297.097.056.196.107.301.15.087.035.17.08.248.134.075.051.102.139.102.229 0 .114-.022.262-.146.313a.583.583 0 0 1-.126.037c-.107.02-.212.024-.321.024h-2.547a.538.538 0 0 1-.309-.095.645.645 0 0 1-.187-.23l-2.703-5.044c-.214-.391-.35-.81-.35-1.266 0-.297.071-.591.204-.856.139-.275.331-.52.566-.717.258-.216.54-.372.863-.489.183-.065.37-.114.562-.143.172-.027.345-.039.518-.039l.007-.005zm2.377 5.129a.722.722 0 0 0 .163-.168.458.458 0 0 0 .065-.153.728.728 0 0 0 .015-.148.416.416 0 0 0-.066-.241 1.913 1.913 0 0 0-.15-.187 1.554 1.554 0 0 1-.151-.187.362.362 0 0 1-.066-.217c0-.145.068-.267.18-.367a.519.519 0 0 1 .131-.087.935.935 0 0 1 .559-.056.625.625 0 0 1 .348.263c.056.085.1.18.126.277.124.44-.038.926-.277 1.29a2.484 2.484 0 0 1-.415.491 1.072 1.072 0 0 1-.132.105l-.325-.615h-.005z" fill="#00007F"/></g><path d="M164.302 69h1.088v-1.648h.658c.468 0 .677.221.732.627.068.437.049.953.166 1.021h1.058v-.055c-.154-.056-.092-.61-.184-1.187-.062-.437-.259-.677-.64-.806v-.018c.51-.179.763-.554.763-1.064 0-.818-.665-1.267-1.538-1.267h-2.103V69zm1.088-2.454v-1.082h.843c.418 0 .627.227.627.547 0 .332-.221.535-.652.535h-.818zM170.427 68.219c-.708 0-1.071-.609-1.071-1.408 0-.8.363-1.415 1.071-1.415.713 0 1.063.615 1.063 1.415s-.35 1.408-1.063 1.408zm-.007.886c1.335 0 2.177-.978 2.177-2.294 0-1.317-.842-2.294-2.177-2.294-1.328 0-2.171.978-2.171 2.294s.843 2.293 2.171 2.293zM175.015 69.098c.621 0 1.07-.172 1.408-.498a1.73 1.73 0 0 0 .529-1.125h-1.088c-.05.424-.369.732-.855.732-.652 0-1.058-.585-1.058-1.39 0-.8.338-1.396 1.052-1.396.467 0 .774.301.83.695h1.088c-.055-.492-.276-.923-.658-1.212-.313-.24-.744-.387-1.254-.387-1.31 0-2.165.99-2.165 2.3 0 1.316.879 2.281 2.171 2.281zM178.541 69h.64l.172-1.064h.634L179.814 69h.64l.172-1.064h.566l.129-.775h-.566l.099-.615h.572l.135-.775h-.578l.166-.99h-.64l-.166.99h-.633l.166-.99h-.64l-.166.99h-.565l-.136.775h.572l-.098.615h-.566l-.135.775h.572L178.541 69zm.941-1.839.099-.615h.633l-.098.615h-.634zM184.518 69.098c.886 0 1.667-.418 1.667-1.322 0-.566-.301-.892-.762-1.033v-.012c.375-.148.639-.412.639-.843 0-.744-.633-1.187-1.562-1.187-1.045 0-1.63.584-1.648 1.42h.965c.025-.362.222-.645.671-.645.35 0 .553.19.553.48 0 .32-.258.492-.652.492h-.227v.72h.252c.461 0 .719.184.719.553 0 .35-.233.584-.658.584-.528 0-.75-.314-.774-.763h-.978c0 .486.16.88.467 1.15.295.265.732.406 1.328.406zM188.2 69.098c.886 0 1.667-.418 1.667-1.322 0-.566-.302-.892-.763-1.033v-.012c.375-.148.64-.412.64-.843 0-.744-.634-1.187-1.562-1.187-1.046 0-1.63.584-1.649 1.42h.966c.025-.362.221-.645.67-.645.351 0 .554.19.554.48 0 .32-.258.492-.652.492h-.228v.72h.253c.461 0 .719.184.719.553 0 .35-.234.584-.658.584-.529 0-.75-.314-.775-.763h-.978c0 .486.16.88.468 1.15.295.265.732.406 1.328.406zM191.857 69.098c.615 0 1.052-.209 1.353-.596.301-.394.437-.984.437-1.636 0-.769-.179-1.329-.554-1.691-.295-.302-.744-.474-1.267-.474-.984 0-1.697.603-1.697 1.5 0 .905.689 1.489 1.537 1.489.437 0 .726-.178.941-.412h.013c-.013.375-.093.658-.24.836-.129.166-.314.24-.548.24-.35 0-.528-.19-.59-.4h-.984c.117.677.689 1.144 1.599 1.144zm-.006-2.17c-.455 0-.738-.314-.738-.732 0-.412.301-.726.738-.726s.75.307.75.732c0 .424-.32.725-.75.725zM195.886 69h1.009v-.935h.609v-.787h-.609v-2.534h-1.021l-1.949 2.368v.953h1.961V69zm-1.18-1.722v-.012l1.168-1.433h.012v1.445h-1.18zM199.614 69.098c.966 0 1.673-.602 1.673-1.5 0-.904-.707-1.495-1.519-1.495-.455 0-.738.16-.966.4h-.012c.031-.676.314-1.064.83-1.064.345 0 .492.179.554.388h.99c-.129-.683-.683-1.126-1.556-1.126-.603 0-1.033.197-1.335.541-.362.412-.516.997-.51 1.685.006 1.255.615 2.171 1.851 2.171zm-.037-.775c-.43 0-.732-.3-.732-.72 0-.423.283-.737.732-.737.425 0 .726.32.726.738a.7.7 0 0 1-.726.72zM202.07 69h1.082a5.162 5.162 0 0 1 1.451-3.413v-.8h-3.118v.88h2.03v.012c-.597.609-1.39 1.79-1.445 3.321z" fill="#000524"/><defs><clipPath id="a"><path fill="#fff" transform="translate(0 .397)" d="M0 0h210v69.234H0z"/></clipPath></defs></svg>