<svg xmlns="http://www.w3.org/2000/svg" width="360.149" height="107.7" viewBox="0 0 360.149 107.7">
  <g id="Group_246" data-name="Group 246" transform="translate(-4261 -7886.275)">
    <g id="Group_236" data-name="Group 236" transform="translate(4261 7886.275)">
      <path id="Path_25" data-name="Path 25" d="M52.229,8.617,97,34.464v65.773H7.463V34.464L52.229,8.617m0-8.617L0,30.155V107.7H104.464V30.155L52.229,0Z" fill="#ffdb00"/>
      <path id="Path_26" data-name="Path 26" d="M114.032,60.835,68.337,34.06,61.3,38.795l45.269,26.349v60.31h7.463Z" transform="translate(-31.954 -17.754)" fill="#ffdb00"/>
      <path id="Path_27" data-name="Path 27" d="M66.547,139.341H59.084V91.951L13.15,65.43l7.53-4.73L66.547,87.643Z" transform="translate(-6.855 -31.641)" fill="#ffdb00"/>
      <path id="Path_28" data-name="Path 28" d="M43.839,124.3,12.53,106.22v8.617l23.85,13.768v34.464h7.459Z" transform="translate(-6.532 -55.369)" fill="#ffdb00"/>
    </g>
    <g id="Group_237" data-name="Group 237" transform="translate(4383.463 7889.025)">
      <path id="Path_29" data-name="Path 29" d="M278.949,92.975a27.488,27.488,0,0,1-6.866-.862,22.615,22.615,0,0,1-6.05-2.488,15.3,15.3,0,0,1-4.43-3.93,9.93,9.93,0,0,1-1.994-5.136l9.848-1.207A4.837,4.837,0,0,0,270.613,82a7.185,7.185,0,0,0,2.281,1.729,11.927,11.927,0,0,0,2.959.971,17,17,0,0,0,3.195.316,10.157,10.157,0,0,0,5.608-1.31,3.69,3.69,0,0,0,1.994-3.039,3.126,3.126,0,0,0-1.126-2.488,9.406,9.406,0,0,0-2.959-1.626,33.231,33.231,0,0,0-4.165-1.155q-2.336-.5-4.792-1.074t-4.792-1.362a17.93,17.93,0,0,1-4.165-1.994,9.779,9.779,0,0,1-2.959-2.988,8.068,8.068,0,0,1-1.126-4.4,10.818,10.818,0,0,1,1.678-6.234,12.547,12.547,0,0,1,4.269-3.93,18.757,18.757,0,0,1,5.791-2.068,33.347,33.347,0,0,1,6.182-.6,28.5,28.5,0,0,1,7.073.816,19,19,0,0,1,5.527,2.3,12.635,12.635,0,0,1,3.746,3.556,10.373,10.373,0,0,1,1.729,4.6L286.6,63.213a7.645,7.645,0,0,1-.419-.971,5.236,5.236,0,0,0-1.178-1.7,7.782,7.782,0,0,0-2.488-1.6,11.1,11.1,0,0,0-4.349-.707,10.57,10.57,0,0,0-4.688.942,2.883,2.883,0,0,0-1.862,2.614,3.045,3.045,0,0,0,1.126,2.459,10.067,10.067,0,0,0,2.959,1.62,31.727,31.727,0,0,0,4.165,1.2c1.551.35,3.154.724,4.792,1.126s3.24.873,4.792,1.413a17.512,17.512,0,0,1,4.165,2.068,10.06,10.06,0,0,1,2.959,3.114,8.552,8.552,0,0,1,1.126,4.527,13.565,13.565,0,0,1-.994,5.125,11.226,11.226,0,0,1-3.223,4.344,16.8,16.8,0,0,1-5.814,3.034,28.938,28.938,0,0,1-8.722,1.149Z" transform="translate(-259.61 -48.649)" fill="#1e2749"/>
      <path id="Path_30" data-name="Path 30" d="M332.21,69.35H341.9V87.218a7.042,7.042,0,0,0,.213,2.1,5.139,5.139,0,0,0,.891,1.885,4.541,4.541,0,0,0,1.626,1.339,5.314,5.314,0,0,0,2.413.5,5.6,5.6,0,0,0,2.017-.368A5.214,5.214,0,0,0,352,89.9a5.552,5.552,0,0,0,.442-2.3V69.356h9.905v31.123H352.5V95.136a7.928,7.928,0,0,1-1.339,2.3,8.711,8.711,0,0,1-2.045,1.81,10.512,10.512,0,0,1-2.672,1.207,10.78,10.78,0,0,1-3.12.448,12.667,12.667,0,0,1-4.217-.707,10.018,10.018,0,0,1-3.539-2.12,10.331,10.331,0,0,1-2.436-3.539,12.285,12.285,0,0,1-.919-4.9V69.361Z" transform="translate(-290.498 -56.566)" fill="#1e2749"/>
      <path id="Path_31" data-name="Path 31" d="M416.872,77.125c-.247-.034-.666-.063-1.258-.08s-1.258,0-1.994.052a19.117,19.117,0,0,0-2.333.316,9.132,9.132,0,0,0-2.229.707,9.59,9.59,0,0,0-2.62,1.781,14.226,14.226,0,0,0-1.413,1.574v18.707H395.12V69.058h9.641v6.234a15.706,15.706,0,0,1,1.074-2.172,8.582,8.582,0,0,1,2.591-2.7,8.251,8.251,0,0,1,2.752-1.362,11.214,11.214,0,0,1,2.568-.391,9.608,9.608,0,0,1,2.017.132c.557.1.925.172,1.1.213V77.13Z" transform="translate(-317.263 -56.274)" fill="#1e2749"/>
      <path id="Path_32" data-name="Path 32" d="M458.233,68.62a12.284,12.284,0,0,1,5.631,1.258,12.083,12.083,0,0,1,4.165,3.43,15.925,15.925,0,0,1,2.568,5.085,22.1,22.1,0,0,1,0,12.422,15.81,15.81,0,0,1-2.568,5.085,12.083,12.083,0,0,1-4.165,3.43,12.318,12.318,0,0,1-5.631,1.258,11.694,11.694,0,0,1-6.211-1.649,11.1,11.1,0,0,1-4.165-4.533v16.507H437.9V69.039h9.957v5.343a10.581,10.581,0,0,1,4.062-4.165A12.176,12.176,0,0,1,458.233,68.62Zm-10.376,15.4Zm6.814,8.486a6.485,6.485,0,0,0,2.936-.655,6.143,6.143,0,0,0,2.172-1.781,8.446,8.446,0,0,0,1.339-2.649,11.421,11.421,0,0,0,0-6.492,8.387,8.387,0,0,0-1.339-2.649,6.193,6.193,0,0,0-2.172-1.781,6.468,6.468,0,0,0-2.936-.655,6.6,6.6,0,0,0-2.988.626,5.9,5.9,0,0,0-2.1,1.729,7.723,7.723,0,0,0-1.258,2.591,11.79,11.79,0,0,0-.419,3.223v.264a10.585,10.585,0,0,0,.471,3.223,8.024,8.024,0,0,0,1.339,2.591,6.4,6.4,0,0,0,2.12,1.752,6.03,6.03,0,0,0,2.827.655Z" transform="translate(-335.464 -56.256)" fill="#1e2749"/>
      <path id="Path_33" data-name="Path 33" d="M523.932,77.125c-.247-.034-.666-.063-1.258-.08s-1.258,0-1.994.052a19.119,19.119,0,0,0-2.333.316,9.133,9.133,0,0,0-2.229.707A9.592,9.592,0,0,0,513.5,79.9a14.232,14.232,0,0,0-1.413,1.574v18.707H502.18V69.058h9.641v6.234A15.713,15.713,0,0,1,512.9,73.12a8.582,8.582,0,0,1,2.591-2.7,8.252,8.252,0,0,1,2.752-1.362,11.215,11.215,0,0,1,2.568-.391,9.608,9.608,0,0,1,2.017.132c.557.1.925.172,1.1.213V77.13Z" transform="translate(-362.812 -56.274)" fill="#1e2749"/>
      <path id="Path_34" data-name="Path 34" d="M553.729,47.1v8.538H542.41V47.1ZM543.145,91.007V59.884h9.905V91.007Z" transform="translate(-379.927 -47.1)" fill="#1e2749"/>
      <path id="Path_35" data-name="Path 35" d="M594.142,89.89a9.483,9.483,0,0,1-1.155,4.792,9.9,9.9,0,0,1-3.091,3.327,13.818,13.818,0,0,1-4.556,1.936,23.49,23.49,0,0,1-5.5.626,19.915,19.915,0,0,1-6.027-.862,15.352,15.352,0,0,1-4.637-2.3,11.206,11.206,0,0,1-2.988-3.275,7.274,7.274,0,0,1-1.074-3.717l8.331-.994a3.109,3.109,0,0,0,.707,2.12,4.822,4.822,0,0,0,1.729,1.258,8.115,8.115,0,0,0,2.12.6,13.829,13.829,0,0,0,1.885.155,13.132,13.132,0,0,0,1.546-.1,7.632,7.632,0,0,0,1.626-.368,3.236,3.236,0,0,0,1.281-.787,1.776,1.776,0,0,0,.523-1.31,2.086,2.086,0,0,0-1.413-1.885,17.6,17.6,0,0,0-3.511-1.178q-2.094-.5-4.585-1.023a21.238,21.238,0,0,1-4.585-1.494,10.334,10.334,0,0,1-3.51-2.591,6.233,6.233,0,0,1-1.413-4.246,9.872,9.872,0,0,1,.655-3.482,8.189,8.189,0,0,1,2.229-3.194,11.926,11.926,0,0,1,4.188-2.356,23.388,23.388,0,0,1,12.784-.057,13.573,13.573,0,0,1,4.321,2.229A8.746,8.746,0,0,1,592.5,74.7a7.328,7.328,0,0,1,.787,3.195l-8.383,1.046a4.1,4.1,0,0,0-.155-.81,3.156,3.156,0,0,0-.735-1.258,4.893,4.893,0,0,0-1.7-1.155,7.712,7.712,0,0,0-3.062-.5,6.311,6.311,0,0,0-3.091.6,1.71,1.71,0,0,0-1.046,1.442,1.992,1.992,0,0,0,1.413,1.833,21.846,21.846,0,0,0,3.511,1.155q2.094.526,4.585,1.1a22.3,22.3,0,0,1,4.585,1.574,10.479,10.479,0,0,1,3.511,2.649,6.414,6.414,0,0,1,1.413,4.321Z" transform="translate(-389.585 -56.256)" fill="#1e2749"/>
      <path id="Path_36" data-name="Path 36" d="M628.564,86.117A8.551,8.551,0,0,0,630.5,91.2a5.653,5.653,0,0,0,4.4,1.781,6.624,6.624,0,0,0,4.217-1.155,4.915,4.915,0,0,0,1.81-2.775l8.279,1.046a15.874,15.874,0,0,1-1.833,4.246,12.143,12.143,0,0,1-3.062,3.327,14.056,14.056,0,0,1-4.349,2.149,19.324,19.324,0,0,1-5.631.758,17.061,17.061,0,0,1-6.1-1.1,14.392,14.392,0,0,1-8.331-8.147,17.229,17.229,0,0,1-1.23-6.682,16.52,16.52,0,0,1,1.23-6.55,15.556,15.556,0,0,1,3.355-5.056,14.721,14.721,0,0,1,5-3.275,16.594,16.594,0,0,1,6.234-1.155,17.106,17.106,0,0,1,6.837,1.258,13.807,13.807,0,0,1,4.849,3.407,14,14,0,0,1,2.907,5.085,19.835,19.835,0,0,1,.971,6.234c0,.282-.012.54-.029.787s-.023.488-.023.735H628.575Zm6.395-10.009a5.69,5.69,0,0,0-3.826,1.247,7.174,7.174,0,0,0-2.149,3.522h12.048a7.188,7.188,0,0,0-2.1-3.47,5.779,5.779,0,0,0-3.982-1.3Z" transform="translate(-412.372 -56.251)" fill="#1e2749"/>
      <path id="Path_37" data-name="Path 37" d="M300.649,172.251v21.063h-9.273v-4.033a10.281,10.281,0,0,1-4.614,3.327,18.114,18.114,0,0,1-6.55,1.126,23.278,23.278,0,0,1-7.883-1.339,18.4,18.4,0,0,1-11.06-10.56,25.192,25.192,0,0,1-.207-17.369,19.451,19.451,0,0,1,4.165-6.7,20.071,20.071,0,0,1,6.579-4.533,21.607,21.607,0,0,1,8.722-1.678,24.131,24.131,0,0,1,7.573,1.126,18.848,18.848,0,0,1,5.975,3.172,17.083,17.083,0,0,1,4.194,4.976,19.461,19.461,0,0,1,2.229,6.55l-9.221,1.046a17.145,17.145,0,0,0-1.178-3.51,9.4,9.4,0,0,0-1.988-2.8,8.678,8.678,0,0,0-2.936-1.833,10.825,10.825,0,0,0-3.9-.655,9.319,9.319,0,0,0-5,1.23,9.523,9.523,0,0,0-3.12,3.12,12.4,12.4,0,0,0-1.6,4.194,23.356,23.356,0,0,0-.448,4.453q0,6.179,2.752,9.56a9,9,0,0,0,7.36,3.378,9.285,9.285,0,0,0,5.5-1.465,11.248,11.248,0,0,0,3.407-4.137h-7.6v-7.7H300.66Z" transform="translate(-259.614 -91.538)" fill="#1e2749"/>
      <path id="Path_38" data-name="Path 38" d="M361.247,177.845c-.247-.034-.666-.063-1.258-.08s-1.258,0-1.988.052a19.125,19.125,0,0,0-2.333.316,9.133,9.133,0,0,0-2.229.707,9.5,9.5,0,0,0-2.62,1.781,14.226,14.226,0,0,0-1.413,1.574V200.9H339.5V169.778h9.641v6.234a15.71,15.71,0,0,1,1.074-2.172,8.582,8.582,0,0,1,2.591-2.7,8.251,8.251,0,0,1,2.752-1.362,11.212,11.212,0,0,1,2.568-.391,9.609,9.609,0,0,1,2.017.132c.557.1.925.172,1.1.213v8.118Z" transform="translate(-293.599 -99.126)" fill="#1e2749"/>
      <path id="Path_39" data-name="Path 39" d="M407.969,192.369a1.98,1.98,0,0,0,.552,1.546,2.355,2.355,0,0,0,1.281.6,3.524,3.524,0,0,0,1.465-.1,3.613,3.613,0,0,0,1.155-.523v5.556a6.9,6.9,0,0,1-1.517.942,9.1,9.1,0,0,1-1.862.655,10.164,10.164,0,0,1-2.488.287,7.737,7.737,0,0,1-5.682-2.172,6.144,6.144,0,0,1-1.281-1.781,13.911,13.911,0,0,1-.575-1.39,6.954,6.954,0,0,1-1.994,2.672,10.621,10.621,0,0,1-3.172,1.862,13.98,13.98,0,0,1-5.159.81,12.533,12.533,0,0,1-4.269-.655,8.377,8.377,0,0,1-3.011-1.81,7.409,7.409,0,0,1-1.81-2.7,9.2,9.2,0,0,1-.6-3.378,7.048,7.048,0,0,1,1.1-4.137,9.206,9.206,0,0,1,2.591-2.517,10.943,10.943,0,0,1,2.959-1.339c.977-.264,1.712-.46,2.2-.6.7-.172,1.339-.333,1.913-.471s1.23-.287,1.965-.448,1.632-.339,2.7-.552,2.436-.454,4.114-.735a5.985,5.985,0,0,0-1.074-3.591,4,4,0,0,0-3.482-1.494,4.319,4.319,0,0,0-3.275,1.23,5.219,5.219,0,0,0-1.39,3.12c-1.574-.069-3.1-.213-4.585-.419s-3.011-.35-4.585-.419a11.724,11.724,0,0,1,1.339-4.349,12.12,12.12,0,0,1,2.827-3.482,12.9,12.9,0,0,1,4.217-2.333,17.231,17.231,0,0,1,5.556-.839,19.641,19.641,0,0,1,6.889,1.023A11.956,11.956,0,0,1,405.228,173a8.548,8.548,0,0,1,2.149,3.378,11.08,11.08,0,0,1,.6,3.459v12.525Zm-19.282-.942a2.7,2.7,0,0,0,.684,1.936,3.423,3.423,0,0,0,1.7.994,5.189,5.189,0,0,0,2.252.029,5.772,5.772,0,0,0,2.281-.971,6.058,6.058,0,0,0,2.3-2.672,10.432,10.432,0,0,0,.575-3.775,26.05,26.05,0,0,1-3.3.655,27.376,27.376,0,0,0-3.172.6,6.769,6.769,0,0,0-2.384,1.074,2.486,2.486,0,0,0-.942,2.12Z" transform="translate(-310.405 -99.137)" fill="#1e2749"/>
      <path id="Path_40" data-name="Path 40" d="M470.569,200.874h-9.8V183.109a7.06,7.06,0,0,0-.213-2.1,5.2,5.2,0,0,0-.9-1.885,4.806,4.806,0,0,0-1.632-1.362,5.159,5.159,0,0,0-2.425-.523,5.791,5.791,0,0,0-3.872,1.413,5.079,5.079,0,0,0-1.66,4.085v18.127H440.17V169.745h9.905l-.052,5.4a8.531,8.531,0,0,1,1.339-2.333,8.358,8.358,0,0,1,2.074-1.833,11.085,11.085,0,0,1,5.883-1.655,12.566,12.566,0,0,1,4.257.735,10.542,10.542,0,0,1,3.6,2.149,10.176,10.176,0,0,1,2.471,3.539,12.327,12.327,0,0,1,.919,4.953v20.172Z" transform="translate(-336.429 -99.099)" fill="#1e2749"/>
      <path id="Path_41" data-name="Path 41" d="M512.689,147.82v8.538H501.37V147.82Zm-10.583,43.907V160.6h9.905v31.123Z" transform="translate(-362.467 -89.951)" fill="#1e2749"/>
      <path id="Path_42" data-name="Path 42" d="M524.9,171.629v-5.918a5.414,5.414,0,0,0,4.085-1.31,10.42,10.42,0,0,0,2.356-3.195,18.807,18.807,0,0,0,1.362-4.717h6.079V164.3h7.963v7.337h-7.963v13.623a2.773,2.773,0,0,0,.316,1.362,2.272,2.272,0,0,0,.919.919,3.875,3.875,0,0,0,1.965.391,12.087,12.087,0,0,0,2.017-.155,8.135,8.135,0,0,0,1.6-.419,9.364,9.364,0,0,0,1.465-.626v6.389a6.452,6.452,0,0,1-2.488,1.6,17.44,17.44,0,0,1-2.907.81,27.8,27.8,0,0,1-3.407.316,12.564,12.564,0,0,1-3.223-.368,9.32,9.32,0,0,1-2.407-.971,6.246,6.246,0,0,1-1.678-1.39,8.375,8.375,0,0,1-1.074-1.626,10.119,10.119,0,0,1-.994-4.349V171.629H524.9Z" transform="translate(-372.478 -93.64)" fill="#1e2749"/>
      <path id="Path_43" data-name="Path 43" d="M575.574,186.837a8.55,8.55,0,0,0,1.936,5.085,5.653,5.653,0,0,0,4.4,1.781,6.623,6.623,0,0,0,4.217-1.155,4.915,4.915,0,0,0,1.81-2.775l8.279,1.046a15.876,15.876,0,0,1-1.833,4.246,12.144,12.144,0,0,1-3.062,3.327,14.056,14.056,0,0,1-4.349,2.149,19.324,19.324,0,0,1-5.631.758,17.062,17.062,0,0,1-6.1-1.1,14.392,14.392,0,0,1-8.331-8.147,17.229,17.229,0,0,1-1.23-6.682,16.52,16.52,0,0,1,1.23-6.55,15.556,15.556,0,0,1,3.355-5.056,14.721,14.721,0,0,1,5-3.275,16.6,16.6,0,0,1,6.234-1.155,17.106,17.106,0,0,1,6.837,1.258A13.807,13.807,0,0,1,593.189,174a13.994,13.994,0,0,1,2.907,5.085,19.833,19.833,0,0,1,.971,6.234c0,.282-.011.54-.029.787s-.029.488-.029.735H575.58Zm6.395-10.009a5.69,5.69,0,0,0-3.826,1.247,7.173,7.173,0,0,0-2.149,3.522h12.048a7.187,7.187,0,0,0-2.1-3.47,5.779,5.779,0,0,0-3.982-1.3Z" transform="translate(-389.828 -99.103)" fill="#1e2749"/>
    </g>
  </g>
</svg>
