<?xml version="1.0" encoding="UTF-8"?><svg id="b" xmlns="http://www.w3.org/2000/svg" width="20.05" height="24" viewBox="0 0 20.05 24"><g id="c"><path d="m18.05,0H.05v14.98s-.03.05-.03.08c-.03.13,0,.26.03.39v8.55h20V0h-2ZM7.3,2c-1,1.14-1.51,2.76-1.52,4.84,0,1.99-.51,3.4-1.49,4.21-.73.6-1.61.75-2.25.77V2h5.25Zm-5.25,14.07c.08,0,.14,0,.22,0,1.29,0,3.32-.17,6.05-.88-.11,1.12,0,2.9,1.52,4.24.85.74,1.39,1.78,1.72,2.57H2.05v-5.93Zm16,5.93h-3.91c.36-3.4,2.56-4.62,3.91-5.04v5.04Zm0-6.58c-1.55.4-4.51,1.68-5.27,5.62-.41-.88-1.03-1.93-1.95-2.74-1.41-1.24-1.03-3.12-.91-3.59,2.78-1.12,3.4-3.84,3.32-5.2-.02-.41-.38-.72-.79-.71-.41.02-.73.38-.71.79,0,.12.13,3.02-2.83,3.88-3.28.96-5.59,1.11-6.86,1.09v-1.25c.88-.02,2.11-.23,3.18-1.1,1.35-1.1,2.04-2.91,2.05-5.37,0-1.94.51-3.36,1.49-4.2.35-.3.73-.5,1.11-.64h2.82s-.05.04-.07.06c-1.44,1.55-1.3,3.51-1.3,3.59.03.39.36.69.75.69.02,0,.04,0,.06,0,.41-.03.72-.39.69-.8,0-.01-.08-1.41.92-2.48.48-.51,1.14-.85,1.96-1.07h2.35v13.42Z"/></g></svg>