<?xml version="1.0" encoding="utf-8"?>
<!-- Generator: Adobe Illustrator 26.3.1, SVG Export Plug-In . SVG Version: 6.00 Build 0)  -->
<svg version="1.1" id="Capa_1" xmlns="http://www.w3.org/2000/svg" xmlns:xlink="http://www.w3.org/1999/xlink" x="0px" y="0px"
	 viewBox="0 0 150 25.3" style="enable-background:new 0 0 150 25.3;" xml:space="preserve">
<style type="text/css">
	.st0{fill:#FFFFFF;}
	.st1{fill:#FF4438;}
</style>
<path d="M110.8,14.3c0.2,4.6-3.4,8.4-8,8.6c-0.2,0-0.4,0-0.5,0c-4.6,0.1-8.5-3.6-8.6-8.2c0-0.1,0-0.3,0-0.4
	c-0.2-4.7,3.5-8.7,8.3-8.9c4.7-0.2,8.7,3.5,8.9,8.3C110.8,13.9,110.8,14.1,110.8,14.3L110.8,14.3z M107,14.2c0-0.8-0.1-1.7-0.5-2.4
	c-1-2.4-3.8-3.4-6.2-2.4c-1,0.4-1.8,1.2-2.3,2.2c-0.7,1.4-0.8,3-0.3,4.4c0.6,2.5,3.1,4,5.6,3.4l0,0C105.5,18.9,107,16.9,107,14.2
	L107,14.2z"/>
<path d="M115.6,7.8c2.3-2.9,7.6-2.8,9.6-0.4c1,1.2,1.6,2.6,1.6,4.2c0,3.4,0,10.9,0,10.9H123c0,0,0-6.8,0-9.8c0-0.2,0-0.4,0-0.6
	c-0.2-2-1.3-3.1-3.1-3.2c-1.9-0.2-3.6,1.1-3.9,3c-0.1,0.5-0.1,1.1-0.1,1.6c0,2.8,0,9.1,0,9.1h-3.8V6h3.5
	C115.6,6,115.6,7.4,115.6,7.8z"/>
<path d="M53.7,3.2V0l-3.8,1.1c0,7,0,14.4,0,21.4h3.8C53.6,16.3,53.7,9.4,53.7,3.2z"/>
<path d="M91.2,6V2.7h-3.8V6H86v3.1h1.4v13.4h3.8V9.1h2.3c0.4-0.7,0.9-1.4,1.5-2c0.4-0.4,0.9-0.8,1.4-1.1C96.4,6,91.2,6,91.2,6z"/>
<path d="M41.4,17.4c-0.1-2-1.3-3.3-3.6-4c-0.8-0.2-1.7-0.4-2.5-0.6c-0.9-0.1-1.8-0.4-2.7-0.8c-0.7-0.4-1-1.3-0.6-2
	c0.1-0.2,0.2-0.3,0.3-0.4c1.4-1.2,3.6-0.9,4.7,0.5c0.1,0.1,0.2,0.3,0.3,0.4v0.1c0.1,0.2,0.2,0.3,0.2,0.3l0.2-0.1l3.3-1
	c0-0.1,0-0.1,0-0.2c-0.4-1.3-1.3-2.4-2.5-3c-2.4-1.3-5.2-1.3-7.6,0c-1.8,0.9-2.9,2.9-2.6,5c0.2,1.9,1.7,3.4,3.5,3.7
	c1.4,0.3,2.9,0.6,4.4,1c1,0.3,1.5,0.9,1.5,1.6c0,0.9-0.7,1.7-1.5,1.9c-0.5,0.2-1,0.2-1.5,0.2h-0.4h-0.2c-1.3-0.2-2.4-1-3-2.1l0,0
	l-3.3,1c0.6,1.6,1.8,2.8,3.4,3.5c2.3,0.9,4.8,0.9,7.1-0.1C40.3,21.6,41.6,19.5,41.4,17.4z"/>
<path d="M85.6,17.4c-0.1-2-1.3-3.3-3.6-4c-0.8-0.2-1.7-0.4-2.5-0.6c-0.9-0.1-1.8-0.4-2.7-0.8c-0.7-0.4-1-1.3-0.6-2
	c0.1-0.2,0.2-0.3,0.3-0.4c1.4-1.2,3.5-0.9,4.7,0.5c0.1,0.1,0.2,0.3,0.3,0.4v0.1c0.1,0.2,0.2,0.3,0.2,0.3l0.2-0.1l3.3-1
	c0-0.1,0-0.1,0-0.2c-0.4-1.3-1.3-2.3-2.5-3c-2.4-1.3-5.2-1.3-7.6,0c-1.8,0.9-2.9,3-2.6,5c0.2,1.9,1.7,3.4,3.6,3.7
	c1.4,0.3,2.9,0.6,4.3,1c1,0.3,1.5,0.9,1.5,1.6c0,0.9-0.7,1.7-1.6,1.9c-0.5,0.2-1,0.2-1.4,0.2h-0.3h-0.2c-1.3-0.2-2.3-1-2.9-2.1l0,0
	l-3.3,1c0.6,1.6,1.8,2.8,3.4,3.5c2.3,0.9,4.8,0.9,7.1-0.1C84.6,21.5,85.9,19.5,85.6,17.4z"/>
<path d="M71.3,11.8c-1.6-6.8-9.1-7.7-13-4.5c-3,2.7-3.9,7-2.3,10.7c1.2,3,4.2,4.9,7.5,4.8c2.9,0.1,5.6-1.4,7-3.9l0,0l-3.3-1l0,0
	c0,0-0.2,0.2-0.4,0.4c-1.8,1.8-4.6,1.8-6.4,0c-0.6-0.6-1-1.3-1.2-2.1C59,15.4,59,15.3,59,15.3h12.4C71.5,14.2,71.5,13,71.3,11.8z
	 M67.7,12.5c-1.3,0-3.1,0-4.3,0s-3.1,0-4.3,0c0,0,0-0.1,0.1-0.6c0.5-2,2.3-3.3,4.4-3.2c2-0.1,3.7,1.3,4.1,3.2
	C67.7,12.1,67.7,12.3,67.7,12.5z"/>
<path d="M144.4,11.8c-1.6-6.8-9.1-7.7-13-4.5c-3,2.7-3.9,7-2.3,10.7c1.9,4.1,6.9,5.9,11,4c1.4-0.7,2.7-1.8,3.5-3.1l0,0l-3.3-1l0,0
	c0,0-0.2,0.2-0.4,0.4c-1.8,1.8-4.6,1.8-6.4,0c-0.6-0.6-1-1.3-1.2-2.1c-0.2-0.8-0.2-0.9-0.2-0.9h12.4C144.7,14.2,144.7,13,144.4,11.8
	z M140.9,12.5c-1.3,0-3.1,0-4.4,0s-3.1,0-4.3,0c0,0,0-0.1,0.1-0.6c0.5-2,2.3-3.3,4.4-3.2c2-0.1,3.7,1.3,4.1,3.2
	C140.8,12.1,140.9,12.3,140.9,12.5z"/>
<rect x="43.3" y="8.9" width="3.8" height="13.6"/>
<circle cx="45.2" cy="4.7" r="2.2"/>
<path class="st0" d="M150,8.4c0,1.2-1,2.2-2.2,2.2s-2.2-1-2.2-2.2s1-2.2,2.2-2.2C149,6.3,150,7.2,150,8.4L150,8.4z M149.7,8.4
	c0-1-0.9-1.9-1.9-1.9s-1.9,0.9-1.9,1.9s0.9,1.9,1.9,1.9C148.9,10.3,149.7,9.5,149.7,8.4z M148.7,9.5h-0.3l-0.5-0.9h-0.6v0.9H147V7.3
	h0.8c0.4,0,0.7,0.2,0.7,0.6c0,0,0,0,0,0.1c0,0.3-0.2,0.5-0.4,0.6L148.7,9.5z M147.4,8.4h0.5c0.3,0,0.5-0.2,0.5-0.4s-0.1-0.4-0.5-0.4
	h-0.5V8.4z"/>
<path class="st1" d="M17.7,25.3c0.5,0,0.9-0.2,1.3-0.4c3.8-2.5,3.9-7.2,1.1-11.8c-2.2-3.7-1.8-6.8,0.1-9.5c0.1-0.1,0-0.2,0-0.2h-0.1
	H0.2C0.1,3.2,0,3.3,0,3.4l0,0v21.7c0,0.1,0.1,0.2,0.2,0.2C0.2,25.3,17.7,25.3,17.7,25.3z"/>
</svg>
