<?xml version="1.0" encoding="utf-8"?>
<!-- Generator: Adobe Illustrator 21.0.0, SVG Export Plug-In . SVG Version: 6.00 Build 0)  -->
<svg version="1.1" id="Layer_1" xmlns="http://www.w3.org/2000/svg" xmlns:xlink="http://www.w3.org/1999/xlink" x="0px" y="0px"
	 viewBox="0 0 251.7 82.5" style="enable-background:new 0 0 251.7 82.5;" xml:space="preserve">
<g>
	<path d="M14.7,75.5c-2.6,0-4.8-2.1-4.8-4.8c0-2.6,2.1-4.8,4.8-4.8c2.6,0,4.8,2.1,4.8,4.8C19.5,73.4,17.3,75.5,14.7,75.5z"/>
	<path d="M228.1,75.5c-2.6,0-4.8-2.1-4.8-4.8c0-2.6,2.1-4.8,4.8-4.8c2.6,0,4.8,2.1,4.8,4.8C232.8,73.4,230.7,75.5,228.1,75.5z"/>
	<g>
		<path d="M22.1,48.5C14.3,48.4,6.3,46.9,0,43.6V32.9h14.7v4.4c2.3,0.7,4.9,1.1,7.4,1.1c2.5,0,5.1-0.3,7.4-1.1v-5.9L0.1,25.7V4.9
			C6.3,1.6,14,0,22.2,0c8,0,15.6,1.5,22,4.9v10.7H29.5v-4.4c-2.3-0.8-4.5-1-7.3-1c-2.7,0-4.9,0.3-7.3,1v6.3l29.5,5.6v20.5
			C38,46.9,29.9,48.5,22.1,48.5z"/>
		<path d="M75.2,48.5c-8.6,0-16.8-2-23.1-5.7V5.7C58.3,2,66.5,0,75.2,0c8.5,0,16.7,1.8,23,5.7v37.1C92,46.6,83.7,48.4,75.2,48.5z
			 M83.5,12.3c-2.3-0.9-5-1.5-8.4-1.5c-3.3,0-6,0.6-8.4,1.5v23.9c2.3,1,5.1,1.6,8.4,1.6c3.3,0,6-0.6,8.4-1.6V12.3z"/>
		<path d="M147.3,47.7V0.8h14.8V36h20.3v11.7H147.3z"/>
		<path d="M106.3,47.7V0.8h14.8V36h20.4v11.7H106.3z"/>
		<path d="M179.3,15.3V4.8h12.6v10.5H179.3z M179.4,47.7V20.4h12.3v27.2H179.4z"/>
		<path d="M220.8,47.7h-21.1V0.8h21.1c10,0,18.1,2.7,23.9,7v32.8C239.1,44.9,230.9,47.7,220.8,47.7z M230,13.1c-2-1.2-5.1-2-9.2-2
			h-6.4v26.1h6.4c4,0,7.2-0.8,9.2-2V13.1z"/>
	</g>
	<g>
		<path d="M43,68.2c-0.2-1.1-0.8-1.8-1.6-2.3c-0.7-0.5-1.7-0.7-2.7-0.7c-2.7,0-4.5,2.4-4.5,5.3c0,4,2.6,5.6,4.7,5.5
			c1.6-0.1,3.1-0.8,3.8-2.3h6.9c-0.7,5.8-5.9,8.8-11.3,8.8c-7.1,0-10.9-5.2-10.9-12c0-6.4,3.8-11.4,10.5-11.4c1.8,0,4,0.5,5.2,2.1
			h0.1v-1.6H49v8.6H43z"/>
		<path d="M48.5,82.1v-4.6h1.6l4.6-13.2h-2v-4.6h17.5v4.6h-2l4.4,13.2h1.6v4.6H63v-4.6h2.4l-1-2.9h-6.7l-1,2.9h2.5v4.6H48.5z
			 M63.2,70.9l-2-6.5h-0.1l-2.1,6.5H63.2z"/>
		<path d="M73.7,59.7h14.4c2.3,0,7.6,0.2,7.6,5.6c0,2.8-1.6,4.4-4.3,5v0.1c3.2,0.4,5.1,2.1,5.1,5.4c0,5.2-3.3,6.3-9.7,6.3h-13v-4.6
			H76V64.3h-2.3V59.7z M82.7,68.5h3c2.1,0,3.2-0.8,3.2-2.2c0-2-2-2-3.8-2h-2.4V68.5z M82.7,77.5h3.6c2.4,0,3.4-0.7,3.4-2.7
			c0-1.8-1.5-2.5-3.3-2.5h-3.7V77.5z"/>
		<path d="M108,82.1H96.5v-4.6h2.4V64.3h-2.4v-4.6H108v4.6h-2.4v13.2h2.4V82.1z"/>
		<path d="M107.7,59.7h8.7l7.7,11.8v-7.3h-2.6v-4.6h11.1v4.6h-2.2v17.8h-6.2l-7.9-12.5v7.9h2.6v4.6h-11.1v-4.6h2.2V64.3h-2.2V59.7z"
			/>
		<path d="M132.5,82.1v-4.6h2.1V64.3h-2.1v-4.6h21.1v8.5h-4.5l-1-3.9h-6.8v4.1h4.3v5h-4.3v4.1h6.8l1-4.3h4.5v8.9H132.5z"/>
		<path d="M153.5,68.1v-8.5h22v8.5h-4.2l-0.9-3.9h-2.6v13.2h2.6v4.6h-11.9v-4.6h2.6V64.3h-2.6l-0.9,3.9H153.5z"/>
		<path d="M174.8,59.7h14.8c5.3,0,7.6,1.5,7.6,5.8c0,3.1-1.4,4.7-4.3,5.2v0.1c1.5,0.4,3.7,0.4,3.7,2.5v4.2h1.9v4.6h-8.6v-5.7
			c0-1.7-0.3-3.2-2.3-3.2h-3.8v4.3h2.2v4.6h-11.2v-4.6h2.3V64.3h-2.3V59.7z M183.8,68.5h3.9c1.5,0,2.6-0.8,2.6-2.1
			c0-1.5-1.1-2.2-2.6-2.2h-3.9V68.5z"/>
		<path d="M218.6,64.3l-6.4,9.6v3.6h2.4v4.6h-11.5v-4.6h2.4v-3.8l-6.9-9.5h-1.8v-4.6h10.8v4.6h-1.8l3,5.3l3-5.3h-1.8v-4.6h10.4v4.6
			H218.6z"/>
	</g>
	<g>
		<path d="M248.1,43.8c0.6,0,1.2,0.2,1.8,0.5c0.6,0.3,1,0.7,1.3,1.3c0.3,0.6,0.5,1.2,0.5,1.8c0,0.6-0.2,1.2-0.5,1.8
			c-0.3,0.6-0.8,1-1.3,1.3c-0.6,0.3-1.2,0.5-1.8,0.5c-0.6,0-1.2-0.2-1.8-0.5c-0.6-0.3-1-0.8-1.3-1.3c-0.3-0.6-0.5-1.2-0.5-1.8
			c0-0.6,0.2-1.2,0.5-1.8c0.3-0.6,0.8-1,1.3-1.3C246.9,43.9,247.5,43.8,248.1,43.8z M248.1,44.5c-0.5,0-1,0.1-1.4,0.4
			c-0.5,0.2-0.8,0.6-1.1,1.1c-0.3,0.5-0.4,0.9-0.4,1.4c0,0.5,0.1,1,0.4,1.4c0.3,0.5,0.6,0.8,1.1,1.1c0.5,0.3,0.9,0.4,1.4,0.4
			c0.5,0,1-0.1,1.4-0.4c0.5-0.3,0.8-0.6,1.1-1.1c0.3-0.5,0.4-0.9,0.4-1.4c0-0.5-0.1-1-0.4-1.4c-0.3-0.5-0.6-0.8-1.1-1.1
			C249.1,44.6,248.6,44.5,248.1,44.5z M246.5,49.2v-3.8h0.8c0.7,0,1.1,0,1.2,0c0.3,0,0.5,0.1,0.6,0.2c0.1,0.1,0.3,0.2,0.4,0.4
			c0.1,0.2,0.1,0.3,0.1,0.5c0,0.3-0.1,0.5-0.3,0.7c-0.2,0.2-0.4,0.3-0.8,0.4c0.1,0,0.2,0.1,0.3,0.1c0.1,0.1,0.1,0.1,0.3,0.3
			c0,0,0.1,0.2,0.3,0.5l0.4,0.8h-1l-0.3-0.6c-0.2-0.4-0.4-0.7-0.5-0.8c-0.1-0.1-0.3-0.2-0.5-0.2h-0.2v1.6H246.5z M247.3,47.1h0.3
			c0.4,0,0.7,0,0.8-0.1c0.1,0,0.2-0.1,0.3-0.2c0.1-0.1,0.1-0.2,0.1-0.3c0-0.1,0-0.2-0.1-0.3c-0.1-0.1-0.1-0.1-0.3-0.2
			c-0.1,0-0.4-0.1-0.8-0.1h-0.3V47.1z"/>
	</g>
</g>
</svg>
