<?xml version="1.0" encoding="UTF-8"?><svg id="b" xmlns="http://www.w3.org/2000/svg" width="20" height="24" viewBox="0 0 20 24"><g id="c"><path d="m18,0H0v24h20V0h-2Zm-5.58,2c.23.33.62.62,1.14,1,.91.65,2.15,1.54,2.14,2.51-.01,1.23,1.39,2.49,2.3,3.18v2.31h-1.43c-.12-.25-.28-.59-.44-.91-.69-1.47-1.63-3.48-2.43-4.31-.59-.61-1.28-.95-1.89-1.24-.36-.17-.61-.31-.81-.45v-2.09h1.42Zm3.02,20h-.64c-.03-.11-.06-.22-.09-.34-.3-1.06-.95-1.57-1.7-2.16-.33-.26-.7-.55-1.11-.94-.49-.46-.76-1.02-.91-1.5v-4.07h.49c-.01,1.1.09,2.91.76,3.87.23.33.42.68.58.98.34.64.64,1.19,1.26,1.26.04,0,.07,0,.11,0,.24,0,.56-.09.87-.44.71-.8,1.03-2.04.84-3.23-.09-.57-.08-1.74-.03-2.45h2.11v.94c-.66,1.18-2.01,3.82-2.13,5.91-.06,1.04-.25,1.72-.43,2.15Zm-1-6.31c.09.54,0,1.12-.21,1.58-.02-.04-.05-.08-.07-.12-.18-.33-.4-.74-.68-1.14-.37-.52-.49-1.88-.49-3h1.4c-.09,1.19.05,2.66.05,2.69Zm-3.44-4.69v-5.19c.05.03.11.05.16.08.55.26,1.06.51,1.46.93.63.65,1.58,2.69,2.15,3.9.05.1.09.19.13.28h-3.91Zm-2-9v1.55h-.02s.02.07.02.1v4.5c-.6-1-.8-2.16-.94-2.98-.08-.51-.14-.87-.29-1.15-.12-.22-.57-.98-1.48-1.25-.44-.13-1.15-.18-2.01.3-.72.41-1.11,1.18-1.48,1.92-.08.17-.17.34-.26.5-.05.09-.21.28-.36.47-.06.07-.13.16-.19.24V2h7Zm-4.27,13.14c.23-1.57.64-3.16.95-3.79.6.75,1.44,3.09,1.13,3.97-.87,2.38-.37,5.12.07,6.69h-2.42c-.2-1.34-.04-4.34.27-6.86Zm3.71,6.86c-.39-1.27-1.03-3.98-.23-6.18.55-1.52-.57-4.57-1.54-5.61-.55-.58-1.04-.59-1.36-.5-.9.26-1.6,2.01-2.07,5.22-.16,1.27-.56,4.87-.28,7.06h-.97v-12.9c.36-.95.93-1.68,1.35-2.18.23-.27.4-.49.52-.7.1-.18.19-.36.28-.54.27-.54.56-1.1.88-1.29.32-.18.61-.24.84-.17.29.09.5.35.57.49.04.09.1.43.14.71.19,1.14.5,3.05,1.87,4.5.25.26.42.53.55.77v11.31h-.56Zm2.56-2.23c.41.37.77.67,1.09.92.69.54.99.8,1.15,1.31h-2.24v-2.23Zm6.02,2.23c.16-.53.29-1.2.34-2.06.05-.77.31-1.66.63-2.51v4.57h-.98Zm.98-15.3c-.47-.47-.8-.91-.8-1.18.01-1.59-1.38-2.73-2.46-3.52h3.26v4.7Z"/></g></svg>